<svg xmlns="http://www.w3.org/2000/svg" xmlns:xlink="http://www.w3.org/1999/xlink" width="472" height="118" viewBox="0 0 472 118">
  <defs>
    <filter id="Rectangle_4" x="0" y="0" width="472" height="118" filterUnits="userSpaceOnUse">
      <feOffset dx="10" dy="10" input="SourceAlpha"/>
      <feGaussianBlur stdDeviation="3" result="blur"/>
      <feFlood flood-opacity="0.161"/>
      <feComposite operator="in" in2="blur"/>
      <feComposite in="SourceGraphic"/>
    </filter>
  </defs>
  <g id="Groupe_30" data-name="Groupe 30" transform="translate(-735.745 -799.892)">
    <g transform="matrix(1, 0, 0, 1, 735.75, 799.89)" filter="url(#Rectangle_4)">
      <rect id="Rectangle_4-2" data-name="Rectangle 4" width="453" height="99" rx="15" transform="translate(0 0)" fill="#fff"/>
    </g>
    <g id="Groupe_15" data-name="Groupe 15" transform="translate(764.745 828.242)">
      <path id="Tracé_46" data-name="Tracé 46" d="M-79.5-13.1h1.611a6.164,6.164,0,0,0,3.5-.79,2.818,2.818,0,0,0,1.128-2.481,2.578,2.578,0,0,0-1.152-2.385,6.991,6.991,0,0,0-3.569-.709H-79.5Zm0,4.061V0h-5V-23.558h6.864q4.8,0,7.106,1.748a6.24,6.24,0,0,1,2.3,5.309,6.25,6.25,0,0,1-1.144,3.7,7.57,7.57,0,0,1-3.239,2.538Q-67.289-2.32-65.678,0h-5.543l-5.624-9.04Zm23.864-5.817a3.117,3.117,0,0,0-2.449.991A4.586,4.586,0,0,0-59.1-11.054h6.9a4.1,4.1,0,0,0-.951-2.812A3.219,3.219,0,0,0-55.639-14.856ZM-54.946.322a9.3,9.3,0,0,1-6.8-2.4,9.091,9.091,0,0,1-2.449-6.8q0-4.528,2.264-7a8.061,8.061,0,0,1,6.26-2.473,7.935,7.935,0,0,1,5.946,2.175,8.23,8.23,0,0,1,2.127,6.01v2.385H-59.216a4.731,4.731,0,0,0,1.241,3.271,4.366,4.366,0,0,0,3.255,1.176,13.512,13.512,0,0,0,3.078-.338,15.4,15.4,0,0,0,3.029-1.08v3.8a11.54,11.54,0,0,1-2.755.959A17.373,17.373,0,0,1-54.946.322Zm27.022-18.337v2.5l-2.82.725a4.916,4.916,0,0,1,.773,2.707,5.465,5.465,0,0,1-2.022,4.52,8.759,8.759,0,0,1-5.615,1.619l-.886-.048-.725-.081a1.634,1.634,0,0,0-.757,1.289q0,1.063,2.707,1.063h3.062a6.984,6.984,0,0,1,4.52,1.273,4.55,4.55,0,0,1,1.555,3.738,5.544,5.544,0,0,1-2.635,4.9q-2.635,1.74-7.565,1.74a10.473,10.473,0,0,1-5.76-1.313,4.17,4.17,0,0,1-1.99-3.682A3.854,3.854,0,0,1-45.069.209a5.764,5.764,0,0,1,2.981-1.563,3.289,3.289,0,0,1-1.321-1.055,2.509,2.509,0,0,1-.564-1.555,2.52,2.52,0,0,1,.6-1.716,6.893,6.893,0,0,1,1.724-1.345A4.835,4.835,0,0,1-43.9-8.991a5.982,5.982,0,0,1-.83-3.19,5.626,5.626,0,0,1,1.917-4.56,8.291,8.291,0,0,1,5.479-1.611,14.022,14.022,0,0,1,1.8.137q1.039.137,1.329.2ZM-41.83,2.546a1.781,1.781,0,0,0,.975,1.6,5.364,5.364,0,0,0,2.731.58A9.674,9.674,0,0,0-33.983,4a2.21,2.21,0,0,0,1.5-1.982,1.4,1.4,0,0,0-.886-1.4A7.258,7.258,0,0,0-36.11.226h-2.546A3.855,3.855,0,0,0-40.92.862,1.963,1.963,0,0,0-41.83,2.546Zm1.789-14.663a3.668,3.668,0,0,0,.669,2.32,2.429,2.429,0,0,0,2.038.854A2.379,2.379,0,0,0-35.3-9.8a3.766,3.766,0,0,0,.645-2.32q0-3.255-2.675-3.255Q-40.042-15.372-40.042-12.117Zm14.873-10.554q0-2.4,2.675-2.4t2.675,2.4a2.341,2.341,0,0,1-.669,1.781,2.811,2.811,0,0,1-2.006.636Q-25.169-20.254-25.169-22.671ZM-20.045,0h-4.915V-18.015h4.915ZM-2.32-5.35A4.96,4.96,0,0,1-4.246-1.128a9.514,9.514,0,0,1-5.76,1.45A18.093,18.093,0,0,1-13.358.056a12.677,12.677,0,0,1-2.594-.781V-4.786a17.132,17.132,0,0,0,3.086,1.08,12.5,12.5,0,0,0,3.021.435q2.675,0,2.675-1.547a1.291,1.291,0,0,0-.354-.943A5.14,5.14,0,0,0-8.75-6.582q-.87-.459-2.32-1.072a14.576,14.576,0,0,1-3.053-1.611,4.536,4.536,0,0,1-1.418-1.7,5.611,5.611,0,0,1-.443-2.361,4.279,4.279,0,0,1,1.861-3.714,9.066,9.066,0,0,1,5.277-1.313,14.979,14.979,0,0,1,6.333,1.418L-4-13.39q-1.354-.58-2.53-.951a7.944,7.944,0,0,0-2.4-.371q-2.175,0-2.175,1.176a1.383,1.383,0,0,0,.7,1.144,19.062,19.062,0,0,0,3.07,1.434,14.26,14.26,0,0,1,3.094,1.6,4.718,4.718,0,0,1,1.45,1.708A5.249,5.249,0,0,1-2.32-5.35ZM9.1-3.593A10.653,10.653,0,0,0,12.2-4.157V-.5A11.031,11.031,0,0,1,7.686.322a5.522,5.522,0,0,1-4.294-1.49A6.488,6.488,0,0,1,2.046-5.64v-8.685H-.306V-16.4L2.4-18.047l1.418-3.8H6.961v3.835H12v3.69H6.961V-5.64a1.919,1.919,0,0,0,.588,1.547A2.321,2.321,0,0,0,9.1-3.593ZM23.3-14.856a3.117,3.117,0,0,0-2.449.991,4.586,4.586,0,0,0-1.015,2.812h6.9a4.1,4.1,0,0,0-.951-2.812A3.219,3.219,0,0,0,23.3-14.856ZM23.993.322a9.3,9.3,0,0,1-6.8-2.4,9.091,9.091,0,0,1-2.449-6.8q0-4.528,2.264-7a8.061,8.061,0,0,1,6.26-2.473,7.935,7.935,0,0,1,5.946,2.175,8.23,8.23,0,0,1,2.127,6.01v2.385H19.723a4.731,4.731,0,0,0,1.241,3.271,4.366,4.366,0,0,0,3.255,1.176A13.512,13.512,0,0,0,27.3-3.674a15.4,15.4,0,0,0,3.029-1.08v3.8A11.54,11.54,0,0,1,27.57.008,17.373,17.373,0,0,1,23.993.322Zm21.4-18.675a7.926,7.926,0,0,1,1.66.145L46.68-13.6a5.63,5.63,0,0,0-1.45-.161,5.212,5.212,0,0,0-3.666,1.208,4.369,4.369,0,0,0-1.313,3.384V0H35.336V-18.015h3.722l.725,3.029h.242a6.772,6.772,0,0,1,2.264-2.441A5.582,5.582,0,0,1,45.391-18.353Zm11.73,3.5a3.117,3.117,0,0,0-2.449.991,4.586,4.586,0,0,0-1.015,2.812h6.9a4.1,4.1,0,0,0-.951-2.812A3.219,3.219,0,0,0,57.122-14.856ZM57.814.322a9.3,9.3,0,0,1-6.8-2.4,9.091,9.091,0,0,1-2.449-6.8q0-4.528,2.264-7a8.061,8.061,0,0,1,6.26-2.473,7.935,7.935,0,0,1,5.946,2.175,8.23,8.23,0,0,1,2.127,6.01v2.385H53.544a4.731,4.731,0,0,0,1.241,3.271A4.366,4.366,0,0,0,58.04-3.335a13.512,13.512,0,0,0,3.078-.338,15.4,15.4,0,0,0,3.029-1.08v3.8a11.54,11.54,0,0,1-2.755.959A17.373,17.373,0,0,1,57.814.322Zm17.048,0a5.851,5.851,0,0,1-4.987-2.465,11.334,11.334,0,0,1-1.813-6.832,11.345,11.345,0,0,1,1.845-6.9,5.992,5.992,0,0,1,5.084-2.473A5.877,5.877,0,0,1,80.18-15.71h.161A20.092,20.092,0,0,1,79.97-19.3v-5.769H84.9V0H81.13L80.18-2.336H79.97A5.624,5.624,0,0,1,74.862.322Zm1.724-3.916a3.33,3.33,0,0,0,2.763-1.1,6.374,6.374,0,0,0,.959-3.722v-.532a7.366,7.366,0,0,0-.894-4.157,3.322,3.322,0,0,0-2.908-1.257,2.885,2.885,0,0,0-2.554,1.394,7.436,7.436,0,0,0-.91,4.052,7.047,7.047,0,0,0,.918,3.988A3,3,0,0,0,76.586-3.593Z" transform="translate(245.193 35)" fill="#3ddc84"/>
      <path id="android" d="M43.211,24.7a2.447,2.447,0,1,1,2.446-2.447A2.447,2.447,0,0,1,43.211,24.7m-27.044,0a2.447,2.447,0,1,1,2.446-2.447A2.447,2.447,0,0,1,16.167,24.7M44.088,9.958l4.89-8.469A1.017,1.017,0,1,0,47.216.471L42.265,9.046a30.738,30.738,0,0,0-25.152,0L12.162.471A1.017,1.017,0,0,0,10.4,1.488l4.89,8.47A28.872,28.872,0,0,0,.31,33.068H59.068a28.875,28.875,0,0,0-14.98-23.11" transform="translate(64.69 5.542)" fill="#3ddc84"/>
    </g>
  </g>
</svg>
