<svg xmlns="http://www.w3.org/2000/svg" width="427" height="85" viewBox="0 0 427 85">
  <g id="Groupe_14" data-name="Groupe 14" transform="translate(-735.745 -799.892)">
    <rect id="Rectangle_4" data-name="Rectangle 4" width="427" height="85" rx="15" transform="translate(735.745 799.892)" fill="#fff"/>
    <g id="Groupe_15" data-name="Groupe 15" transform="translate(765.189 820.734)">
      <text id="Get_alpha_version" data-name="Get alpha version" transform="translate(225.749 35.157)" fill="#1f1f1f" font-size="33" font-family="OpenSans-Bold, Open Sans" font-weight="700"><tspan x="-144.609" y="0">Get alpha version</tspan></text>
      <path id="android" d="M43.211,24.7a2.447,2.447,0,1,1,2.446-2.447A2.447,2.447,0,0,1,43.211,24.7m-27.044,0a2.447,2.447,0,1,1,2.446-2.447A2.447,2.447,0,0,1,16.167,24.7M44.088,9.958l4.89-8.469A1.017,1.017,0,1,0,47.216.471L42.265,9.046a30.738,30.738,0,0,0-25.152,0L12.162.471A1.017,1.017,0,0,0,10.4,1.488l4.89,8.47A28.872,28.872,0,0,0,.31,33.068H59.068a28.875,28.875,0,0,0-14.98-23.11" transform="translate(6.247 4.699)" fill="#3ddc84"/>
    </g>
  </g>
</svg>
