<svg xmlns="http://www.w3.org/2000/svg" xmlns:xlink="http://www.w3.org/1999/xlink" width="472" height="118" viewBox="0 0 472 118">
  <defs>
    <filter id="Rectangle_4" x="0" y="0" width="472" height="118" filterUnits="userSpaceOnUse">
      <feOffset dx="10" dy="10" input="SourceAlpha"/>
      <feGaussianBlur stdDeviation="3" result="blur"/>
      <feFlood flood-opacity="0.161"/>
      <feComposite operator="in" in2="blur"/>
      <feComposite in="SourceGraphic"/>
    </filter>
  </defs>
  <g id="Groupe_25" data-name="Groupe 25" transform="translate(-735.745 -799.892)">
    <g transform="matrix(1, 0, 0, 1, 735.75, 799.89)" filter="url(#Rectangle_4)">
      <rect id="Rectangle_4-2" data-name="Rectangle 4" width="453" height="99" rx="15" transform="translate(0 0)" fill="#fff"/>
    </g>
    <g id="Groupe_15" data-name="Groupe 15" transform="translate(760.745 828.242)">
      <path id="Tracé_45" data-name="Tracé 45" d="M-132.7-13.229h9.346V-1.015A26.348,26.348,0,0,1-127.633.024a27.866,27.866,0,0,1-4.1.3q-5.333,0-8.145-3.134t-2.812-9q0-5.7,3.263-8.895t9.048-3.19a17.506,17.506,0,0,1,6.993,1.45l-1.66,4a11.854,11.854,0,0,0-5.366-1.289,6.627,6.627,0,0,0-5.188,2.175,8.438,8.438,0,0,0-1.95,5.849,9.394,9.394,0,0,0,1.571,5.857,5.435,5.435,0,0,0,4.568,2.022,16.158,16.158,0,0,0,3.174-.322V-9.072H-132.7Zm22.027-1.627a3.117,3.117,0,0,0-2.449.991,4.586,4.586,0,0,0-1.015,2.812h6.9a4.1,4.1,0,0,0-.951-2.812A3.219,3.219,0,0,0-110.674-14.856Zm.693,15.179a9.3,9.3,0,0,1-6.8-2.4,9.091,9.091,0,0,1-2.449-6.8q0-4.528,2.264-7a8.061,8.061,0,0,1,6.26-2.473,7.935,7.935,0,0,1,5.946,2.175,8.23,8.23,0,0,1,2.127,6.01v2.385h-11.618a4.731,4.731,0,0,0,1.241,3.271,4.366,4.366,0,0,0,3.255,1.176,13.512,13.512,0,0,0,3.078-.338,15.4,15.4,0,0,0,3.029-1.08v3.8A11.54,11.54,0,0,1-106.4.008,17.373,17.373,0,0,1-109.981.322Zm18.933-3.916a10.653,10.653,0,0,0,3.094-.564V-.5a11.031,11.031,0,0,1-4.512.822,5.522,5.522,0,0,1-4.294-1.49A6.488,6.488,0,0,1-98.106-5.64v-8.685h-2.353V-16.4l2.707-1.644,1.418-3.8h3.142v3.835h5.043v3.69h-5.043V-5.64A1.919,1.919,0,0,0-92.6-4.093,2.321,2.321,0,0,0-91.048-3.593ZM-64.3,0l-.951-2.449h-.129A7.259,7.259,0,0,1-67.934-.282a8.254,8.254,0,0,1-3.424.6A5.537,5.537,0,0,1-75.442-1.16a5.693,5.693,0,0,1-1.49-4.222,4.754,4.754,0,0,1,2.006-4.23,11.624,11.624,0,0,1,6.051-1.507l3.126-.1V-12q0-2.739-2.8-2.739a12.777,12.777,0,0,0-5.076,1.305l-1.627-3.319a14.645,14.645,0,0,1,6.9-1.627A8.591,8.591,0,0,1-62.8-16.806,5.836,5.836,0,0,1-60.868-12V0Zm-1.45-8.347-1.9.064a6.089,6.089,0,0,0-3.19.773A2.429,2.429,0,0,0-71.889-5.35q0,2.079,2.385,2.079a3.777,3.777,0,0,0,2.731-.983,3.452,3.452,0,0,0,1.023-2.61ZM-50.894,0h-4.915V-25.072h4.915Zm15.05.322a5.975,5.975,0,0,1-4.979-2.3h-.258q.258,2.256.258,2.61v7.3h-4.915V-18.015h4l.693,2.336h.226a5.685,5.685,0,0,1,5.108-2.675,5.846,5.846,0,0,1,5,2.465,11.4,11.4,0,0,1,1.8,6.848,13.522,13.522,0,0,1-.846,5.011A7.029,7.029,0,0,1-32.17-.79,6.173,6.173,0,0,1-35.844.322Zm-1.45-14.744a3.1,3.1,0,0,0-2.659,1.12,6.43,6.43,0,0,0-.87,3.7v.532a7.59,7.59,0,0,0,.862,4.157A3.077,3.077,0,0,0-37.23-3.658q3.3,0,3.3-5.446a7.777,7.777,0,0,0-.814-3.988A2.777,2.777,0,0,0-37.294-14.421ZM-8.226,0H-13.14V-10.522q0-3.9-2.9-3.9a3.3,3.3,0,0,0-2.981,1.4,8.562,8.562,0,0,0-.918,4.544V0h-4.915V-25.072h4.915v5.108q0,.6-.113,2.8l-.113,1.45h.258a5.693,5.693,0,0,1,5.221-2.643,6.383,6.383,0,0,1,4.818,1.708,6.786,6.786,0,0,1,1.644,4.9Zm16.5,0L7.323-2.449H7.195A7.259,7.259,0,0,1,4.641-.282a8.254,8.254,0,0,1-3.424.6A5.537,5.537,0,0,1-2.868-1.16a5.693,5.693,0,0,1-1.49-4.222,4.754,4.754,0,0,1,2.006-4.23A11.624,11.624,0,0,1,3.7-11.118l3.126-.1V-12q0-2.739-2.8-2.739a12.777,12.777,0,0,0-5.076,1.305l-1.627-3.319a14.645,14.645,0,0,1,6.9-1.627,8.591,8.591,0,0,1,5.559,1.579A5.836,5.836,0,0,1,11.706-12V0ZM6.824-8.347l-1.9.064a6.089,6.089,0,0,0-3.19.773A2.429,2.429,0,0,0,.685-5.35q0,2.079,2.385,2.079A3.777,3.777,0,0,0,5.8-4.254a3.452,3.452,0,0,0,1.023-2.61ZM29.624,0,22.76-18.015H27.9L31.381-7.75a18.315,18.315,0,0,1,.725,3.69h.1a16.046,16.046,0,0,1,.725-3.69l3.464-10.264h5.14L34.668,0ZM51.571-14.856a3.117,3.117,0,0,0-2.449.991,4.586,4.586,0,0,0-1.015,2.812H55a4.1,4.1,0,0,0-.951-2.812A3.219,3.219,0,0,0,51.571-14.856ZM52.263.322a9.3,9.3,0,0,1-6.8-2.4,9.091,9.091,0,0,1-2.449-6.8q0-4.528,2.264-7a8.061,8.061,0,0,1,6.26-2.473,7.935,7.935,0,0,1,5.946,2.175,8.23,8.23,0,0,1,2.127,6.01v2.385H47.993a4.731,4.731,0,0,0,1.241,3.271,4.366,4.366,0,0,0,3.255,1.176,13.512,13.512,0,0,0,3.078-.338A15.4,15.4,0,0,0,58.6-4.753v3.8a11.54,11.54,0,0,1-2.755.959A17.373,17.373,0,0,1,52.263.322Zm21.4-18.675a7.926,7.926,0,0,1,1.66.145L74.951-13.6a5.63,5.63,0,0,0-1.45-.161,5.212,5.212,0,0,0-3.666,1.208,4.369,4.369,0,0,0-1.313,3.384V0H63.607V-18.015h3.722l.725,3.029H68.3a6.772,6.772,0,0,1,2.264-2.441A5.582,5.582,0,0,1,73.662-18.353Zm17.5,13a4.96,4.96,0,0,1-1.926,4.222,9.514,9.514,0,0,1-5.76,1.45A18.093,18.093,0,0,1,80.123.056a12.677,12.677,0,0,1-2.594-.781V-4.786a17.132,17.132,0,0,0,3.086,1.08,12.5,12.5,0,0,0,3.021.435q2.675,0,2.675-1.547a1.291,1.291,0,0,0-.354-.943,5.14,5.14,0,0,0-1.225-.822q-.87-.459-2.32-1.072a14.576,14.576,0,0,1-3.053-1.611,4.536,4.536,0,0,1-1.418-1.7,5.611,5.611,0,0,1-.443-2.361,4.279,4.279,0,0,1,1.861-3.714,9.066,9.066,0,0,1,5.277-1.313,14.979,14.979,0,0,1,6.333,1.418L89.485-13.39q-1.354-.58-2.53-.951a7.944,7.944,0,0,0-2.4-.371q-2.175,0-2.175,1.176a1.383,1.383,0,0,0,.7,1.144,19.062,19.062,0,0,0,3.07,1.434,14.26,14.26,0,0,1,3.094,1.6,4.718,4.718,0,0,1,1.45,1.708A5.249,5.249,0,0,1,91.161-5.35Zm3.625-17.322q0-2.4,2.675-2.4t2.675,2.4a2.341,2.341,0,0,1-.669,1.781,2.811,2.811,0,0,1-2.006.636Q94.786-20.254,94.786-22.671ZM99.91,0H95V-18.015H99.91Zm9.072-9.04A7.561,7.561,0,0,0,109.86-5a3.141,3.141,0,0,0,2.86,1.37,3.091,3.091,0,0,0,2.828-1.362,7.67,7.67,0,0,0,.862-4.052,7.441,7.441,0,0,0-.87-4.012,3.146,3.146,0,0,0-2.852-1.337,3.136,3.136,0,0,0-2.836,1.329A7.434,7.434,0,0,0,108.982-9.04Zm12.456,0a9.68,9.68,0,0,1-2.32,6.88A8.413,8.413,0,0,1,112.656.322,9.039,9.039,0,0,1,108.08-.814a7.559,7.559,0,0,1-3.045-3.263,10.964,10.964,0,0,1-1.063-4.963,9.627,9.627,0,0,1,2.3-6.864,8.462,8.462,0,0,1,6.478-2.449,9.09,9.09,0,0,1,4.576,1.128,7.528,7.528,0,0,1,3.045,3.239A10.863,10.863,0,0,1,121.438-9.04ZM142.127,0h-4.915V-10.522a5.054,5.054,0,0,0-.693-2.925,2.521,2.521,0,0,0-2.208-.975,3.319,3.319,0,0,0-2.981,1.378,8.544,8.544,0,0,0-.918,4.568V0H125.5V-18.015h3.754l.661,2.3h.274a5.194,5.194,0,0,1,2.264-1.974,7.709,7.709,0,0,1,3.279-.669,6.3,6.3,0,0,1,4.77,1.7,6.822,6.822,0,0,1,1.627,4.906Z" transform="translate(245.193 35)" fill="#1f1f1f"/>
      <path id="android" d="M43.211,24.7a2.447,2.447,0,1,1,2.446-2.447A2.447,2.447,0,0,1,43.211,24.7m-27.044,0a2.447,2.447,0,1,1,2.446-2.447A2.447,2.447,0,0,1,16.167,24.7M44.088,9.958l4.89-8.469A1.017,1.017,0,1,0,47.216.471L42.265,9.046a30.738,30.738,0,0,0-25.152,0L12.162.471A1.017,1.017,0,0,0,10.4,1.488l4.89,8.47A28.872,28.872,0,0,0,.31,33.068H59.068a28.875,28.875,0,0,0-14.98-23.11" transform="translate(15.69 5.542)" fill="#3ddc84"/>
    </g>
  </g>
</svg>
