<?xml version="1.0" encoding="utf-8"?>
<!-- Generator: Adobe Illustrator 22.0.0, SVG Export Plug-In . SVG Version: 6.00 Build 0)  -->
<svg version="1.1" id="Calque_1" xmlns="http://www.w3.org/2000/svg" xmlns:xlink="http://www.w3.org/1999/xlink" x="0px" y="0px"
	 viewBox="0 0 32 32" style="enable-background:new 0 0 32 32;" xml:space="preserve">
<style type="text/css">
	.st0{fill:#FFFFFF;}
</style>
<title></title>
<g id="Layer_6">
	<path class="st0" d="M22,3H10c-3.9,0-7,3.1-7,7v12c0,3.9,3.1,7,7,7h12c3.9,0,7-3.1,7-7V10C29,6.1,25.9,3,22,3z M27,22
		c0,2.8-2.2,5-5,5H10c-2.8,0-5-2.2-5-5V10c0-2.8,2.2-5,5-5h12c2.8,0,5,2.2,5,5V22z"/>
	<path class="st0" d="M16,9.5c-3.6,0-6.5,2.9-6.5,6.5s2.9,6.5,6.5,6.5s6.5-2.9,6.5-6.5C22.5,12.4,19.6,9.5,16,9.5z M16,20.5
		c-2.5,0-4.5-2-4.5-4.5s2-4.5,4.5-4.5s4.5,2,4.5,4.5C20.5,18.5,18.5,20.5,16,20.5z"/>
	<circle class="st0" cx="23" cy="9" r="1"/>
</g>
</svg>
