<svg xmlns="http://www.w3.org/2000/svg" viewBox="0 0 1024 1024"><defs><style>.cls-1{fill:none;}.cls-2,.cls-3{fill:#fff;}.cls-3{font-size:105.69px;font-family:Helvetica-Bold, Helvetica;font-weight:700;}</style></defs><title>Plan de travail 3</title><g id="Calque_2" data-name="Calque 2"><g id="jalLpZ"><path class="cls-1" d="M169,768H855V82H169ZM290.46,323.66c-7.67-13.14-21.5-21.66-20.31-37.73l10.53-4.29C272.07,265.9,260.1,251.9,267.29,231c-6.5-12-14.06-25.85-10.46-43.91L276.06,193c-3.13-17.56-8.38-34.46,1.34-54.25C299,167.6,318.62,195.31,346,216.57c1.74-5.87,2.11-13.25,4.59-14,4-1.28,9.41,1.76,14.86,3.14-1.16-18.79-8.79-37.24,3.06-55.83l14.89,10c.73-26.2,2.13-51.88,29.91-68-5.76,78.93,9.94,149.09,65.59,205.89-2.14-7.72-6.76-14.2-11-20.91a34.65,34.65,0,0,1-4.21-9.17c-3-10.72-2-21.9-7-32.76-6.31-13.56-1.69-27.47,8-39.09-21.42-10-21.42-10-22.86-16.78l38.86-3.89c-7.72-11.21-4.81-15,5.51-15.61,4.69-.28,9.27-2.36,14.28-3.72-5.09-6.9-5.09-6.9,13.24-16.77l-21.26-6.29-.3-3.73c18.9-11.7,40.24-2.54,60.13-2.52l-8.94-24.6,3.35-1.92c3.42,2.09,6.81,4.24,10.27,6.27C572,115,586.84,124,602,132.47c8.24,4.57,19.86,6,24.91,12.63,7.18,9.46,16.82,13.29,25.68,19.31,17.84,12.13,16.54,43.93.39,51.35l-16.11-17.5-2.46,2.27c22.34,29.64,38,36.69,46.7,20H670.91c.11-9.35,5.81-12,12.49-12.1,8-.12,13.83,3.91,15.2,12.44,2.08,12.91-10.39,28.71-23.1,26.67a206.7,206.7,0,0,1-44.26-12.47c-12.85-5.18-24.46-6.62-31.92,1.06A19.64,19.64,0,0,0,594.27,248c-.08,1.69,5.54,3.74,8.66,5.46,2.46,1.37,5.07,2.47,6.83,3.32l13.64-6.12c.69,12.12,0,23.9,12.51,27.09,4.13,1,9.73-3.69,17.2-6.86,13.48,12.84,31.59,25.54,32.39,51.49,9.91-4.43,17.35-8.27,25.16-11.05,4.25-1.52,11.68-3.35,13.3-1.4,7.1,8.52,13.08.92,18.79-.69,2.64-.75,4.6-6.63,5.4-10.48a29.83,29.83,0,0,0,0-13.62c-3.3-11.75.56-19.66,9.51-27.75,12.08-10.91,22.45-12.43,35.15-2.18,2.19,1.77,5.43,3.61,8,3.33,11.45-1.25,15.51,6.66,18.77,14.86,5.85,14.72-1.17,29.59-14.37,31.43a23.7,23.7,0,0,1-.55-3.32c-.19-7.13-1.08-16-9.75-14.92-9.05,1.16-5.31,10.15-5.59,16.8-.36,8.29-1.47,17.44-5.38,24.48-6.46,11.6-5.41,22-1.31,33.75,4.74-.74,8.45-1.38,12.17-1.89s7.21-.85,11.11-1.3c-1.5,11.94-8,18.49-20.8,19.12-8.49.42-18.93.56-25.14-3.87-5.39-3.85-6.07-14.3-9.94-24.85-6,5.07-11.09,9.88-16.7,14-7.52,5.53-14.39,11.26-18.21,20.26-.85,2-5.19,2.67-8,3.63-4.24,1.43-8.59,2.57-12.32,3.67.48,7.2.89,13.53,1.5,22.82-6.51-4.08-9.7-6.64-13.32-8.22-7.06-3.08-20.91,8-18.35,15.6l9.7,2.89-3.25-9.4c7.12-1.46,7.12-1.46,31.38,16.54,9.27-13.31,21.24-16.93,31.08-8.41,3.19,2.76,4.64,8.19,5.48,12.67.3,1.61-3.49,4-5.42,6l-9.41-10c-.43,3.33-1.48,6.78-.82,7.15,6.45,3.59,13.05,7.15,20,9.25.81.24,4.67-8.31,6.44-13,1.66-4.45,1-11.73,3.88-13.43,10.39-6.07,21.51-12.76,33-14.4,7.88-1.11,18,4.29,25,9.63,4.64,3.57,5.45,12.14,8,18.47l-3.19,1-18.14-9c11.64,24.72,8.59,43-9,45.83-.32-2.6-.15-5.36-1-7.71-1.85-4.87-4.28-9.52-6.46-14.26-4.45,3-11.6,5.09-12.85,9.07-3.8,12.06-5.46,24.82-7.53,37.37-.26,1.59,1.7,4.69,3.18,5.1s4.19-1,5.76-2.38c2.85-2.45,5.26-5.41,9.12-9.5,2.84,12.11,2.89,21-5.81,28.05s-19.5,8.64-29,4.5c-7.51-3.29-13.88-10.4-19-17.16-1.17-1.57,5-8.62,7.76-13.21.33-.55,0-1.46,0-3l-12.93-4.45c-1.78,4.52-2.45,9.85-4.3,10.3-7.8,1.86-22.72-5.93-24-13.61-1.71-10.3-7.6-10.15-15.9-9.13.37,6.14.75,12.34,1.36,22.28l-27.26-16.75c-14.85,9.74-13.86,26.09-17.59,41.16a46.54,46.54,0,0,1-7.78-13.87c-2.95-7.57-7.86-7.56-13.38-3.27-7.84,6.08-11.49,31.35-5.46,38.95,1.5,1.89,5,2.24,9.57,4.15l-5.55-19.27c6.35,3.16,11.18,4,13.28,6.87,12.75,17.39,1.19,32.07-5.64,44,8.66,5.79,17.9,9.52,23,16.35,2.72,3.65-1.08,12.86-3.38,19-.49,1.29-7.34.19-8.9.19l-.94-13.16c-3.49,2.65-7.42,4.94-10.11,8.24-.59.73,2.67,6.43,5.15,7.48,8.73,3.67,18.06,5.87,26.84,9.46,8.26,3.37,14.89,3.41,23.08-1.86,14.81-9.54,37.59-2,41.61,14.16,3.16,12.66,2.75,26.27,3.12,39.48.06,2.28-5,7-5.78,6.64-6.07-3-6,3.16-8.8,4.87-13.06,7.9-24.28,19.93-43.25,20.48,2.81-6.47,5-11.56,7.68-17.67-12.36,1.24-24.7,6.54-34.48-6.91l15.74-4.38c-5.28-5.64-8.4-11.18-13.11-13.52a136.55,136.55,0,0,0-27.8-9.92c-7.87-2-16.21-2.07-25.73-3.15l3.23,13.8c-25.57,2.89-42.52-12.55-44.41-39.86,1.08-.17,2.25-.68,3.24-.45,8.92,2.11,10.77-4.18,11.16-10.36.47-7.43-5.31-7.94-11.07-8-5.08-.06-10.16-.62-19-1.2,6.1-5.76,10.11-8.55,12.73-12.31s4-8.6,5.85-13c-22.34,14.64-47.47,24.78-58.71,50.45-.57,1.31-2.06,2.21-3.1,3.32-29.76,31.59-66.61,53.75-102.53,77.13-2.84,1.85-6.48,2.47-10,3.74-3.68-18.14-4.09-18.64-15.8-21.68.92,6.68,1.9,13.69,2.91,20.95C372,717,385,736.65,382.74,756.27c-6.11,1.49-12.26,3.51-18.56,4.32-3.88.49-8.14-.39-11.95-1.56-4-1.2-7.52-4.85-11.38-5-12.83-.66-25.72-.25-35.58-.25-6.27-9.22-10.4-16.82-16-23.15-9.19-10.41-6.2-32.84,5.59-40,3.18-1.91,6.54-5.69,7.27-9.15,4-19.11,14.1-34.72,26.29-50.23,3.69,2.69,6.64,5,9.76,7.08s6.15,3.69,9.32,5.57c8.77-17.93,15.26-21.17,25.17-15,.8,4.54.83,8.35,2.4,11.36.48.93,7,.52,7.57-.71,2.19-4.93,5.75-11.9,3.83-15.31-2.28-4-9.69-5.17-17-8.54-2.45-8,4.69-12.87,12.67-17.34,6.61-3.7,13-7.68,12-18-10.23,2.28-19.65,4.73-29.2,6.42s-19.43,3.62-29.18,3.77c-29,.44-51.84-4.72-50.24-31.94-28-11.69-34.86-25.1-21.54-42.36-6.4-9.25-12.43-18.78-5.31-30.25,5.71-9.2,15.31-10,24.3-8.08,4.14.89,7.27,6.51,11.32,10.43,7.63-3.75,8.71-4.35,4.37-12.09-6.44-11.46-14.57-22-22-32.86-3.72-5.42-7.58-10.73-12.59-17.8-13.08,1.14-18.93,11.9-20.45,27.23-17.28-8.83-9.16-22.18-7.42-35.62l-43.59,8.44c17.89-30.27,45.68-22.1,69.05-24.3l3.5-8.38,22.31,9.53,11-6.12c1.32,4.06,2.83,8.08,3.92,12.21,1.84,6.93,2.07,14.65,5.35,20.76,10.19,19,21.89,37.14,32.09,56.11,2.88,5.36,5,13.42,3,18.34-1.44,3.45-10.51,4.4-16.33,5.07-3.92.46-8.09-1.92-12.21-2.33-11.46-1.13-16.14,4.57-13.46,15.72,2.95,12.24,10.86,19.75,22.46,23.62,15.33,5.11,29.64.32,42.42-7.13s24.56-17,36.14-26.47c8-6.53,14-15.91,22.63-21.21,8.86-5.44,19.95-7.13,29.83-11.06,17.92-7.12,37.48-11.65,50.43-30-26.69,15.33-26.69,15.33-35.69,10.44l7.41-11-50.57,16c2.44-6.75,3.45-9.56,4.51-12.48-25.1,2.48-49.68,2.78-59.85-11.77L387.19,430c-6.79-2.18-12.24-3.5-17.32-5.69-3.89-1.68-7.32-4.44-11-6.72l8.78-9.65c-28.76-5.07-54.9-15-69.66-45.77l18.67,1c-14.5-13-34.18-18.84-38.68-40.8Z"/><path d="M290.46,323.66,278,322.35c4.5,22,24.18,27.8,38.68,40.8l-18.67-1c14.76,30.75,40.9,40.7,69.66,45.77l-8.78,9.65c3.64,2.28,7.07,5,11,6.72,5.08,2.19,10.53,3.51,17.32,5.69l-16.62,11.15c10.17,14.55,34.75,14.25,59.85,11.77-1.06,2.92-2.07,5.73-4.51,12.48l50.57-16-7.41,11c9,4.89,9,4.89,35.69-10.44-12.95,18.37-32.51,22.9-50.43,30-9.88,3.93-21,5.62-29.83,11.06-8.63,5.3-14.62,14.68-22.63,21.21-11.58,9.43-23.3,19-36.14,26.47s-27.09,12.24-42.42,7.13c-11.6-3.87-19.51-11.38-22.46-23.62-2.68-11.15,2-16.85,13.46-15.72,4.12.41,8.29,2.79,12.21,2.33,5.82-.67,14.89-1.62,16.33-5.07,2.06-4.92-.09-13-3-18.34-10.2-19-21.9-37.13-32.09-56.11-3.28-6.11-3.51-13.83-5.35-20.76-1.09-4.13-2.6-8.15-3.92-12.21l-11,6.12-22.31-9.53-3.5,8.38c-23.37,2.2-51.16-6-69.05,24.3l43.59-8.44c-1.74,13.44-9.86,26.79,7.42,35.62,1.52-15.33,7.37-26.09,20.45-27.23,5,7.07,8.87,12.38,12.59,17.8,7.47,10.88,15.6,21.4,22,32.86,4.34,7.74,3.26,8.34-4.37,12.09-4-3.92-7.18-9.54-11.32-10.43-9-1.92-18.59-1.12-24.3,8.08-7.12,11.47-1.09,21,5.31,30.25-13.32,17.26-6.47,30.67,21.54,42.36C284,585.8,306.84,591,335.81,590.52c9.75-.15,19.52-2.06,29.18-3.77s19-4.14,29.2-6.42c1,10.34-5.39,14.32-12,18-8,4.47-15.12,9.31-12.67,17.34,7.28,3.37,14.69,4.5,17,8.54,1.92,3.41-1.64,10.38-3.83,15.31-.54,1.23-7.09,1.64-7.57.71-1.57-3-1.6-6.82-2.4-11.36-9.91-6.16-16.4-2.92-25.17,15-3.17-1.88-6.33-3.6-9.32-5.57s-6.07-4.39-9.76-7.08c-12.19,15.51-22.28,31.12-26.29,50.23-.73,3.46-4.09,7.24-7.27,9.15-11.79,7.11-14.78,29.54-5.59,40,5.58,6.33,9.71,13.93,16,23.15,9.86,0,22.75-.41,35.58.25,3.86.2,7.42,3.85,11.38,5,3.81,1.17,8.07,2.05,11.95,1.56,6.3-.81,12.45-2.83,18.56-4.32C385,736.65,372,717,356.48,714.89c-1-7.26-2-14.27-2.91-20.95,11.71,3,12.12,3.54,15.8,21.68,3.48-1.27,7.12-1.89,10-3.74,35.92-23.38,72.77-45.54,102.53-77.13,1-1.11,2.53-2,3.1-3.32,11.24-25.67,36.37-35.81,58.71-50.45-1.89,4.36-3.19,9.14-5.85,13s-6.63,6.55-12.73,12.31c8.81.58,13.89,1.14,19,1.2,5.76.06,11.54.57,11.07,8-.39,6.18-2.24,12.47-11.16,10.36-1-.23-2.16.28-3.24.45,1.89,27.31,18.84,42.75,44.41,39.86l-3.23-13.8c9.52,1.08,17.86,1.18,25.73,3.15a136.55,136.55,0,0,1,27.8,9.92c4.71,2.34,7.83,7.88,13.11,13.52l-15.74,4.38c9.78,13.45,22.12,8.15,34.48,6.91-2.65,6.11-4.87,11.2-7.68,17.67,19-.55,30.19-12.58,43.25-20.48,2.83-1.71,2.73-7.88,8.8-4.87.74.37,5.84-4.36,5.78-6.64-.37-13.21,0-26.82-3.12-39.48-4-16.12-26.8-23.7-41.61-14.16-8.19,5.27-14.82,5.23-23.08,1.86-8.78-3.59-18.11-5.79-26.84-9.46-2.48-1-5.74-6.75-5.15-7.48,2.69-3.3,6.62-5.59,10.11-8.24l.94,13.16c1.56,0,8.41,1.1,8.9-.19,2.3-6.16,6.1-15.37,3.38-19-5.1-6.83-14.34-10.56-23-16.35,6.83-11.92,18.39-26.6,5.64-44-2.1-2.85-6.93-3.71-13.28-6.87l5.55,19.27c-4.62-1.91-8.07-2.26-9.57-4.15-6-7.6-2.38-32.87,5.46-38.95,5.52-4.29,10.43-4.3,13.38,3.27A46.54,46.54,0,0,0,632.93,519c3.73-15.07,2.74-31.42,17.59-41.16l27.26,16.75c-.61-9.94-1-16.14-1.36-22.28,8.3-1,14.19-1.17,15.9,9.13,1.28,7.68,16.2,15.47,24,13.61,1.85-.45,2.52-5.78,4.3-10.3l12.93,4.45c0,1.58.28,2.49,0,3-2.72,4.59-8.93,11.64-7.76,13.21,5.07,6.76,11.44,13.87,19,17.16,9.47,4.14,20.14,2.63,29-4.5s8.65-15.94,5.81-28.05c-3.86,4.09-6.27,7.05-9.12,9.5-1.57,1.34-4.15,2.83-5.76,2.38s-3.44-3.51-3.18-5.1c2.07-12.55,3.73-25.31,7.53-37.37,1.25-4,8.4-6.1,12.85-9.07,2.18,4.74,4.61,9.39,6.46,14.26.89,2.35.72,5.11,1,7.71,17.6-2.81,20.65-21.11,9-45.83l18.14,9,3.19-1c-2.52-6.33-3.33-14.9-8-18.47-7-5.34-17.12-10.74-25-9.63-11.52,1.64-22.64,8.33-33,14.4-2.9,1.7-2.22,9-3.88,13.43-1.77,4.73-5.63,13.28-6.44,13-7-2.1-13.59-5.66-20-9.25-.66-.37.39-3.82.82-7.15l9.41,10c1.93-2,5.72-4.42,5.42-6-.84-4.48-2.29-9.91-5.48-12.67-9.84-8.52-21.81-4.9-31.08,8.41-24.26-18-24.26-18-31.38-16.54l3.25,9.4-9.7-2.89c-2.56-7.64,11.29-18.68,18.35-15.6,3.62,1.58,6.81,4.14,13.32,8.22-.61-9.29-1-15.62-1.5-22.82,3.73-1.1,8.08-2.24,12.32-3.67,2.85-1,7.19-1.63,8-3.63,3.82-9,10.69-14.73,18.21-20.26,5.61-4.11,10.71-8.92,16.7-14,3.87,10.55,4.55,21,9.94,24.85,6.21,4.43,16.65,4.29,25.14,3.87,12.84-.63,19.3-7.18,20.8-19.12-3.9.45-7.51.81-11.11,1.3s-7.43,1.15-12.17,1.89c-4.1-11.71-5.15-22.15,1.31-33.75,3.91-7,5-16.19,5.38-24.48.28-6.65-3.46-15.64,5.59-16.8,8.67-1.11,9.56,7.79,9.75,14.92a23.7,23.7,0,0,0,.55,3.32c13.2-1.84,20.22-16.71,14.37-31.43-3.26-8.2-7.32-16.11-18.77-14.86-2.53.28-5.77-1.56-8-3.33-12.7-10.25-23.07-8.73-35.15,2.18-8.95,8.09-12.81,16-9.51,27.75a29.83,29.83,0,0,1,0,13.62c-.8,3.85-2.76,9.73-5.4,10.48-5.71,1.61-11.69,9.21-18.79.69-1.62-1.95-9.05-.12-13.3,1.4-7.81,2.78-15.25,6.62-25.16,11.05-.8-25.95-18.91-38.65-32.39-51.49-7.47,3.17-13.07,7.9-17.2,6.86-12.56-3.19-11.82-15-12.51-27.09l-13.64,6.12c-1.76-.85-4.37-1.95-6.83-3.32-3.12-1.72-8.74-3.77-8.66-5.46a19.64,19.64,0,0,1,5.05-11.88c7.46-7.68,19.07-6.24,31.92-1.06a206.7,206.7,0,0,0,44.26,12.47c12.71,2,25.18-13.76,23.1-26.67-1.37-8.53-7.19-12.56-15.2-12.44-6.68.1-12.38,2.75-12.49,12.1h10.24c-8.67,16.71-24.36,9.66-46.7-20l2.46-2.27L653,215.76c16.15-7.42,17.45-39.22-.39-51.35-8.86-6-18.5-9.85-25.68-19.31-5.05-6.66-16.67-8.06-24.91-12.63C586.84,124,572,115,557,106.19c-3.46-2-6.85-4.18-10.27-6.27l-3.35,1.92,8.94,24.6c-19.89,0-41.23-9.18-60.13,2.52l.3,3.73L513.71,139c-18.33,9.87-18.33,9.87-13.24,16.77-5,1.36-9.59,3.44-14.28,3.72-10.32.6-13.23,4.4-5.51,15.61L441.82,179c1.44,6.74,1.44,6.74,22.86,16.78-9.73,11.62-14.35,25.53-8,39.09,5.05,10.86,4,22,7,32.76a34.65,34.65,0,0,0,4.21,9.17c4.28,6.71,8.9,13.19,11,20.91-55.65-56.8-71.35-127-65.59-205.89-27.78,16.15-29.18,41.83-29.91,68l-14.89-10c-11.85,18.59-4.22,37-3.06,55.83-5.45-1.38-10.85-4.42-14.86-3.14-2.48.8-2.85,8.18-4.59,14-27.38-21.26-47-49-68.6-77.85-9.72,19.79-4.47,36.69-1.34,54.25L256.83,187c-3.6,18.06,4,31.94,10.46,43.91-7.19,21,4.78,34.95,13.39,50.69l-10.53,4.29C269,302,282.79,310.52,290.46,323.66Zm237.21-15.91,12.57,16.85.27,3.66c-10-7.43-12.7-2.94-14,6.19-4.57-3.29-8.25-6.37-10.25-10.3-3.69-7.27-6.34-15.06-9.54-22.59-1.18-2.77-2.68-5.41-4.08-8.21L528,308.09l-14.54-13.31c38.49,12,56.08,33.7,57.92,69.8.93,18.17-8.3,34.67-24.44,40.34,2.08-4.53,2.67-8.46,5-10.34,15.86-13.1,23.17-31,12.9-47.93C555.7,331.68,540.28,320.55,527.67,307.75ZM452.79,411.47,463,416.42c-30.42,11.95-59.95,12.11-89.75.58,8.55-4.76,17.16-10.37,26.29-11.42,14.87-1.73,30.1-.19,45.16-.65,5.43-.16,8.63.6,8.23,6.72ZM584.11,251.16,614.31,271l1.66-2.67q2.6,10.57,5.18,21.16l2.91-.68c-.7-2.28-1.41-4.56-1.64-5.31h33.5c-.45-.61,1.3,1,2.1,2.94,3,7.31,2.81,17,14.79,16.78,1.14,0,3.58,5.76,3.36,8.69-.76,9.77-2.44,19.46-3.78,29.18s-.43,18.23,13.42,18.25c-4,9.38-7.54,17.6-10.73,25.05L687,395.73c-15.19-3-21.15,9.24-30.56,15.5,6.4-14,15.7-26.86,13.8-45.05L656,403.89l-4.52-.62c0-4.71-1.88-10.7.31-13.9,11.79-17.2,12.81-36.41,11.37-55.87-.9-12.05-3.41-24.21-11.25-32,2.59,13.29,6.45,27.74,8,42.42,1.55,15-1.49,29.44-12.43,41.34,3.64-14.82,9.11-29.38,3-48.1-3.05,16.61,2.55,31.91-10.21,45.09.57-6.68,1-11.23,1.34-15.78l-1.7-.52-3.39,6.84-15.31-3.14c-.46,1-.92,2-1.39,3,17,7.94,21.91,24.38,29.1,39.16,9.42,19.38,17.85,22.52,36.37,13,14,17.2,21.33,19.95,27.66,9.87,5.26,13.1,15.28,20.67,28.76,20.43s12.66-13.75,16.91-24.85v19.62l1.81.25q2.61-10.44,5.22-20.86c28.58,6.7,34.28,11.13,30.94,23.45-10.45-16.06-28.29-11.74-33.79,2.82-4.69,12.4-6.71,25.95-8.69,39.18-1.4,9.33,3.6,15.7,15.5,17.29-11.82,4.78-18.94-.11-25.87-5.64-11.63-9.26,4.2-17.68.65-26.08L718.54,476c.27-2,.57-4.3,1.15-8.7l-9.61,11.43-2.93-1.26,3.32-12.32-3.24-.84q-2.41,8.7-4.85,17.43c-2.07-7.54-4.19-15.24-6.31-22.94l-3,.88c.1,2,.19,3.92.45,9.3L680.8,452.37c.73,5.07,1.13,7.9,1.54,10.74l-2.22,1.5-8.5-12.15c-1.13,7.35-2.15,14-3.17,20.66l-1.94,0q-1.08-8-2.18-16l-2.16.29v16.73l-2.45.31c-1.61-7.39-3.21-14.78-5.28-24.34-1.11,6.14-1.85,10.22-3.12,17.23-4.88-12.63-8.06-23.41-21.26-23-1.77,6.07-3.5,12-5.24,17.93l-3.08-.44V441l-1.55-.26q-2.46,7.9-4.91,15.81l-2.56-.5,1.38-21.83-1.56-.19q-2.32,6.86-4.67,13.73l-3.28-.54.89-19.83c-2.16,3.36-3.51,5.48-4.84,7.57L592.48,409c-10.5,18.51,7.83,34.19.93,52-1.21-3.29-2.43-6.58-4.72-12.83-.93,10.61-1.55,17.8-2.18,25l-3.47-.29V454.33l-1.14,0q-2.48,9.52-5,19.05l-2.15-.39-2.88-9.75-1.78.27L569,483.71h-1.66c-.62-2.27-1.23-4.54-1.63-6-20.85,12.35-44.48-3.05-65,7,9.4,2.19,18.76,2.65,28,3.72,13.12,1.52,26.44,2.47,39.24,5.5,18.78,4.44,27.79,17.4,29,36,.44,6.75,2.22,15,6.58,19.4,3.32,3.35,11.68,1.7,18.15,2.31.71,13.51-20.61,21-12.1,38.63h18.81c-2.31,2.09-5.77,1.83-7,3.37-4.8,5.83-9.63,11.92-12.59,18.71-.56,1.29,6.82,7.49,11.38,9.29a275.2,275.2,0,0,0,36.7,11.93c4.55,1.09,10.59-.85,15-3.17,9.34-4.88,18.32-5,27.07.21,7.21,4.24,10.6,10.86,9,20.17-14.78-15-24.73-17-30.63-6.41,17.7,1.69,23.85,6.92,24.22,20.58.4,14.88-11.19,27.24-29.78,30.07,1.52-4,3-7.16,3.85-10.45,2.1-8.22,5.23-16.47,5.45-24.78.22-8.88-5.72-10.67-10-8.83.6,9,2.53,15.89,1.12,22-2.08,9-10.08,10.78-17.27,11-2.39-12.18-4.59-23.35-6.78-34.53l-3.77.83,2.55,9.05-3.12,2.56q-6.62-8.4-13.22-16.82l-1.38,1.21,5,8.48-2.84,2-14.58-18.25,2.37,11.74-2.7,1.08-10.18-15.77-1.51.83,3.27,9.73-2.51,1.45-6.65-9.81c-1.76,2.36-3.83,5.17-7.73,10.43-1.29-7.67-1.86-11-2.42-14.34l-8.6,12.34-2.75-1.84q1.44-10.12,2.89-20.25l-2.36-.29Q574,640.11,570,656.47l-2.62-.49V644.37l-7.75,5.41c-.2-3.09-.95-6.27-.44-9.24.56-3.3,2.49-6.34,3.44-9.61,3.67-12.69,7.19-25.42,10.76-38.14l-3.46-.9-5.23,22.45c-14.78-16.14,1.57-33.31-2.66-50a147.76,147.76,0,0,0-4.78,20.56c-2.48,13.61-2.48,13.61-10.24,12.1,3.5-14.42,7-28.76,10.73-44.16l-4.57-3.61,12.27-1-12.05-7.15,9.36-.87c.05-.69.11-1.37.16-2.06L546.4,531.8c1.87,4.27,2.63,6,3.63,8.28l-13.92-1-.29,1.68,12.3,6-.84,2.36L513,542.42l-.68,2.38,28.42,9.06-1.22,3.87-29.86-3.06c5.35,3.63,8.76,5.94,12.16,8.26l-1.77,2.93-31.69-2.08-3,12.11h-21c5.74,2.85,11.65,3.37,17.37,4.66,1.88.42,3.3,2.88,4.93,4.41-1.73,1.46-3.32,3.93-5.21,4.19-4.47.62-9.08.2-13.64.2,4,3.12,8.17,3.25,11.84,4.73,2.08.84,3.26,3.9,4.85,6-2.47,1-5.16,3.23-7.36,2.82-5.91-1.13-6.9-.72-7.48,5.08a48.38,48.38,0,0,1-1.86,7.7h-27l15.41,6.94c-.43,1.11-.85,2.21-1.28,3.31l-25.7-1.32-.35,1.92,16.47,5.17v3.69l-11.93,3.2c-3.52,4.75-5.89,11.08-9,11.49-6.79.87-9,4.68-12.65,9.32-3.51,4.42-5.85,13-7.64,13.16-10.22.94-15,10.89-24.72,12.93-.59-6.77-1.17-13.5-1.76-20.23l-2.37.24-1,20.74-3.62,1.14L360.5,670.28l-1.2.64,4.29,15.54-2.58,1.1-16.93-19.8L342.44,669c2.33,3.71,4.66,7.42,8,12.69l-25-11.23c-.36.85-.73,1.69-1.09,2.53q8.19,4.43,16.4,8.83l-.8,2.24L322,679.39c-.21.68-.41,1.36-.62,2l13.49,5.82-11.54,2.26L342,697.82c-4,6.21-9.71,11.23-9.67,16.2.05,5.93,5.06,11.82,8,17.89l5.53-7.1,6.23,5.85,4.06-8.12c6.75,7.65,12.65,13.88,17.86,20.64,1.05,1.36-.54,4.74-.9,7.19-2.29-.38-4.59-.64-6.84-1.18-3.49-.83-6.93-2.6-10.41-2.65-11.8-.17-23.62.61-35.41.23-4.05-.13-8.87-1.65-11.85-4.24-5-4.34-8.62-10.15-13-15.17-4.87-5.54-8.18-11.76-3.49-18.45,2.57-3.66,7.38-5.76,11.49-8.79,7.14-18.44,14.83-38.3,22.56-58.28,26,11.64,26,11.64,33.87-2,7.41,3.1,14.69,8.81,21.24,8.06,5.39-.62,12.22-8,14.34-13.93,4.22-11.69-2.82-19.84-14.27-24.72,22-16,41.26-32.45,35.75-62.7-.68,2.94-1.36,5.87-1.95,8.4l-12.18-4.33c-.29.85-.57,1.69-.86,2.53l6.13,8-18.54-6-2.15,3,10.6,3.39L395,565.21l-9.37-3.05c.18,3.45.33,6.24.51,9.71l-14-9.76,5.27,13.7-13.69-9.4,3.42,11.82-18-11.41-3.32,6.31-13.37-6.08c1.88,4.12,2.76,6.06,3.24,7.12-28.23-4.06-50.62-18.66-71.11-39.73,14.76-5.67,16-11,7.59-21.66-1.87-2.38-3.61-4.87-5.5-7.24-6.56-8.26-4.68-14,6-18.12,4.45,11.23,11.7,13.61,25.72,8.45,10.54-3.88,13.35-8.6,7.78-19.91-6.25-12.7-14.77-24.29-22.37-36.32-1.75-2.77-5.28-5.25-5.46-8C277.6,420.78,274,417,263.39,418c-3.63.35-7.21,1.29-10.14,1.84-.78-13.47-11.92-6.95-18.69-10.68h44l15.22,8.34c3.22,2.48,3.75,7.94,6.11,12.44,9.64,18.44,20,36.52,29.76,54.88,2.57,4.79,4.19,10.09,6.24,15.16-5.61-.2-11.29.1-16.81-.71-9.67-1.41-18.56-.12-24.9,7.66-5.73,7-3.81,15.47-.18,22.48,7.78,15,20,24.06,37.53,25.83,23.18,2.35,40.85-9.26,58.29-21.75,5.79-4.15,13.85-7.74,16.25-13.51C412,505.65,422.68,498,436.3,494.71c24.72-6,45.35-21.71,70.1-28.12,8-2.06,15.33-13.54,19.37-22.35,7.55-16.47,15.1-32,32.48-40.23,2.54-1.21,4.54-4,6.25-6.42C584,370,577,328.54,549.34,309.37c-9-6.23-19.23-10.69-28.61-16.41-11.86-7.23-22.23-15.74-22.44-32.17-2.93,4.31-6.76,9.34-5.9,13.37,2.3,10.89,6.36,21.45,10.21,31.95,2.09,5.71,5.17,11.05,8.69,18.39-4.08-1-5.18-1.13-6.17-1.53-15-6.16-15.18-21.4-20.07-33.58-5.15-12.83-5.69-25.45,2-38.24,4.91-8.19,7.86-17.78.92-29.82-2.37,16.77-4.64,30.87-16.43,42.64-8.44-16.62,8.1-31.08,2-47.52l-10.88,8.24c-6.4-17.23,13.27-22.2,16.29-34.9l-12.75-3.11c10.1-6.1,26-2.49,24.77-20.31,8.48-2.78,18.94-2.63,19.88-15.35.12-1.59,5.34-3.48,8.42-4,10.08-1.85,20.26-3.16,30.4-4.67,0-.92,0-1.84-.07-2.76l-33.68-5.32q.54-2.85,1.1-5.7l64.32,12.61.78-3c-4.65-2.07-9.94-3.36-13.79-6.44-4-3.2-6.67-8.13-9.32-11.53,14.34,6.44,29,12.92,43.57,19.61,6.51,3,15.48,4.82,18.66,10,6.26,10.27,16.24,14.13,25.12,20.17,10.6,7.21,12.94,18.5,7,30l-30.65-14.26c.71-4.44,1.8-11.3,2.89-18.17l-3.3-.73c-1.21,4.07-3.6,8.2-3.41,12.2.48,10.57-1.34,19.07-11.25,25.36-6,3.83-5.81,9.49,1.7,13,2.11,1,4,2.37,5.59,3.28l-23,10.06C584.75,235.76,581.45,242.32,584.11,251.16ZM403.43,110C402.4,192.53,425.14,265,489.06,321l-2.58,2.4-44.64-41.35-1.13,1.2,20.08,24-3.22,2.62c-11.24-13.59-23.34-26.57-33.49-40.93s-18.39-30.15-27.46-45.3L394.23,225l30.65,55.35L422,282.24c-8.91-12.2-17.81-24.41-26.61-36.47,1,3.9,2.17,8.34,3.43,13.17-25-13.37-39.71-30.43-40-45.69l17.86,4.3c-3.28-19.65-8.86-37-4.86-55.66L390.61,177C391.45,151.39,389,129,403.43,110ZM815.7,288.18,811.65,290c-.8-.65-1.89-1.13-2.37-2-4.14-7.17-10-11.65-18.47-9.53-9.53,2.37-8.15,10.59-8.13,17.76,0,11.31-1.55,21.36-7.14,32.31-4.87,9.54-2,23.48-.8,35.3.22,2.21,8.5,3.62,15.19,6.22-8.82,0-15.75.36-22.61-.21-2.08-.18-5.32-2.65-5.68-4.52-2.11-10.93-3.52-22-4.87-31-4.5,2.81-10.89,6.32-16.76,10.57-7.25,5.25-14.5,7.69-23.25,3.21,1.51,1.68,3,3.36,5.81,6.44L705,352.16l-.4,1.73,14.52,5.74-.4,1.65h-9.32l3.13,6.82-15.25-7.45c3.72,4.84,5.92,7.72,9.44,12.31-14.76-2.86-15.7-3.76-16-15.43-.22-7.77-1.21-14.06-13.26-8.14,2.82-7.64,3.34-16.55,7.83-19.59,8.18-5.54,18.48-8.91,28.35-10.71,9.5-1.73,19.71.73,29.35-.56,11-1.46,15.11-8.37,13.83-19.37-.78-6.77-2.32-13.49-2.59-20.26-.6-14.73,15.27-26,29.46-21.39-18,6.47-26.41,25.94-19.18,47.76,2.74-6.66,4-13.69,5.87-20.57,1.41-5.3,2.51-14.12,5.49-14.93,9.44-2.55,20.55-4.66,29.33-1.79C810.3,269.67,812.28,281.12,815.7,288.18ZM533.14,359.35l-4.09,2.23,7.38,10.87c3.61-3,9.8-5.72,10.23-9.14a23.3,23.3,0,0,0-4.73-16.22c-2.09-2.5-9-1.59-13.6-1.19-3.64.32-7.08,2.94-10.72,3.29-29,2.8-53.14-8.84-74.32-27-5-4.29-6.65-12.53-9.71-18.7L490,335.37l-7.83.51c5.69.63,11.88,9.8,17.08.11.36-.66,4.88,1.2,7.5,1.43,9.74.84,20,3.75,29.13,1.67,12.71-2.89,18.69-1.52,23.1,11.06,5.26,15,.44,24.87-13.11,33.34-8.14,5.08-13.24,6.42-19.2-1.28-.23-.31.16-1.1.27-1.72,1.42.72,2.76,1.42,4.13,2.06.07,0,.35-.35.54-.52-3.11-5.95-7-11.65-9-17.95-.94-2.93.76-9.12,2.92-10.07,3.41-1.5,8.72-.84,12.21.92,2,1,1.88,6,2.72,9.23l-3.1,1ZM340.61,238.83c-38.09-6.84-70.12-49.94-60.25-80.32,19,20.09,38.82,40.85,58.36,61.85a16.57,16.57,0,0,1,3.75,8.88C342.81,232.06,341.41,235.1,340.61,238.83Zm2.06,32.91c-18.62-.63-35.28-9.71-49.94-23.46s-26.79-28.25-28-52.8l78.75,64.25C343.25,263.61,342.92,268.18,342.67,271.74Zm-1.52,37.77c-36.37-10.49-67.38-37.42-67.51-63.38l92.95,55.16-.33.86-52.85-23.47C324.12,288.12,341.06,290.49,341.15,309.51ZM433.58,354c-32.58-2.94-75-28.62-82.14-50,16.69,6.23,33.21,11.53,49,18.53C414.74,328.84,428,337.33,433.58,354Zm-81.7-122.39,68.69,56.17-7.74.54,11.66,9.29-1.95,2.86c-13-6.95-25.75-14.55-39.15-20.69C362.44,270.13,356.72,251.45,351.88,231.56ZM278.55,291c3.17-1.09,6.46-3.41,7.94-2.56,20.25,11.59,40.25,23.62,60.31,35.55l-.43,1.1-44-20.61-1.45,3.21,55.24,25.08-.26,1L329,326.44c9.59,5.86,9.59,5.86,7.55,14.09C312.88,329.86,289.31,319.35,278.55,291Zm72.55,49.22c.45-1.26.9-2.52,1.36-3.78l63.31,21-1,3.1-23.2-4.84c-.2.91-.39,1.82-.59,2.73,7.92,1.66,15.77,4.1,23.77,4.84,18.62,1.72,18.65,1.38,22.27,11.31C403.51,374.29,374.53,364,351.1,340.26Zm106.61,51.61c-21.24,13.83-62.95,10.78-84.73-7.4l65.85-3.39c.09,1.26.17,2.52.25,3.78l-38.26,2.86c8,2,16,1.73,24,2.06C435.47,390.22,446.63,381.21,457.71,391.87Zm55.34-35.15.43,3.24c-4.31,1.78-8.82,5.43-12.9,5-17.1-1.77-34.44-3.37-50.95-7.77-11.12-3-15.56-13.72-16.54-28.82C458.71,345.69,484.65,355,513.05,356.72ZM312.52,371.26l1-4.19c10.33,2.55,20.77,4.74,31,7.73,12.7,3.72,17.86,18.95,31.72,21.35,2.07.35,3.82,2.53,6.79,4.62C356,403.19,327.51,390.9,312.52,371.26Zm62.4,4.75-1.39,2.54c-29.67-12.08-60.83-21.43-83.37-46.55l2.11-4.47,27.72,13c-.17.64-.33,1.28-.5,1.93l-7.53-1-.87,3,83.25,31.24-.16.76L365,370l-.41,1.19ZM358.1,273.85l71.35,39.62c-.47.94-.93,1.89-1.39,2.83L408.18,308c-.2.48-.41,1-.62,1.43l18,9.35c-4.47,1.61-8.07,4.3-10,3.4C393.17,311.63,373.32,297.84,358.1,273.85Zm88.26,94.85,68.88,3.37c-7.68,10.6-19.4,12.46-30,14.22C470.29,388.76,455.18,388.62,446.36,368.7Zm21.15,40.47c14.84-7.67,29.76-15.48,44.8-23,2.05-1,4.77-1,7.15-.83.38,0,1.13,3.33.76,4.9C515,412.82,485.29,423.29,467.51,409.17Zm-32.32,32.48c-16.77,6.57-33.06,6.75-50.08,1.33l9.14-11H445.2c.12,1.22.23,2.44.35,3.66l-28.14,4.46Zm45.19-18.12c-3.46,6-5.67,13.62-10.72,17.69-6.66,5.37-15.56,8-25.6,12.76C457,426,466.71,418.45,480.38,423.53Zm35.33,1.77c3.69-12,6.8-22.21,10-32.55l14.48,2.7C540.11,411.07,532.77,420.72,515.71,425.3Zm-11.07-3.75-9.8,17.13,8.34-3.88c.73,1.18,1.45,2.37,2.17,3.55l-20.61,15.87C488,427.38,491.65,421.44,504.64,421.55Zm267.26-1.12c10.44-3.1,19.19-11.2,32.27,0C791.6,417.73,783.88,433.47,771.9,420.43Z"/><path class="cls-2" d="M591.94,230.68l23-10.06c-1.55-.91-3.48-2.29-5.59-3.28-7.51-3.5-7.73-9.16-1.7-13,9.91-6.29,11.73-14.79,11.25-25.36-.19-4,2.2-8.13,3.41-12.2l3.3.73c-1.09,6.87-2.18,13.73-2.89,18.17L653.36,200c5.95-11.52,3.61-22.81-7-30-8.88-6-18.86-9.9-25.12-20.17-3.18-5.21-12.15-7-18.66-10C588,133,573.36,126.56,559,120.12c2.65,3.4,5.29,8.33,9.32,11.53,3.85,3.08,9.14,4.37,13.79,6.44l-.78,3L517,128.53q-.56,2.85-1.1,5.7l33.68,5.32c0,.92,0,1.84.07,2.76-10.14,1.51-20.32,2.82-30.4,4.67-3.08.56-8.3,2.45-8.42,4-.94,12.72-11.4,12.57-19.88,15.35,1.26,17.82-14.67,14.21-24.77,20.31L479,189.79c-3,12.7-22.69,17.67-16.29,34.9l10.88-8.24c6.07,16.44-10.47,30.9-2,47.52,11.79-11.77,14.06-25.87,16.43-42.64,6.94,12,4,21.63-.92,29.82-7.67,12.79-7.13,25.41-2,38.24,4.89,12.18,5,27.42,20.07,33.58,1,.4,2.09.53,6.17,1.53-3.52-7.34-6.6-12.68-8.69-18.39-3.85-10.5-7.91-21.06-10.21-31.95-.86-4,3-9.06,5.9-13.37.21,16.43,10.58,24.94,22.44,32.17,9.38,5.72,19.6,10.18,28.61,16.41C577,328.54,584,370,564.5,397.59c-1.71,2.43-3.71,5.21-6.25,6.42-17.38,8.27-24.93,23.76-32.48,40.23-4,8.81-11.39,20.29-19.37,22.35C481.65,473,461,488.68,436.3,494.71,422.68,498,412,505.65,406,520c-2.4,5.77-10.46,9.36-16.25,13.51-17.44,12.49-35.11,24.1-58.29,21.75C314,553.45,301.75,544.4,294,529.39c-3.63-7-5.55-15.46.18-22.48,6.34-7.78,15.23-9.07,24.9-7.66,5.52.81,11.2.51,16.81.71-2.05-5.07-3.67-10.37-6.24-15.16-9.8-18.36-20.12-36.44-29.76-54.88-2.36-4.5-2.89-10-6.11-12.44l-15.22-8.34h-44c6.77,3.73,17.91-2.79,18.69,10.68,2.93-.55,6.51-1.49,10.14-1.84,10.62-1,14.21,2.8,14.9,13.63.18,2.78,3.71,5.26,5.46,8,7.6,12,16.12,23.62,22.37,36.32,5.57,11.31,2.76,16-7.78,19.91-14,5.16-21.27,2.78-25.72-8.45-10.64,4.11-12.52,9.86-6,18.12,1.89,2.37,3.63,4.86,5.5,7.24,8.42,10.68,7.17,16-7.59,21.66,20.49,21.07,42.88,35.67,71.11,39.73-.48-1.06-1.36-3-3.24-7.12l13.37,6.08,3.32-6.31,18,11.41-3.42-11.82,13.69,9.4-5.27-13.7,14,9.76c-.18-3.47-.33-6.26-.51-9.71l9.37,3.05,3.13-3.71-10.6-3.39,2.15-3,18.54,6-6.13-8c.29-.84.57-1.68.86-2.53L415.12,555c.59-2.53,1.27-5.46,1.95-8.4,5.51,30.25-13.71,46.7-35.75,62.7,11.45,4.88,18.49,13,14.27,24.72-2.12,5.88-8.95,13.31-14.34,13.93-6.55.75-13.83-5-21.24-8.06-7.87,13.64-7.87,13.64-33.87,2-7.73,20-15.42,39.84-22.56,58.28-4.11,3-8.92,5.13-11.49,8.79-4.69,6.69-1.38,12.91,3.49,18.45,4.4,5,8.06,10.83,13,15.17,3,2.59,7.8,4.11,11.85,4.24,11.79.38,23.61-.4,35.41-.23,3.48.05,6.92,1.82,10.41,2.65,2.25.54,4.55.8,6.84,1.18.36-2.45,1.95-5.83.9-7.19-5.21-6.76-11.11-13-17.86-20.64l-4.06,8.12-6.23-5.85-5.53,7.1c-2.94-6.07-7.95-12-8-17.89,0-5,5.71-10,9.67-16.2l-18.63-8.31,11.54-2.26-13.49-5.82c.21-.68.41-1.36.62-2L340,684.1l.8-2.24q-8.2-4.41-16.4-8.83c.36-.84.73-1.68,1.09-2.53l25,11.23c-3.33-5.27-5.66-9-8-12.69l1.64-1.28L361,687.56l2.58-1.1-4.29-15.54,1.2-.64,10.07,17.06,3.62-1.14,1-20.74,2.37-.24c.59,6.73,1.17,13.46,1.76,20.23,9.68-2,14.5-12,24.72-12.93,1.79-.17,4.13-8.74,7.64-13.16,3.68-4.64,5.86-8.45,12.65-9.32,3.13-.41,5.5-6.74,9-11.49l11.93-3.2v-3.69l-16.47-5.17.35-1.92,25.7,1.32c.43-1.1.85-2.2,1.28-3.31l-15.41-6.94h27a48.38,48.38,0,0,0,1.86-7.7c.58-5.8,1.57-6.21,7.48-5.08,2.2.41,4.89-1.81,7.36-2.82-1.59-2.06-2.77-5.12-4.85-6-3.67-1.48-7.88-1.61-11.84-4.73,4.56,0,9.17.42,13.64-.2,1.89-.26,3.48-2.73,5.21-4.19-1.63-1.53-3.05-4-4.93-4.41-5.72-1.29-11.63-1.81-17.37-4.66h21l3-12.11,31.69,2.08,1.77-2.93c-3.4-2.32-6.81-4.63-12.16-8.26l29.86,3.06,1.22-3.87-28.42-9.06.68-2.38,34.26,6.7.84-2.36-12.3-6,.29-1.68,13.92,1c-1-2.27-1.76-4-3.63-8.28l16.53,6.38c0,.69-.11,1.37-.16,2.06l-9.36.87,12.05,7.15-12.27,1,4.57,3.61C554,568.25,550.53,582.59,547,597c7.76,1.51,7.76,1.51,10.24-12.1a147.76,147.76,0,0,1,4.78-20.56c4.23,16.68-12.12,33.85,2.66,50l5.23-22.45,3.46.9c-3.57,12.72-7.09,25.45-10.76,38.14-.95,3.27-2.88,6.31-3.44,9.61-.51,3,.24,6.15.44,9.24l7.75-5.41V656l2.62.49q3.94-16.37,7.9-32.73l2.36.29q-1.44,10.13-2.89,20.25l2.75,1.84,8.6-12.34c.56,3.31,1.13,6.67,2.42,14.34,3.9-5.26,6-8.07,7.73-10.43l6.65,9.81,2.51-1.45-3.27-9.73,1.51-.83,10.18,15.77,2.7-1.08-2.37-11.74,14.58,18.25,2.84-2-5-8.48,1.38-1.21q6.6,8.41,13.22,16.82l3.12-2.56-2.55-9.05,3.77-.83c2.19,11.18,4.39,22.35,6.78,34.53,7.19-.18,15.19-2,17.27-11,1.41-6.08-.52-12.94-1.12-22,4.3-1.84,10.24-.05,10,8.83-.22,8.31-3.35,16.56-5.45,24.78-.83,3.29-2.33,6.41-3.85,10.45,18.59-2.83,30.18-15.19,29.78-30.07-.37-13.66-6.52-18.89-24.22-20.58,5.9-10.54,15.85-8.63,30.63,6.41,1.62-9.31-1.77-15.93-9-20.17-8.75-5.16-17.73-5.09-27.07-.21-4.44,2.32-10.48,4.26-15,3.17a275.2,275.2,0,0,1-36.7-11.93c-4.56-1.8-11.94-8-11.38-9.29,3-6.79,7.79-12.88,12.59-18.71,1.26-1.54,4.72-1.28,7-3.37H609.66c-8.51-17.59,12.81-25.12,12.1-38.63-6.47-.61-14.83,1-18.15-2.31-4.36-4.4-6.14-12.65-6.58-19.4-1.21-18.6-10.22-31.56-29-36-12.8-3-26.12-4-39.24-5.5-9.29-1.07-18.65-1.53-28-3.72,20.51-10.05,44.14,5.35,65-7,.4,1.47,1,3.74,1.63,6H569l1.11-20.17,1.78-.27,2.88,9.75,2.15.39q2.47-9.53,5-19.05l1.14,0v18.55l3.47.29c.63-7.19,1.25-14.38,2.18-25,2.29,6.25,3.51,9.54,4.72,12.83,6.9-17.85-11.43-33.53-.93-52l8.16,25.94c1.33-2.09,2.68-4.21,4.84-7.57l-.89,19.83,3.28.54q2.34-6.87,4.67-13.73l1.56.19L612.72,456l2.56.5q2.46-7.9,4.91-15.81l1.55.26v20.86l3.08.44c1.74-5.93,3.47-11.86,5.24-17.93,13.2-.37,16.38,10.41,21.26,23,1.27-7,2-11.09,3.12-17.23,2.07,9.56,3.67,16.95,5.28,24.34l2.45-.31V457.43l2.16-.29q1.09,8,2.18,16l1.94,0c1-6.65,2-13.31,3.17-20.66l8.5,12.15,2.22-1.5c-.41-2.84-.81-5.67-1.54-10.74L693.53,469c-.26-5.38-.35-7.34-.45-9.3l3-.88c2.12,7.7,4.24,15.4,6.31,22.94q2.43-8.75,4.85-17.43l3.24.84-3.32,12.32,2.93,1.26,9.61-11.43c-.58,4.4-.88,6.69-1.15,8.7l25.81,4.33c3.55,8.4-12.28,16.82-.65,26.08,6.93,5.53,14,10.42,25.87,5.64-11.9-1.59-16.9-8-15.5-17.29,2-13.23,4-26.78,8.69-39.18,5.5-14.56,23.34-18.88,33.79-2.82,3.34-12.32-2.36-16.75-30.94-23.45q-2.61,10.41-5.22,20.86l-1.81-.25V430.32c-4.25,11.1-3.37,24.62-16.91,24.85s-23.5-7.33-28.76-20.43c-6.33,10.08-13.67,7.33-27.66-9.87-18.52,9.48-27,6.34-36.37-13-7.19-14.78-12.13-31.22-29.1-39.16.47-1,.93-2,1.39-3l15.31,3.14,3.39-6.84,1.7.52c-.38,4.55-.77,9.1-1.34,15.78,12.76-13.18,7.16-28.48,10.21-45.09,6.14,18.72.67,33.28-3,48.1,10.94-11.9,14-26.39,12.43-41.34-1.51-14.68-5.37-29.13-8-42.42,7.84,7.81,10.35,20,11.25,32,1.44,19.46.42,38.67-11.37,55.87-2.19,3.2-.31,9.19-.31,13.9l4.52.62,14.16-37.71c1.9,18.19-7.4,31-13.8,45.05,9.41-6.26,15.37-18.52,30.56-15.5l-11.87-11.32c3.19-7.45,6.72-15.67,10.73-25.05-13.85,0-14.79-8.39-13.42-18.25s3-19.41,3.78-29.18c.22-2.93-2.22-8.71-3.36-8.69-12,.2-11.84-9.47-14.79-16.78-.8-2-2.55-3.55-2.1-2.94h-33.5c.23.75.94,3,1.64,5.31l-2.91.68q-2.6-10.58-5.18-21.16L614.31,271q-15.1-9.93-30.19-19.84c.28,2.3.55,4.58,1.17,9.8-11.7-14.27-5.22-24.76.41-35.29-5.86,6.95-11.71,13.9-19.15,22.75V221.93l-9.8,4.73c3.32-9.32-5.52-18,3.53-25.3.55-.44-.74-3.15-1.15-4.81-2.3-9.5,2.31-14.1,9.4-12.19-1.83,11.16-3.62,22.1-5.49,33.49l12.44-3.64c-3,7.5-5.62,13.86-8.21,20.22l2.67,1c2.34-3.28,4.18-7.21,7.23-9.59,1.65-1.29,5.37.07,8.15.24l8.93-2.66C593.22,226.67,592.58,228.67,591.94,230.68ZM529.8,166c-11.15,20.32-14.76,38.07-6.28,56.9L537,210.32c3.95,13.92,7.16,25.26,10.56,37.24l10.17-6c2.6,6.14,4.87,11.48,7.43,17.51-24.94.62-24.26-21-33.26-34.2l-7.13,9C508.15,216.68,509.93,182,529.8,166ZM599.26,179c-11-.32-17.81-7-28.07-31.26l46.42,16ZM505.2,221.33c3.93,34.24,8.57,37.56,15.16,42.07l7.73-9.23c3.71,4.88,6.07,10.17,10.15,12.74s10.18,2.15,15.1,3.85c3.55,1.23,6.63,3.8,11.71,6.84-15.93,1.38-29.19,2.35-35.89-14.26L523,274.62C505.37,261.29,497.05,235.62,505.2,221.33ZM544.35,439.6l-3.29-2.75,17.33-22.72,3,2.26Zm41.33-245.7,9,12.54-1.95,1.83-15.94-9.35c4.3-4.34,8.47-8.57,12.64-12.79l2.29,2.34Z"/><path class="cls-2" d="M403.43,110c-14.48,19-12,41.44-12.82,67l-18.82-15.07c-4,18.62,1.58,36,4.86,55.66l-17.86-4.3c.32,15.26,15,32.32,40,45.69-1.26-4.83-2.42-9.27-3.43-13.17,8.8,12.06,17.7,24.27,26.61,36.47l2.88-1.92L394.23,225l2.39-1.28c9.07,15.15,17.29,30.91,27.46,45.3s22.25,27.34,33.49,40.93l3.22-2.62-20.08-24,1.13-1.2,44.64,41.35,2.58-2.4C425.14,265,402.4,192.53,403.43,110Zm-9.12,80.11q14,30.44,28,60.87C410.48,231.73,396.19,213.68,394.31,190.06Z"/><path class="cls-2" d="M815.7,288.18c-3.42-7.06-5.4-18.51-10.57-20.2-8.78-2.87-19.89-.76-29.33,1.79-3,.81-4.08,9.63-5.49,14.93-1.84,6.88-3.13,13.91-5.87,20.57-7.23-21.82,1.23-41.29,19.18-47.76-14.19-4.65-30.06,6.66-29.46,21.39.27,6.77,1.81,13.49,2.59,20.26,1.28,11-2.87,17.91-13.83,19.37-9.64,1.29-19.85-1.17-29.35.56-9.87,1.8-20.17,5.17-28.35,10.71-4.49,3-5,11.95-7.83,19.59,12.05-5.92,13,.37,13.26,8.14.34,11.67,1.28,12.57,16,15.43-3.52-4.59-5.72-7.47-9.44-12.31l15.25,7.45-3.13-6.82h9.32l.4-1.65-14.52-5.74.4-1.73,17.6,2.46c-2.79-3.08-4.3-4.76-5.81-6.44,8.75,4.48,16,2,23.25-3.21,5.87-4.25,12.26-7.76,16.76-10.57,1.35,9,2.76,20,4.87,31,.36,1.87,3.6,4.34,5.68,4.52,6.86.57,13.79.21,22.61.21-6.69-2.6-15-4-15.19-6.22-1.17-11.82-4.07-25.76.8-35.3,5.59-10.95,7.17-21,7.14-32.31,0-7.17-1.4-15.39,8.13-17.76,8.49-2.12,14.33,2.36,18.47,9.53.48.83,1.57,1.31,2.37,2Z"/><path class="cls-2" d="M533.14,359.35l4.23,5.82,3.1-1c-.84-3.21-.76-8.25-2.72-9.23-3.49-1.76-8.8-2.42-12.21-.92-2.16.95-3.86,7.14-2.92,10.07,2,6.3,5.87,12,9,17.94-.18.18-.46.57-.53.53-1.37-.64-2.71-1.34-4.13-2.06-.11.62-.5,1.41-.27,1.72,6,7.7,11.06,6.36,19.2,1.28,13.55-8.47,18.37-18.36,13.11-33.34-4.41-12.58-10.39-13.95-23.1-11.06-9.12,2.08-19.39-.83-29.13-1.67-2.62-.23-7.14-2.09-7.5-1.43-5.2,9.69-11.39.52-17.08-.11l7.83-.51L433.58,303.5c3.06,6.17,4.69,14.41,9.71,18.7,21.18,18.15,45.34,29.79,74.32,27,3.64-.35,7.08-3,10.72-3.29,4.64-.4,11.51-1.31,13.6,1.19a23.3,23.3,0,0,1,4.73,16.22c-.43,3.42-6.62,6.12-10.23,9.14l-7.38-10.87Z"/><path class="cls-2" d="M340.61,238.83c.8-3.73,2.2-6.77,1.86-9.59a16.57,16.57,0,0,0-3.75-8.88c-19.54-21-39.34-41.76-58.36-61.85C270.49,188.89,302.52,232,340.61,238.83Z"/><path class="cls-2" d="M342.67,271.74c.25-3.56.58-8.13.86-12l-78.75-64.25c1.16,24.55,13.41,39.17,28,52.8S324.05,271.11,342.67,271.74Zm-6.5-11.17-2.25,2.55-29.65-20.61,2-2.85Z"/><path class="cls-2" d="M341.15,309.51c-.09-19-17-21.39-27.74-30.83l52.85,23.47.33-.86-92.95-55.16C273.77,272.09,304.78,299,341.15,309.51Z"/><path class="cls-2" d="M433.58,354c-5.59-16.62-18.84-25.11-33.17-31.48-15.76-7-32.28-12.3-49-18.53C358.56,325.33,401,351,433.58,354Z"/><path class="cls-2" d="M351.88,231.56c4.84,19.89,10.56,38.57,31.51,48.17,13.4,6.14,26.12,13.74,39.15,20.69l1.95-2.86-11.66-9.29,7.74-.54Z"/><path class="cls-2" d="M453,411.65c.4-6.12-2.8-6.88-8.23-6.72-15.06.46-30.29-1.08-45.16.65-9.13,1.05-17.74,6.66-26.29,11.42,29.8,11.53,59.33,11.37,89.75-.58l-10.24-5c-13.58,6.88-27.66,5.41-41.76,3.75l-.15-3.56Z"/><path class="cls-2" d="M278.55,291c10.76,28.31,34.33,38.82,58,49.49,2-8.23,2-8.23-7.55-14.09l26.86,7.4.26-1-55.24-25.08,1.45-3.21,44,20.61.43-1.1c-20.06-11.93-40.06-24-60.31-35.55C285,287.63,281.72,290,278.55,291Z"/><path class="cls-2" d="M351.1,340.26c23.43,23.76,52.41,34,86,34.37-3.62-9.93-3.65-9.59-22.27-11.31-8-.74-15.85-3.18-23.77-4.84.2-.91.39-1.82.59-2.73l23.2,4.84,1-3.1-63.31-21C352,337.74,351.55,339,351.1,340.26Z"/><path class="cls-2" d="M457.71,391.87c-11.08-10.66-22.24-1.65-32.9-2.09-8-.33-16-.07-24-2.06l38.26-2.86c-.08-1.26-.16-2.52-.25-3.78L373,384.47C394.76,402.65,436.47,405.7,457.71,391.87Z"/><path class="cls-2" d="M513.05,356.72c-28.4-1.76-54.34-11-80-28.34,1,15.1,5.42,25.85,16.54,28.82,16.51,4.4,33.85,6,50.95,7.77,4.08.42,8.59-3.23,12.9-5Zm-23.85,1c-.12,1.12-.25,2.23-.37,3.34l-28.64-6.2.63-3Z"/><path class="cls-2" d="M312.52,371.26c15,19.64,43.48,31.93,70.5,29.51-3-2.09-4.72-4.27-6.79-4.62-13.86-2.4-19-17.63-31.72-21.35-10.2-3-20.64-5.18-31-7.73Z"/><path class="cls-2" d="M374.92,376l-10.31-4.83L365,370l29.16,6.44.16-.76-83.25-31.24.87-3,7.53,1c.17-.65.33-1.29.5-1.93l-27.72-13L290.16,332c22.54,25.12,53.7,34.47,83.37,46.55Z"/><path class="cls-2" d="M358.1,273.85c15.22,24,35.07,37.78,57.45,48.35,1.91.9,5.51-1.79,10-3.4l-18-9.35c.21-.48.42-.95.62-1.43l19.88,8.28c.46-.94.92-1.89,1.39-2.83Z"/><path class="cls-2" d="M446.36,368.7c8.82,19.92,23.93,20.06,38.86,17.59,10.62-1.76,22.34-3.62,30-14.22Z"/><path class="cls-2" d="M527.66,307.73c12.62,12.82,28,23.95,37.12,38.92,10.27,16.94,3,34.83-12.9,47.93-2.28,1.88-2.87,5.81-5,10.34,16.14-5.67,25.37-22.17,24.44-40.34-1.84-36.1-19.43-57.84-57.92-69.8L528,308.09Z"/><path class="cls-2" d="M467.51,409.17c17.78,14.12,47.49,3.65,52.71-19,.37-1.57-.38-4.88-.76-4.9-2.38-.15-5.1-.2-7.15.83C497.27,393.69,482.35,401.5,467.51,409.17Z"/><path class="cls-2" d="M435.19,441.65l-17.78-1.52,28.14-4.46c-.12-1.22-.23-2.44-.35-3.66H394.25l-9.14,11C402.13,448.4,418.42,448.22,435.19,441.65Z"/><path class="cls-2" d="M528,308.09l-25.36-14.74c1.4,2.8,2.9,5.44,4.08,8.21,3.2,7.53,5.85,15.32,9.54,22.59,2,3.93,5.68,7,10.25,10.3,1.31-9.13,4-13.62,14-6.19l-.27-3.66-12.58-16.86Z"/><path class="cls-2" d="M480.38,423.53C466.71,418.45,457,426,444.06,454c10-4.79,18.94-7.39,25.6-12.76C474.71,437.15,476.92,429.54,480.38,423.53Z"/><path class="cls-2" d="M515.71,425.3c17.06-4.58,24.4-14.23,24.44-29.85l-14.48-2.7C522.51,403.09,519.4,413.26,515.71,425.3Z"/><path class="cls-2" d="M504.64,421.55c-13-.11-16.67,5.83-19.9,32.67l20.61-15.87c-.72-1.18-1.44-2.37-2.17-3.55l-8.34,3.88Z"/><path class="cls-2" d="M771.9,420.43c12,13,19.7-2.7,32.27,0C791.09,409.23,782.34,417.33,771.9,420.43Z"/><path d="M585.71,225.68c-5.64,10.54-12.12,21-.42,35.3-.62-5.22-.89-7.5-1.17-9.8-2.67-8.86.63-15.42,7.82-20.5.64-2,1.28-4,2.31-7.26l-8.93,2.66Z"/><path d="M529.8,166c-19.87,16-21.65,50.66-5,67.81l7.13-9c9,13.19,8.32,34.82,33.26,34.2-2.56-6-4.83-11.37-7.43-17.51l-10.17,6c-3.4-12-6.61-23.32-10.56-37.24l-13.46,12.6C515,204.09,518.65,186.34,529.8,166Z"/><path d="M599.26,179l18.35-15.28-46.42-16C581.45,172,588.31,178.65,599.26,179Z"/><path d="M505.2,221.33c-8.15,14.29.17,40,17.83,53.29l6.13-11.28c6.7,16.61,20,15.64,35.89,14.26-5.08-3-8.16-5.61-11.71-6.84-4.92-1.7-10.93-1.23-15.1-3.85s-6.44-7.86-10.15-12.74l-7.73,9.23C513.77,258.89,509.13,255.57,505.2,221.33Z"/><path d="M585.32,226.08c-2.78-.17-6.5-1.53-8.15-.24-3,2.38-4.89,6.31-7.23,9.59l-2.67-1c2.59-6.36,5.17-12.72,8.21-20.22L563,217.85c1.87-11.39,3.66-22.33,5.49-33.49-7.09-1.91-11.7,2.69-9.4,12.19.41,1.66,1.7,4.37,1.15,4.81-9,7.28-.21,16-3.53,25.3l9.8-4.73v26.51c7.44-8.85,13.29-15.8,19.15-22.75Z"/><path d="M544.35,439.6l17-23.21-3-2.26-17.33,22.72Z"/><path d="M585.68,193.9l6-5.43-2.29-2.34c-4.17,4.22-8.34,8.45-12.64,12.79l15.94,9.35,1.95-1.83Z"/><path d="M394.31,190.06c1.88,23.62,16.17,41.67,28,60.87Q408.29,220.49,394.31,190.06Z"/><path d="M336.17,260.57l-29.86-20.91-2,2.85,29.65,20.61Z"/><path d="M453,411.65H410.87l.15,3.56c14.1,1.66,28.18,3.13,41.76-3.75Z"/><path d="M489.2,357.69l-28.38-5.83-.63,3,28.64,6.2C489,359.92,489.08,358.81,489.2,357.69Z"/></g><text class="cls-3" transform="translate(277 910.84)">meteaure</text></g></svg>