<svg id="design_2" data-name="design 2" xmlns="http://www.w3.org/2000/svg" xmlns:xlink="http://www.w3.org/1999/xlink" viewBox="0 0 1440 2880"><defs><style>.cls-1{fill:#2d2d2d;}.cls-2,.cls-34,.cls-7,.cls-8{fill:#f2f2f2;}.cls-11,.cls-12,.cls-21,.cls-24,.cls-26,.cls-27,.cls-3,.cls-30,.cls-4{fill:none;stroke-miterlimit:10;}.cls-3,.cls-4{stroke-width:14px;}.cls-3{stroke:url(#Dégradé_sans_nom_82);}.cls-4{stroke:#2d2d2d;}.cls-5{fill:url(#Dégradé_sans_nom_58);}.cls-6{fill:#161616;}.cls-7{font-size:61.56px;font-family:Helvetica-Bold, Helvetica;font-weight:700;}.cls-8{font-size:54px;font-family:Helvetica-Light, Helvetica;}.cls-9{font-size:60.86px;}.cls-13,.cls-15,.cls-19,.cls-22,.cls-23,.cls-28,.cls-33,.cls-34,.cls-9{font-family:Helvetica, Helvetica;}.cls-10{fill:url(#Dégradé_sans_nom_82-2);}.cls-11,.cls-12,.cls-24,.cls-30{stroke-width:3px;}.cls-11{stroke:url(#Dégradé_sans_nom_82-6);}.cls-12{stroke:url(#Dégradé_sans_nom_82-7);}.cls-13,.cls-15{font-size:58px;}.cls-13,.cls-14{fill:#848484;}.cls-14{font-size:46.59px;}.cls-14,.cls-17{font-family:FontAwesome5Free-Solid, Font Awesome 5 Free;}.cls-16{fill:url(#Dégradé_sans_nom_82-8);}.cls-17{font-size:55.19px;}.cls-18{fill:url(#Dégradé_sans_nom_82-16);}.cls-19{font-size:72.75px;}.cls-20{fill:url(#Dégradé_sans_nom_82-17);}.cls-21{stroke-width:6px;stroke:url(#Dégradé_sans_nom_82-18);}.cls-22,.cls-23{font-size:75.52px;}.cls-23{fill:#7c7c7c;}.cls-24{stroke:#505050;}.cls-25,.cls-28{fill:#505050;}.cls-26{stroke-width:5px;stroke:url(#Dégradé_sans_nom_79);}.cls-27,.cls-30{stroke:#7c7c7c;}.cls-27{stroke-width:2px;}.cls-28{font-size:49px;}.cls-29{fill:url(#Dégradé_sans_nom_79-2);}.cls-31{fill:url(#Dégradé_sans_nom_79-3);}.cls-32{fill:url(#Dégradé_sans_nom_79-4);}.cls-33{font-size:63.18px;}.cls-34{font-size:62px;}.cls-35{letter-spacing:-0.02em;}</style><linearGradient id="Dégradé_sans_nom_82" y1="103.02" x2="118.63" y2="103.02" gradientUnits="userSpaceOnUse"><stop offset="0" stop-color="#32a9de"/><stop offset="1" stop-color="#55d1e1"/></linearGradient><linearGradient id="Dégradé_sans_nom_58" x1="720" y1="2880" x2="720" gradientUnits="userSpaceOnUse"><stop offset="0" stop-color="#000002"/><stop offset="1" stop-color="#2b2b2b"/></linearGradient><linearGradient id="Dégradé_sans_nom_82-2" x1="1199.6" y1="155.53" x2="1307.08" y2="155.53" xlink:href="#Dégradé_sans_nom_82"/><linearGradient id="Dégradé_sans_nom_82-6" x1="1122.25" y1="152.99" x2="1164.22" y2="152.99" xlink:href="#Dégradé_sans_nom_82"/><linearGradient id="Dégradé_sans_nom_82-7" x1="1056.02" y1="152.99" x2="1375.5" y2="152.99" xlink:href="#Dégradé_sans_nom_82"/><linearGradient id="Dégradé_sans_nom_82-8" x1="229.96" y1="380.7" x2="476.92" y2="380.7" xlink:href="#Dégradé_sans_nom_82"/><linearGradient id="Dégradé_sans_nom_82-16" x1="143.25" y1="371.65" x2="184.64" y2="371.65" xlink:href="#Dégradé_sans_nom_82"/><linearGradient id="Dégradé_sans_nom_82-17" x1="126.8" y1="2743.68" x2="145.59" y2="2743.68" xlink:href="#Dégradé_sans_nom_82"/><linearGradient id="Dégradé_sans_nom_82-18" x1="140" y1="2846" x2="140" y2="2634" xlink:href="#Dégradé_sans_nom_82"/><linearGradient id="Dégradé_sans_nom_79" x1="487.5" y1="2384" x2="536.5" y2="2384" gradientUnits="userSpaceOnUse"><stop offset="0" stop-color="#59d2e1"/><stop offset="0.32" stop-color="#56cee1"/><stop offset="0.61" stop-color="#4bc4e1"/><stop offset="0.89" stop-color="#3ab1e0"/><stop offset="1" stop-color="#31a8e0"/></linearGradient><linearGradient id="Dégradé_sans_nom_79-2" x1="337.8" y1="1497.6" x2="337.8" y2="1282" xlink:href="#Dégradé_sans_nom_79"/><linearGradient id="Dégradé_sans_nom_79-3" x1="847.4" y1="1752.4" x2="847.4" y2="1536.8" xlink:href="#Dégradé_sans_nom_79"/><linearGradient id="Dégradé_sans_nom_79-4" x1="592.6" y1="2007.2" x2="592.6" y2="1791.6" xlink:href="#Dégradé_sans_nom_79"/><symbol id="Knob" data-name="Knob" viewBox="0 0 237.26 206.04"><circle class="cls-1" cx="118.63" cy="118.63" r="75.72"/><circle class="cls-2" cx="118.63" cy="71.75" r="14"/><path class="cls-3" d="M118.63,7A111.62,111.62,0,0,0,43.18,200.88"/><path class="cls-4" d="M194.08,200.88A111.62,111.62,0,0,0,118.63,7"/></symbol></defs><title>Plan de travail 1</title><rect class="cls-5" width="1440" height="2880"/><g id="Header"><rect class="cls-6" width="1440" height="480"/><text class="cls-7" transform="translate(87.38 124.92)">Project name</text><text class="cls-8" transform="translate(87.38 213.54)">135 bpm</text><text class="cls-9" transform="translate(1196.13 170.84)">play</text><path class="cls-10" d="M1199.6,139.16h5.23v4.22a13.37,13.37,0,0,1,3.52-3.36,11.33,11.33,0,0,1,6.38-1.78,12,12,0,0,1,9.2,4.15q3.79,4.14,3.79,11.84,0,10.4-5.46,14.86a12.4,12.4,0,0,1-8.06,2.82,11,11,0,0,1-6-1.58,13.78,13.78,0,0,1-3.2-3.06v16.26h-5.35Zm20.13,25q2.49-3.13,2.49-9.38a17.62,17.62,0,0,0-1.1-6.54,7.63,7.63,0,0,0-7.64-5.25q-5.58,0-7.63,5.55a21.87,21.87,0,0,0-1.1,7.55,15.85,15.85,0,0,0,1.1,6.27,8.12,8.12,0,0,0,13.88,1.8Z"/><path class="cls-10" d="M1234.05,127.19h5.35v43.65h-5.35Z"/><path class="cls-10" d="M1264.48,151.58a2.89,2.89,0,0,0,2.46-1.54,4.73,4.73,0,0,0,.36-2.06,4.4,4.4,0,0,0-1.94-4,10.44,10.44,0,0,0-5.56-1.23c-2.79,0-4.77.75-5.94,2.27a7.52,7.52,0,0,0-1.27,3.73h-5q.15-5.89,3.81-8.21a15.6,15.6,0,0,1,8.5-2.31,17.29,17.29,0,0,1,9.12,2.14,7.27,7.27,0,0,1,3.47,6.66v18.33a2.34,2.34,0,0,0,.34,1.34c.23.34.71.5,1.44.5a7.77,7.77,0,0,0,.8,0c.3,0,.62-.07,1-.13v4a14.57,14.57,0,0,1-1.91.44,13.68,13.68,0,0,1-1.78.09,4.39,4.39,0,0,1-4-2,7.49,7.49,0,0,1-.92-2.94,13.59,13.59,0,0,1-4.7,3.71,14.52,14.52,0,0,1-6.74,1.58,10.05,10.05,0,0,1-7.24-2.69,8.92,8.92,0,0,1-2.81-6.72,8.65,8.65,0,0,1,2.77-6.86,13.12,13.12,0,0,1,7.25-3ZM1253.21,166a6.3,6.3,0,0,0,4,1.33,12.17,12.17,0,0,0,5.46-1.3,7.34,7.34,0,0,0,4.46-7.09v-4.31a9,9,0,0,1-2.52,1.05,21.28,21.28,0,0,1-3,.59l-3.23.42a12.65,12.65,0,0,0-4.37,1.21,4.74,4.74,0,0,0-2.48,4.45A4.39,4.39,0,0,0,1253.21,166Z"/><path class="cls-10" d="M1301.16,139h5.92q-1.14,3.06-5,14-2.91,8.2-4.87,13.37-4.64,12.18-6.53,14.85t-6.53,2.67a15,15,0,0,1-1.74-.08,13.22,13.22,0,0,1-1.5-.33v-4.88a18,18,0,0,0,2,.48,7.72,7.72,0,0,0,1.1.09,3.78,3.78,0,0,0,2.17-.49,4.64,4.64,0,0,0,1.18-1.2c.1-.16.45-1,1.07-2.43s1-2.55,1.33-3.27L1278,139H1284l8.53,25.93Z"/><path class="cls-11" d="M1161.76,151.34,1126.61,131a1.91,1.91,0,0,0-2.86,1.66v40.59a1.9,1.9,0,0,0,2.86,1.65l35.15-20.29A1.91,1.91,0,0,0,1161.76,151.34Z"/><rect class="cls-12" x="1057.52" y="91.98" width="316.48" height="122.02" rx="14.08" ry="14.08"/><text class="cls-13" transform="translate(1085.19 390.2)">process</text><text class="cls-14" transform="translate(1011.78 390.84)"></text><text class="cls-13" transform="translate(682.07 390.2)">design</text><text class="cls-14" transform="translate(602.54 388.84)"></text><text class="cls-15" transform="translate(228.1 390.26)">sequence</text><path class="cls-16" d="M234.86,380.74a7.32,7.32,0,0,0,1.31,3.91c1.3,1.64,3.58,2.46,6.82,2.46a10.22,10.22,0,0,0,5.08-1.23,4.07,4.07,0,0,0,2.2-3.81,3.23,3.23,0,0,0-1.76-3,20.19,20.19,0,0,0-4.43-1.44l-4.11-1a20.35,20.35,0,0,1-5.82-2.16,6.41,6.41,0,0,1-3.34-5.72,8.66,8.66,0,0,1,3.15-7,12.61,12.61,0,0,1,8.45-2.67q6.94,0,10,4a8.62,8.62,0,0,1,1.86,5.49h-4.81a5.84,5.84,0,0,0-1.25-3.13c-1.2-1.33-3.27-2-6.23-2a7.63,7.63,0,0,0-4.48,1.1,3.43,3.43,0,0,0-1.52,2.91,3.55,3.55,0,0,0,2,3.16,11.89,11.89,0,0,0,3.4,1.24l3.44.83q5.59,1.32,7.5,2.57a6.84,6.84,0,0,1,3,6.15,9.31,9.31,0,0,1-3.11,7q-3.1,3-9.48,2.95-6.84,0-9.7-3.07a11.61,11.61,0,0,1-3.06-7.61Z"/><path class="cls-16" d="M279.57,360.76a11.51,11.51,0,0,1,4.59,3.92,13.54,13.54,0,0,1,2,5.36,35.15,35.15,0,0,1,.45,6.68H264.57a13.16,13.16,0,0,0,2.17,7.43q2,2.79,6.26,2.79a8.05,8.05,0,0,0,6.32-2.64,9,9,0,0,0,1.88-3.56h5a10.44,10.44,0,0,1-1.32,3.73,13.4,13.4,0,0,1-2.49,3.35,11.8,11.8,0,0,1-5.71,3.06,17.3,17.3,0,0,1-4.13.45,12.65,12.65,0,0,1-9.54-4.12q-3.91-4.11-3.91-11.54t3.94-11.86a13,13,0,0,1,10.3-4.56A13.68,13.68,0,0,1,279.57,360.76Zm1.82,11.91a13.14,13.14,0,0,0-1.43-5.29c-1.38-2.46-3.7-3.69-6.93-3.69a7.68,7.68,0,0,0-5.85,2.54,9.61,9.61,0,0,0-2.49,6.44Z"/><path class="cls-16" d="M310.2,361.14a11.42,11.42,0,0,1,2.72,3v-4.22h4.81v42.42h-5.1V386.77a9.21,9.21,0,0,1-3.52,3.25,11.82,11.82,0,0,1-5.61,1.2,12,12,0,0,1-8.66-3.79q-3.81-3.8-3.82-11.56,0-7.28,3.58-11.95a11.13,11.13,0,0,1,9.26-4.67A10.43,10.43,0,0,1,310.2,361.14Zm-12.75,21a7,7,0,0,0,7,4.73,7.31,7.31,0,0,0,7.33-5,19.2,19.2,0,0,0,1.1-7,15.7,15.7,0,0,0-1.22-6.57,7.34,7.34,0,0,0-7.26-4.5,7.12,7.12,0,0,0-5.67,2.87c-1.58,1.92-2.36,4.88-2.36,8.88A17.18,17.18,0,0,0,297.45,382.1Z"/><path class="cls-16" d="M330.45,359.93v20.13a8.68,8.68,0,0,0,.71,3.8q1.32,2.72,4.94,2.72a7,7,0,0,0,7.06-4.76,19.36,19.36,0,0,0,1-7V359.93h5.1v30.33h-4.82l.06-4.48a10,10,0,0,1-2.42,2.92,10.48,10.48,0,0,1-6.94,2.38q-6.37,0-8.67-4.33a13.06,13.06,0,0,1-1.26-6.21V359.93Z"/><path class="cls-16" d="M376.34,360.76a11.51,11.51,0,0,1,4.59,3.92,13.54,13.54,0,0,1,2,5.36,35.15,35.15,0,0,1,.45,6.68H361.34a13.16,13.16,0,0,0,2.17,7.43c1.35,1.86,3.43,2.79,6.26,2.79a8.05,8.05,0,0,0,6.32-2.64,9,9,0,0,0,1.88-3.56h5a10.44,10.44,0,0,1-1.32,3.73,13.4,13.4,0,0,1-2.49,3.35,11.8,11.8,0,0,1-5.71,3.06,17.3,17.3,0,0,1-4.13.45,12.65,12.65,0,0,1-9.54-4.12q-3.92-4.11-3.91-11.54t3.94-11.86a13,13,0,0,1,10.3-4.56A13.68,13.68,0,0,1,376.34,360.76Zm1.83,11.91a13.29,13.29,0,0,0-1.44-5.29q-2.07-3.69-6.93-3.69a7.64,7.64,0,0,0-5.84,2.54,9.57,9.57,0,0,0-2.5,6.44Z"/><path class="cls-16" d="M389.86,359.93h4.84v4.3a13.67,13.67,0,0,1,4.56-3.82,12.11,12.11,0,0,1,5.36-1.16q6.45,0,8.72,4.5a16,16,0,0,1,1.24,7.05v19.46H409.4V371.14a10.29,10.29,0,0,0-.82-4.47,5,5,0,0,0-4.93-2.84,10.2,10.2,0,0,0-3,.37,7.68,7.68,0,0,0-3.68,2.5,7.54,7.54,0,0,0-1.66,3.1,21.14,21.14,0,0,0-.38,4.57v15.89h-5.1Z"/><path class="cls-16" d="M442.16,361.54q3.21,2.49,3.86,8.58h-5a9.19,9.19,0,0,0-2.06-4.66q-1.62-1.84-5.19-1.85-4.86,0-7,4.75a18.8,18.8,0,0,0-1.36,7.61,14.3,14.3,0,0,0,1.92,7.66,7.46,7.46,0,0,0,11.09,1.18,10.52,10.52,0,0,0,2.56-5.29h5q-.86,6-4.25,8.83a13.23,13.23,0,0,1-8.69,2.79,11.6,11.6,0,0,1-9.49-4.35,16.64,16.64,0,0,1-3.54-10.86q0-8,3.88-12.43a12.52,12.52,0,0,1,9.88-4.45A13.27,13.27,0,0,1,442.16,361.54Z"/><path class="cls-16" d="M469.85,360.76a11.51,11.51,0,0,1,4.59,3.92,13.7,13.7,0,0,1,2,5.36,35.15,35.15,0,0,1,.45,6.68H454.86a13.08,13.08,0,0,0,2.16,7.43q2,2.79,6.27,2.79a8.05,8.05,0,0,0,6.32-2.64,9.09,9.09,0,0,0,1.87-3.56h5a10.59,10.59,0,0,1-1.31,3.73,13.42,13.42,0,0,1-2.5,3.35,11.8,11.8,0,0,1-5.71,3.06,17.24,17.24,0,0,1-4.13.45,12.65,12.65,0,0,1-9.54-4.12q-3.92-4.11-3.91-11.54t3.94-11.86a13,13,0,0,1,10.3-4.56A13.68,13.68,0,0,1,469.85,360.76Zm1.83,11.91a13.3,13.3,0,0,0-1.43-5.29q-2.08-3.69-6.94-3.69a7.66,7.66,0,0,0-5.84,2.54,9.62,9.62,0,0,0-2.5,6.44Z"/><text class="cls-17" transform="translate(143.25 390.62)"></text><path class="cls-18" d="M181.19,390.62H146.7v-5a8.6,8.6,0,0,1,4.77-7.71l6.17-3.09a5.68,5.68,0,0,0,2.86-4.63v-5.42l-2.39,1.19a3,3,0,0,0-1.35,1.69l-1.28,5.1a1.48,1.48,0,0,1-.77.89l-3.19,1.27a1.65,1.65,0,0,1-.48.1,1.62,1.62,0,0,1-.53-.11L144,372a1.4,1.4,0,0,1-.77-1.18V353.75a2.56,2.56,0,0,1,.76-1.83l1-1-1.53-3.06a2.29,2.29,0,0,1-.19-.82,1.29,1.29,0,0,1,1.29-1.29h16a20.69,20.69,0,0,1,20.69,20.69Zm3.45,3v2.58a1.3,1.3,0,0,1-1.29,1.3H144.54a1.3,1.3,0,0,1-1.29-1.3v-2.58a1.3,1.3,0,0,1,1.29-1.3h38.81A1.3,1.3,0,0,1,184.64,393.64ZM146.7,358.28a2.16,2.16,0,1,0,2.16-2.15A2.16,2.16,0,0,0,146.7,358.28Z"/></g><g id="Track_Selector" data-name="Track Selector"><text class="cls-19" transform="translate(119.84 2769.01)">1</text><path class="cls-20" d="M126.8,2733v-4.9q6.93-.68,9.67-2.26t4.08-7.48h5V2769h-6.82v-36Z"/><rect class="cls-21" x="37" y="2637" width="206" height="206" rx="25.16" ry="25.16"/><text class="cls-22" transform="translate(351.04 2769.05)">2</text><text class="cls-23" transform="translate(351.04 2769.05)">2</text><text class="cls-22" transform="translate(583.02 2769.55)">3</text><text class="cls-23" transform="translate(583.02 2769.55)">3</text><text class="cls-22" transform="translate(814.99 2770.05)">4</text><text class="cls-23" transform="translate(814.99 2770.05)">4</text><text class="cls-22" transform="translate(1046.96 2770.55)">5</text><text class="cls-23" transform="translate(1046.96 2770.55)">5</text><text class="cls-22" transform="translate(1278.93 2771.05)">6</text><text class="cls-23" transform="translate(1278.93 2771.05)">6</text></g><g id="Sequence"><line class="cls-24" x1="202.09" y1="1068.41" x2="202.09" y2="1096.5"/><path class="cls-25" d="M204.79,1119.59l10.31-17.87a3.22,3.22,0,0,0-2.79-4.83H191.69a3.22,3.22,0,0,0-2.79,4.83l10.31,17.87A3.23,3.23,0,0,0,204.79,1119.59Z"/><line class="cls-24" x1="547.42" y1="1068.41" x2="547.42" y2="1096.5"/><path class="cls-25" d="M550.12,1119.59l10.32-17.87a3.22,3.22,0,0,0-2.79-4.83H537a3.22,3.22,0,0,0-2.79,4.83l10.31,17.87A3.23,3.23,0,0,0,550.12,1119.59Z"/><line class="cls-24" x1="892.75" y1="1068.41" x2="892.75" y2="1096.5"/><path class="cls-25" d="M895.46,1119.59l10.31-17.87a3.22,3.22,0,0,0-2.79-4.83H882.35a3.22,3.22,0,0,0-2.79,4.83l10.32,17.87A3.23,3.23,0,0,0,895.46,1119.59Z"/><line class="cls-24" x1="1238.09" y1="1068.41" x2="1238.09" y2="1096.5"/><path class="cls-25" d="M1240.79,1119.59l10.31-17.87a3.22,3.22,0,0,0-2.79-4.83h-20.62a3.22,3.22,0,0,0-2.79,4.83l10.31,17.87A3.23,3.23,0,0,0,1240.79,1119.59Z"/><circle class="cls-26" cx="512" cy="2384" r="22"/><circle class="cls-27" cx="651" cy="2384" r="22"/><circle class="cls-27" cx="790" cy="2384" r="22"/><circle class="cls-27" cx="929" cy="2384" r="22"/><text class="cls-28" transform="translate(1190.34 1039.24)">mod</text><rect class="cls-24" x="1131.58" y="979" width="212.85" height="90" rx="15.94" ry="15.94"/><rect class="cls-29" x="230" y="1282" width="215.6" height="215.6" rx="34.34" ry="34.34"/><rect class="cls-30" x="484.8" y="1282" width="215.6" height="215.6" rx="34.34" ry="34.34"/><rect class="cls-30" x="739.6" y="1282" width="215.6" height="215.6" rx="34.34" ry="34.34"/><rect class="cls-30" x="994.4" y="1282" width="215.6" height="215.6" rx="34.34" ry="34.34"/><rect class="cls-30" x="230" y="1536.8" width="215.6" height="215.6" rx="34.34" ry="34.34"/><rect class="cls-30" x="484.8" y="1536.8" width="215.6" height="215.6" rx="34.34" ry="34.34"/><rect class="cls-31" x="739.6" y="1536.8" width="215.6" height="215.6" rx="34.34" ry="34.34"/><rect class="cls-30" x="994.4" y="1536.8" width="215.6" height="215.6" rx="34.34" ry="34.34"/><rect class="cls-30" x="230" y="1791.6" width="215.6" height="215.6" rx="34.34" ry="34.34"/><rect class="cls-32" x="484.8" y="1791.6" width="215.6" height="215.6" rx="34.34" ry="34.34"/><rect class="cls-30" x="739.6" y="1791.6" width="215.6" height="215.6" rx="34.34" ry="34.34"/><rect class="cls-30" x="994.4" y="1791.6" width="215.6" height="215.6" rx="34.34" ry="34.34"/><rect class="cls-30" x="230" y="2046.4" width="215.6" height="215.6" rx="34.34" ry="34.34"/><rect class="cls-30" x="484.8" y="2046.4" width="215.6" height="215.6" rx="34.34" ry="34.34"/><rect class="cls-30" x="739.6" y="2046.4" width="215.6" height="215.6" rx="34.34" ry="34.34"/><rect class="cls-30" x="994.4" y="2046.4" width="215.6" height="215.6" rx="34.34" ry="34.34"/><text class="cls-33" transform="translate(786.5 1670.39)">1 | 4</text><text class="cls-28" transform="translate(154.34 1039.24)">mod</text><rect class="cls-24" x="95.58" y="979" width="212.85" height="90" rx="15.94" ry="15.94"/><text class="cls-28" transform="translate(499.67 1039.24)">mod</text><rect class="cls-24" x="440.91" y="979" width="212.85" height="90" rx="15.94" ry="15.94"/><text class="cls-28" transform="translate(845.01 1039.24)">mod</text><rect class="cls-24" x="786.24" y="979" width="212.85" height="90" rx="15.94" ry="15.94"/><text class="cls-34" transform="translate(102.07 627.49)">volume</text><text class="cls-34" transform="translate(464.61 627.49)">decay</text><text class="cls-34" transform="translate(817.39 627.49)">cuto<tspan class="cls-35" x="117.19" y="0">f</tspan><tspan x="133.32" y="0">f</tspan></text><text class="cls-34" transform="translate(1172.52 627.49)">pitch</text><use id="Knob-3" data-name="Knob" width="237.26" height="206.04" transform="translate(92.76 729.35) rotate(-0.01) scale(0.92)" xlink:href="#Knob"/><use id="Knob-6" data-name="Knob" width="237.26" height="206.04" transform="translate(438.1 729.35) rotate(-0.01) scale(0.92)" xlink:href="#Knob"/><use id="Knob-9" data-name="Knob" width="237.26" height="206.04" transform="translate(783.43 729.35) rotate(-0.01) scale(0.92)" xlink:href="#Knob"/><use id="Knob-12" data-name="Knob" width="237.26" height="206.04" transform="translate(1128.76 729.35) rotate(-0.01) scale(0.92)" xlink:href="#Knob"/></g></svg>