<svg xmlns="http://www.w3.org/2000/svg" xmlns:xlink="http://www.w3.org/1999/xlink" viewBox="0 0 1544 3135"><defs><style>.cls-1{fill:#494949;}.cls-2{fill:#f2f2f2;}.cls-14,.cls-16,.cls-19,.cls-3,.cls-4,.cls-9{fill:none;stroke-miterlimit:10;}.cls-3,.cls-4{stroke-width:14px;}.cls-3{stroke:url(#Dégradé_sans_nom_82);}.cls-4{stroke:#2d2d2d;}.cls-5{fill:#2f2f2f;}.cls-6{fill:#585858;}.cls-7{fill:#1b1a1b;}.cls-8{fill:url(#Dégradé_sans_nom_82-2);}.cls-16,.cls-19,.cls-9{stroke-width:3px;}.cls-9{stroke:url(#Dégradé_sans_nom_82-6);}.cls-10{fill:#848484;}.cls-11{fill:url(#Dégradé_sans_nom_82-7);}.cls-12{fill:url(#Dégradé_sans_nom_82-15);}.cls-13{fill:url(#Dégradé_sans_nom_82-16);}.cls-14{stroke-width:6px;stroke:url(#Dégradé_sans_nom_82-17);}.cls-15{fill:#7c7c7c;}.cls-16{stroke:#505050;}.cls-17{fill:#505050;}.cls-18{fill:url(#Dégradé_sans_nom_79);}.cls-19{stroke:#7c7c7c;}.cls-20{fill:url(#Dégradé_sans_nom_79-2);}.cls-21{fill:url(#Dégradé_sans_nom_79-3);}.cls-22{fill:#a5a5a5;}.cls-23{fill:#e1e1e1;}</style><linearGradient id="Dégradé_sans_nom_82" y1="103.02" x2="118.63" y2="103.02" gradientUnits="userSpaceOnUse"><stop offset="0" stop-color="#32a9de"/><stop offset="1" stop-color="#55d1e1"/></linearGradient><linearGradient id="Dégradé_sans_nom_82-2" x1="1216.93" y1="306.76" x2="1315.82" y2="306.76" xlink:href="#Dégradé_sans_nom_82"/><linearGradient id="Dégradé_sans_nom_82-6" x1="1110" y1="302.99" x2="1420.2" y2="302.99" xlink:href="#Dégradé_sans_nom_82"/><linearGradient id="Dégradé_sans_nom_82-7" x1="260.1" y1="530.77" x2="519.55" y2="530.77" xlink:href="#Dégradé_sans_nom_82"/><linearGradient id="Dégradé_sans_nom_82-15" x1="169" y1="521.26" x2="212.49" y2="521.26" xlink:href="#Dégradé_sans_nom_82"/><linearGradient id="Dégradé_sans_nom_82-16" x1="637.6" y1="2894.23" x2="673.16" y2="2894.23" xlink:href="#Dégradé_sans_nom_82"/><linearGradient id="Dégradé_sans_nom_82-17" x1="656.01" y1="2996" x2="656.01" y2="2784" xlink:href="#Dégradé_sans_nom_82"/><linearGradient id="Dégradé_sans_nom_79" x1="389.8" y1="1647.6" x2="389.8" y2="1432" gradientUnits="userSpaceOnUse"><stop offset="0" stop-color="#59d2e1"/><stop offset="0.32" stop-color="#56cee1"/><stop offset="0.61" stop-color="#4bc4e1"/><stop offset="0.89" stop-color="#3ab1e0"/><stop offset="1" stop-color="#31a8e0"/></linearGradient><linearGradient id="Dégradé_sans_nom_79-2" x1="899.4" y1="1902.4" x2="899.4" y2="1686.8" xlink:href="#Dégradé_sans_nom_79"/><linearGradient id="Dégradé_sans_nom_79-3" x1="644.6" y1="2157.2" x2="644.6" y2="1941.6" xlink:href="#Dégradé_sans_nom_79"/><symbol id="Knob" data-name="Knob" viewBox="0 0 237.26 206.04"><circle class="cls-1" cx="118.63" cy="118.63" r="75.72"/><circle class="cls-2" cx="118.63" cy="71.75" r="14"/><path class="cls-3" d="M118.63,7A111.62,111.62,0,0,0,43.18,200.88"/><path class="cls-4" d="M194.08,200.88A111.62,111.62,0,0,0,118.63,7"/></symbol></defs><title>screen</title><g id="Phone_background" data-name="Phone background"><rect class="cls-5" width="1544" height="3135" rx="172.7" ry="172.7"/><rect class="cls-6" x="535.25" y="66.71" width="388.49" height="33.87" rx="16.25" ry="16.25"/><circle class="cls-6" cx="987.39" cy="83.64" r="21.36"/></g><g id="design_3" data-name="design 3"><rect class="cls-7" x="52" y="150" width="1440" height="2880" rx="112" ry="112"/><g id="Header_-_copie" data-name="Header - copie"><path d="M164,150H1380a112,112,0,0,1,112,112V630a0,0,0,0,1,0,0H52a0,0,0,0,1,0,0V262A112,112,0,0,1,164,150Z"/><path class="cls-2" d="M169.31,263.2H150.54l-4.21,11.72h-6.09l17.1-44.79h5.17l17.14,44.79h-6.07Zm-17-4.83h15.23l-7.63-21Z"/><path class="cls-2" d="M198.13,270.89a8.18,8.18,0,0,0,5.32-1.85,6.52,6.52,0,0,0,2.53-4.61h5.38a10.3,10.3,0,0,1-2,5.44,12.83,12.83,0,0,1-4.84,4.12,13.94,13.94,0,0,1-6.42,1.54A13.72,13.72,0,0,1,187.32,271q-4-4.54-4-12.42v-.95a20,20,0,0,1,1.78-8.64,13.57,13.57,0,0,1,5.12-5.88A14.61,14.61,0,0,1,198.1,241a13.39,13.39,0,0,1,9.31,3.35,12,12,0,0,1,4,8.71H206a7.84,7.84,0,0,0-2.45-5.31,7.64,7.64,0,0,0-5.43-2.08,8,8,0,0,0-6.72,3.13q-2.38,3.12-2.38,9v1.08q0,5.76,2.36,8.86A8,8,0,0,0,198.13,270.89Z"/><path class="cls-2" d="M217.79,232.8a3.35,3.35,0,0,1,.85-2.33,3.14,3.14,0,0,1,2.5-1,3.2,3.2,0,0,1,2.52,1,3.32,3.32,0,0,1,.87,2.33,3.37,3.37,0,1,1-6.74,0Zm6.15,42.12h-5.69V241.63h5.69Z"/><path class="cls-2" d="M231.66,258q0-7.67,3.63-12.32a12.36,12.36,0,0,1,18.77-.66V227.67h5.69v47.25h-5.23l-.28-3.57a11.57,11.57,0,0,1-9.5,4.18,11.38,11.38,0,0,1-9.43-4.73q-3.65-4.74-3.65-12.37Zm5.69.64q0,5.67,2.34,8.86a7.54,7.54,0,0,0,6.46,3.2,8.31,8.31,0,0,0,7.91-4.86V250.55a8.39,8.39,0,0,0-7.85-4.7,7.58,7.58,0,0,0-6.52,3.23Q237.35,252.3,237.35,258.64Z"/><path class="cls-2" d="M314.78,235h-14.4v40h-5.87V235H280.14v-4.83h34.64Z"/><path class="cls-2" d="M331.3,275.53a14.55,14.55,0,0,1-11-4.44Q316,266.64,316,259.2v-1.05a20,20,0,0,1,1.89-8.84,14.66,14.66,0,0,1,5.3-6.09,13.25,13.25,0,0,1,7.36-2.2q6.5,0,10.09,4.27t3.6,12.25v2.37H321.73a11.8,11.8,0,0,0,2.88,7.95,9,9,0,0,0,7,3,9.88,9.88,0,0,0,5.1-1.23,12.72,12.72,0,0,0,3.66-3.26l3.48,2.7Q339.67,275.53,331.3,275.53Zm-.71-29.84a7.6,7.6,0,0,0-5.78,2.51,12.19,12.19,0,0,0-2.89,7h16.67v-.43a10.78,10.78,0,0,0-2.34-6.72A7.14,7.14,0,0,0,330.59,245.69Z"/><path class="cls-2" d="M364.21,270.89a8.23,8.23,0,0,0,5.33-1.85,6.54,6.54,0,0,0,2.52-4.61h5.38a10.3,10.3,0,0,1-2,5.44,12.83,12.83,0,0,1-4.84,4.12,13.94,13.94,0,0,1-6.42,1.54A13.72,13.72,0,0,1,353.4,271q-4-4.54-4-12.42v-.95a20,20,0,0,1,1.78-8.64,13.57,13.57,0,0,1,5.12-5.88,14.61,14.61,0,0,1,7.89-2.09,13.37,13.37,0,0,1,9.31,3.35,12,12,0,0,1,3.95,8.71h-5.38a7.84,7.84,0,0,0-2.45-5.31,7.61,7.61,0,0,0-5.43-2.08,8,8,0,0,0-6.72,3.13q-2.38,3.12-2.38,9v1.08q0,5.76,2.37,8.86A8,8,0,0,0,364.21,270.89Z"/><path class="cls-2" d="M389.53,245.66a12.11,12.11,0,0,1,9.85-4.64q10.55,0,10.64,11.9v22h-5.69v-22q0-3.6-1.65-5.32c-1.08-1.15-2.75-1.72-5-1.72a8.26,8.26,0,0,0-4.86,1.47,10.12,10.12,0,0,0-3.26,3.88v23.72h-5.69V227.67h5.69Z"/><path class="cls-2" d="M423.92,241.63l.19,4.19a12.11,12.11,0,0,1,10-4.8q10.56,0,10.65,11.9v22H439v-22q0-3.6-1.65-5.32c-1.08-1.15-2.75-1.72-5-1.72a8.26,8.26,0,0,0-4.86,1.47,10.12,10.12,0,0,0-3.26,3.88v23.72h-5.69V241.63Z"/><path class="cls-2" d="M451.79,258a19.68,19.68,0,0,1,1.93-8.8,14.36,14.36,0,0,1,5.35-6A14.63,14.63,0,0,1,466.9,241a14.07,14.07,0,0,1,11,4.7q4.19,4.71,4.19,12.52v.4a19.87,19.87,0,0,1-1.86,8.73,14.14,14.14,0,0,1-5.32,6,14.79,14.79,0,0,1-8,2.15,14,14,0,0,1-11-4.7q-4.2-4.71-4.2-12.46Zm5.73.67q0,5.55,2.56,8.89a8.7,8.7,0,0,0,13.77,0q2.55-3.4,2.55-9.52a14.19,14.19,0,0,0-2.6-8.88,8.27,8.27,0,0,0-6.9-3.4,8.17,8.17,0,0,0-6.8,3.36Q457.52,252.4,457.52,258.64Z"/><path class="cls-2" d="M159.31,363.54h-5.08V329.82L144,333.57V329l14.49-5.44h.79Z"/><path class="cls-2" d="M181.49,341.17h3.8a8.37,8.37,0,0,0,5.63-1.89,6.29,6.29,0,0,0,2.05-4.95q0-7-7-7a7.25,7.25,0,0,0-5.24,1.88,6.56,6.56,0,0,0-1.95,5h-5.06a10.15,10.15,0,0,1,3.46-7.86,12.57,12.57,0,0,1,8.79-3.13c3.75,0,6.7,1,8.83,3a10.78,10.78,0,0,1,3.2,8.28,8.74,8.74,0,0,1-1.68,5,10.1,10.1,0,0,1-4.58,3.64,9.71,9.71,0,0,1,5.07,3.45,9.58,9.58,0,0,1,1.79,5.88,10.87,10.87,0,0,1-3.5,8.5,13.08,13.08,0,0,1-9.1,3.14,13.46,13.46,0,0,1-9.12-3,10.07,10.07,0,0,1-3.52-8h5.09a6.51,6.51,0,0,0,2.05,5A7.8,7.8,0,0,0,186,360a7.62,7.62,0,0,0,5.6-1.91,7.37,7.37,0,0,0,1.94-5.5,6.7,6.7,0,0,0-2.13-5.33,9.24,9.24,0,0,0-6.15-1.91h-3.8Z"/><path class="cls-2" d="M207.9,343.58l2-19.86h20.4v4.68h-16.1L213,339.26a12.85,12.85,0,0,1,6.65-1.73,11,11,0,0,1,8.64,3.6q3.19,3.6,3.2,9.72t-3.32,9.69q-3.33,3.54-9.29,3.54a12.57,12.57,0,0,1-8.61-2.92,11.7,11.7,0,0,1-3.8-8.1h4.78a8.07,8.07,0,0,0,2.44,5.16,7.54,7.54,0,0,0,5.19,1.73,6.84,6.84,0,0,0,5.54-2.4,10.08,10.08,0,0,0,2-6.65,9.22,9.22,0,0,0-2.17-6.41,7.42,7.42,0,0,0-5.79-2.42,8.38,8.38,0,0,0-5.19,1.45L212,344.61Z"/><path class="cls-2" d="M276.45,349.07q0,6.78-3.12,10.9a9.94,9.94,0,0,1-8.36,4.11,10.32,10.32,0,0,1-8.67-4l-.25,3.42H251.4v-42h5.06V337.2a10.27,10.27,0,0,1,8.45-3.8,10,10,0,0,1,8.47,4.08q3.08,4.06,3.07,11.15Zm-5.06-.57q0-5.17-2-8a6.63,6.63,0,0,0-5.75-2.81,7.43,7.43,0,0,0-7.19,4.65v12.79a7.64,7.64,0,0,0,7.25,4.65,6.58,6.58,0,0,0,5.66-2.82C270.72,355.1,271.39,352.27,271.39,348.5Z"/><path class="cls-2" d="M307.81,349.07q0,6.75-3.08,10.88a9.9,9.9,0,0,1-8.37,4.13,10.88,10.88,0,0,1-8.48-3.41v14.24h-5.06V334h4.62l.25,3.28a10.43,10.43,0,0,1,8.59-3.83,10.09,10.09,0,0,1,8.43,4q3.1,4,3.1,11.19Zm-5.05-.57q0-5-2.14-7.9a6.85,6.85,0,0,0-5.85-2.9,7.44,7.44,0,0,0-6.89,4.07v14.14a7.44,7.44,0,0,0,6.95,4,6.84,6.84,0,0,0,5.78-2.88Q302.76,354.19,302.76,348.5Z"/><path class="cls-2" d="M319,334l.14,3.28a10.91,10.91,0,0,1,8.77-3.83q6.21,0,8.45,4.76a11,11,0,0,1,9.44-4.76q9.72,0,9.89,10.31v19.83h-5.05V344a6.82,6.82,0,0,0-1.45-4.74q-1.45-1.57-4.87-1.57a6.72,6.72,0,0,0-4.68,1.68,6.81,6.81,0,0,0-2.16,4.52v19.64H332.4V344.15q0-6.45-6.32-6.45-5,0-6.81,4.24v21.6h-5.06V334Z"/><path d="M1216.93,291.69h4.82v3.88a11.87,11.87,0,0,1,3.23-3.09,10.46,10.46,0,0,1,5.87-1.64,11,11,0,0,1,8.47,3.82q3.48,3.81,3.48,10.89,0,9.57-5,13.68a11.41,11.41,0,0,1-7.41,2.59,10.07,10.07,0,0,1-5.58-1.45,12.6,12.6,0,0,1-2.93-2.81v14.95h-4.93Zm18.52,23c1.53-1.93,2.29-4.8,2.29-8.63a16.24,16.24,0,0,0-1-6,7,7,0,0,0-7-4.84q-5.13,0-7,5.12a20.06,20.06,0,0,0-1,6.94,14.6,14.6,0,0,0,1,5.77,7.47,7.47,0,0,0,12.77,1.66Z"/><path d="M1248.62,280.67h4.93v40.17h-4.93Z"/><path d="M1276.62,303.12a2.67,2.67,0,0,0,2.27-1.42,4.35,4.35,0,0,0,.33-1.9,4,4,0,0,0-1.78-3.66,9.57,9.57,0,0,0-5.12-1.14q-3.85,0-5.46,2.09a6.87,6.87,0,0,0-1.17,3.43h-4.6q.15-5.43,3.51-7.55a14.36,14.36,0,0,1,7.83-2.13,15.92,15.92,0,0,1,8.38,2,6.69,6.69,0,0,1,3.2,6.13v16.87a2.16,2.16,0,0,0,.31,1.23c.21.31.65.46,1.33.46a6.83,6.83,0,0,0,.74,0l.87-.12V321a16.42,16.42,0,0,1-1.75.41,13.8,13.8,0,0,1-1.64.08,4,4,0,0,1-3.69-1.81,7,7,0,0,1-.85-2.7,12.42,12.42,0,0,1-4.32,3.41,13.34,13.34,0,0,1-6.21,1.45,9.21,9.21,0,0,1-6.65-2.47,8.18,8.18,0,0,1-2.59-6.18,7.94,7.94,0,0,1,2.55-6.31,12,12,0,0,1,6.67-2.76Zm-10.36,13.29a5.78,5.78,0,0,0,3.69,1.23,11.21,11.21,0,0,0,5-1.2,6.76,6.76,0,0,0,4.11-6.53v-4a8.71,8.71,0,0,1-2.32,1,20.75,20.75,0,0,1-2.79.54l-3,.39a11.53,11.53,0,0,0-4,1.11,4.35,4.35,0,0,0-2.29,4.1A4,4,0,0,0,1266.26,316.41Z"/><path d="M1310.38,291.55h5.44q-1,2.82-4.62,12.86-2.68,7.56-4.48,12.31-4.26,11.2-6,13.66t-6,2.46a11,11,0,0,1-1.6-.08,10.7,10.7,0,0,1-1.38-.3V328a16.79,16.79,0,0,0,1.85.43,6.72,6.72,0,0,0,1,.09,3.51,3.51,0,0,0,2-.46,4,4,0,0,0,1.08-1.1c.09-.15.42-.89,1-2.24s1-2.35,1.23-3l-10.83-30.15h5.58l7.85,23.86Z"/><path class="cls-8" d="M1216.93,291.69h4.82v3.88a11.87,11.87,0,0,1,3.23-3.09,10.46,10.46,0,0,1,5.87-1.64,11,11,0,0,1,8.47,3.82q3.48,3.81,3.48,10.89,0,9.57-5,13.68a11.41,11.41,0,0,1-7.41,2.59,10.07,10.07,0,0,1-5.58-1.45,12.6,12.6,0,0,1-2.93-2.81v14.95h-4.93Zm18.52,23c1.53-1.93,2.29-4.8,2.29-8.63a16.24,16.24,0,0,0-1-6,7,7,0,0,0-7-4.84q-5.13,0-7,5.12a20.06,20.06,0,0,0-1,6.94,14.6,14.6,0,0,0,1,5.77,7.47,7.47,0,0,0,12.77,1.66Z"/><path class="cls-8" d="M1248.62,280.67h4.93v40.17h-4.93Z"/><path class="cls-8" d="M1276.62,303.12a2.67,2.67,0,0,0,2.27-1.42,4.35,4.35,0,0,0,.33-1.9,4,4,0,0,0-1.78-3.66,9.57,9.57,0,0,0-5.12-1.14q-3.85,0-5.46,2.09a6.87,6.87,0,0,0-1.17,3.43h-4.6q.15-5.43,3.51-7.55a14.36,14.36,0,0,1,7.83-2.13,15.92,15.92,0,0,1,8.38,2,6.69,6.69,0,0,1,3.2,6.13v16.87a2.16,2.16,0,0,0,.31,1.23c.21.31.65.46,1.33.46a6.83,6.83,0,0,0,.74,0l.87-.12V321a16.42,16.42,0,0,1-1.75.41,13.8,13.8,0,0,1-1.64.08,4,4,0,0,1-3.69-1.81,7,7,0,0,1-.85-2.7,12.42,12.42,0,0,1-4.32,3.41,13.34,13.34,0,0,1-6.21,1.45,9.21,9.21,0,0,1-6.65-2.47,8.18,8.18,0,0,1-2.59-6.18,7.94,7.94,0,0,1,2.55-6.31,12,12,0,0,1,6.67-2.76Zm-10.36,13.29a5.78,5.78,0,0,0,3.69,1.23,11.21,11.21,0,0,0,5-1.2,6.76,6.76,0,0,0,4.11-6.53v-4a8.71,8.71,0,0,1-2.32,1,20.75,20.75,0,0,1-2.79.54l-3,.39a11.53,11.53,0,0,0-4,1.11,4.35,4.35,0,0,0-2.29,4.1A4,4,0,0,0,1266.26,316.41Z"/><path class="cls-8" d="M1310.38,291.55h5.44q-1,2.82-4.62,12.86-2.68,7.56-4.48,12.31-4.26,11.2-6,13.66t-6,2.46a11,11,0,0,1-1.6-.08,10.7,10.7,0,0,1-1.38-.3V328a16.79,16.79,0,0,0,1.85.43,6.72,6.72,0,0,0,1,.09,3.51,3.51,0,0,0,2-.46,4,4,0,0,0,1.08-1.1c.09-.15.42-.89,1-2.24s1-2.35,1.23-3l-10.83-30.15h5.58l7.85,23.86Z"/><rect class="cls-9" x="1111.5" y="242.48" width="307.2" height="121.02" rx="13.82" ry="13.82"/><path class="cls-10" d="M1165.12,509h5.24v4.23a12.77,12.77,0,0,1,3.52-3.36,11.33,11.33,0,0,1,6.38-1.79,12,12,0,0,1,9.22,4.15q3.78,4.15,3.79,11.86,0,10.41-5.47,14.87a12.35,12.35,0,0,1-8.06,2.83,10.92,10.92,0,0,1-6.07-1.58,13.77,13.77,0,0,1-3.19-3.06v16.27h-5.36Zm20.15,25q2.49-3.13,2.49-9.39a17.55,17.55,0,0,0-1.1-6.54,7.63,7.63,0,0,0-7.65-5.27q-5.58,0-7.64,5.57a22.11,22.11,0,0,0-1.1,7.55,16.12,16.12,0,0,0,1.1,6.28,8.13,8.13,0,0,0,13.9,1.8Z"/><path class="cls-10" d="M1199.6,508.88h5.09v5.51a12.13,12.13,0,0,1,3.07-3.91,7.92,7.92,0,0,1,5.62-2.31l.51,0,1.22.12V514a8,8,0,0,0-.88-.12c-.27,0-.56,0-.88,0a7.64,7.64,0,0,0-6.22,2.61,9.05,9.05,0,0,0-2.17,6v18.33h-5.36Z"/><path class="cls-10" d="M1242.84,512.06q4.22,4.11,4.22,12.07,0,7.71-3.72,12.73c-2.48,3.35-6.34,5-11.55,5a13,13,0,0,1-10.37-4.44c-2.57-3-3.84-6.94-3.84-11.94q0-8,4-12.78A13.56,13.56,0,0,1,1232.5,508,14.31,14.31,0,0,1,1242.84,512.06Zm-3.33,21.18a20.27,20.27,0,0,0,2-9,16,16,0,0,0-1.42-7.25q-2.23-4.39-7.7-4.4a7.57,7.57,0,0,0-7.06,3.75,17.39,17.39,0,0,0-2.21,9,15.14,15.14,0,0,0,2.21,8.47q2.2,3.39,7,3.39Q1237.55,537.27,1239.51,533.24Z"/><path class="cls-10" d="M1274.69,510.58q3.38,2.63,4.06,9h-5.21a9.64,9.64,0,0,0-2.17-4.9q-1.69-2-5.45-2-5.12,0-7.31,5a19.71,19.71,0,0,0-1.43,8,15,15,0,0,0,2,8,7.86,7.86,0,0,0,11.65,1.24,11.09,11.09,0,0,0,2.69-5.56h5.21q-.9,6.35-4.46,9.27a13.9,13.9,0,0,1-9.14,2.93,12.19,12.19,0,0,1-10-4.57,17.45,17.45,0,0,1-3.72-11.41q0-8.38,4.08-13.06a13.19,13.19,0,0,1,10.38-4.67A13.89,13.89,0,0,1,1274.69,510.58Z"/><path class="cls-10" d="M1303.79,509.76a12.14,12.14,0,0,1,4.82,4.12,14.42,14.42,0,0,1,2.13,5.63,37.42,37.42,0,0,1,.47,7H1288a13.84,13.84,0,0,0,2.27,7.8q2.13,2.94,6.59,2.94a8.47,8.47,0,0,0,6.64-2.78,9.48,9.48,0,0,0,2-3.74h5.26a11.22,11.22,0,0,1-1.38,3.92,14.16,14.16,0,0,1-2.62,3.52,12.29,12.29,0,0,1-6,3.21,17.9,17.9,0,0,1-4.34.48,13.28,13.28,0,0,1-10-4.33c-2.74-2.88-4.11-6.93-4.11-12.12s1.38-9.28,4.14-12.47a13.63,13.63,0,0,1,10.82-4.79A14.4,14.4,0,0,1,1303.79,509.76Zm1.92,12.51a14,14,0,0,0-1.51-5.56q-2.17-3.87-7.29-3.87a8,8,0,0,0-6.13,2.66,10.11,10.11,0,0,0-2.63,6.77Z"/><path class="cls-10" d="M1321.18,530.75a7.65,7.65,0,0,0,1.36,4.11c1.38,1.72,3.77,2.59,7.17,2.59a10.64,10.64,0,0,0,5.34-1.3,4.27,4.27,0,0,0,2.31-4,3.4,3.4,0,0,0-1.84-3.12,22.3,22.3,0,0,0-4.66-1.52l-4.32-1.07a21.6,21.6,0,0,1-6.11-2.26,6.74,6.74,0,0,1-3.51-6,9.12,9.12,0,0,1,3.3-7.32q3.3-2.81,8.88-2.8,7.31,0,10.53,4.23a9.12,9.12,0,0,1,2,5.77h-5.06a6.07,6.07,0,0,0-1.31-3.29q-1.89-2.1-6.55-2.1a8,8,0,0,0-4.7,1.16,3.58,3.58,0,0,0-1.6,3,3.74,3.74,0,0,0,2.1,3.32,12.72,12.72,0,0,0,3.57,1.31l3.61.86c3.92.93,6.55,1.84,7.88,2.71q3.13,2.05,3.13,6.46a9.8,9.8,0,0,1-3.27,7.35q-3.27,3.09-10,3.09-7.2,0-10.19-3.23a12.1,12.1,0,0,1-3.21-8Z"/><path class="cls-10" d="M1351.64,530.75a7.74,7.74,0,0,0,1.37,4.11c1.38,1.72,3.77,2.59,7.17,2.59a10.67,10.67,0,0,0,5.34-1.3,4.27,4.27,0,0,0,2.31-4A3.41,3.41,0,0,0,1366,529a22.3,22.3,0,0,0-4.66-1.52l-4.33-1.07a21.52,21.52,0,0,1-6.1-2.26,6.74,6.74,0,0,1-3.51-6,9.12,9.12,0,0,1,3.3-7.32q3.3-2.81,8.88-2.8,7.31,0,10.52,4.23a9.06,9.06,0,0,1,2,5.77h-5a6.07,6.07,0,0,0-1.31-3.29q-1.89-2.1-6.55-2.1a8,8,0,0,0-4.71,1.16,3.61,3.61,0,0,0-1.6,3,3.73,3.73,0,0,0,2.11,3.32,12.6,12.6,0,0,0,3.57,1.31l3.61.86c3.92.93,6.55,1.84,7.88,2.71,2.08,1.37,3.13,3.52,3.13,6.46a9.8,9.8,0,0,1-3.27,7.35q-3.27,3.09-10,3.09-7.2,0-10.19-3.23a12.1,12.1,0,0,1-3.21-8Z"/><path class="cls-10" d="M1114.79,517.34,1098,546.4a2.29,2.29,0,0,1-4.21-1.68l4.41-18.59h-11.35a2.3,2.3,0,0,1-2.28-2.6l3.06-22.94a2.31,2.31,0,0,1,2.28-2h13.76a2.31,2.31,0,0,1,2.22,2.89l-4.07,12.4h11A2.3,2.3,0,0,1,1114.79,517.34Z"/><path class="cls-10" d="M761.17,509.87A14.44,14.44,0,0,1,764.4,513v-16.1h5.14v43.86h-4.82v-4.43a11.5,11.5,0,0,1-4.41,4.25,12.65,12.65,0,0,1-5.84,1.31,11.8,11.8,0,0,1-9.19-4.48q-3.88-4.47-3.88-11.91a20.63,20.63,0,0,1,3.54-12.07,11.58,11.58,0,0,1,10.12-5.1A11.2,11.2,0,0,1,761.17,509.87Zm-12,23.89q2.16,3.45,6.93,3.45a7.28,7.28,0,0,0,6.08-3.2q2.38-3.19,2.38-9.18c0-4-.81-7-2.45-8.94a7.66,7.66,0,0,0-6.07-2.9,8,8,0,0,0-6.53,3.09c-1.67,2.07-2.5,5.1-2.5,9.11A15.87,15.87,0,0,0,749.21,533.76Z"/><path class="cls-10" d="M797.23,509.76a12.08,12.08,0,0,1,4.82,4.12,14.12,14.12,0,0,1,2.13,5.63,36.57,36.57,0,0,1,.47,7H781.48a13.68,13.68,0,0,0,2.27,7.8q2.13,2.94,6.58,2.94a8.45,8.45,0,0,0,6.64-2.78,9.35,9.35,0,0,0,2-3.74h5.27a11.06,11.06,0,0,1-1.39,3.92,13.92,13.92,0,0,1-2.62,3.52,12.26,12.26,0,0,1-6,3.21,18,18,0,0,1-4.34.48,13.29,13.29,0,0,1-10-4.33c-2.74-2.88-4.11-6.93-4.11-12.12s1.38-9.28,4.14-12.47a13.64,13.64,0,0,1,10.83-4.79A14.39,14.39,0,0,1,797.23,509.76Zm1.92,12.51a14,14,0,0,0-1.51-5.56q-2.17-3.87-7.28-3.87a8.06,8.06,0,0,0-6.14,2.66,10.15,10.15,0,0,0-2.63,6.77Z"/><path class="cls-10" d="M814.62,530.75a7.65,7.65,0,0,0,1.37,4.11c1.37,1.72,3.76,2.59,7.16,2.59a10.68,10.68,0,0,0,5.35-1.3,4.27,4.27,0,0,0,2.31-4A3.41,3.41,0,0,0,829,529a22.15,22.15,0,0,0-4.65-1.52L820,526.44a21.6,21.6,0,0,1-6.11-2.26,6.75,6.75,0,0,1-3.5-6,9.12,9.12,0,0,1,3.3-7.32q3.3-2.81,8.88-2.8,7.29,0,10.52,4.23a9.06,9.06,0,0,1,2,5.77H830a6,6,0,0,0-1.31-3.29c-1.25-1.4-3.44-2.1-6.54-2.1a8,8,0,0,0-4.71,1.16,3.58,3.58,0,0,0-1.6,3,3.74,3.74,0,0,0,2.1,3.32,12.68,12.68,0,0,0,3.58,1.31l3.61.86c3.92.93,6.54,1.84,7.88,2.71q3.12,2.05,3.12,6.46a9.8,9.8,0,0,1-3.27,7.35q-3.26,3.09-10,3.09-7.2,0-10.2-3.23a12.1,12.1,0,0,1-3.21-8Z"/><path class="cls-10" d="M841.91,497h5.44v6.07h-5.44Zm0,12h5.44v31.72h-5.44Z"/><path class="cls-10" d="M873.16,510.16a14.83,14.83,0,0,1,3.08,3v-4h4.94v29q0,6.08-1.78,9.58-3.31,6.5-12.54,6.49a15.32,15.32,0,0,1-8.63-2.31,9,9,0,0,1-3.92-7.21h5.45a6,6,0,0,0,1.54,3.3q1.8,1.79,5.68,1.78,6.12,0,8-4.34,1.13-2.57,1-9.13a10.54,10.54,0,0,1-3.85,3.63,13.76,13.76,0,0,1-15-2.49q-3.87-3.68-3.87-12.15,0-8,3.9-12.5a12,12,0,0,1,9.41-4.49A11.54,11.54,0,0,1,873.16,510.16Zm.65,5.75a7.73,7.73,0,0,0-6.18-2.86,7.65,7.65,0,0,0-7.7,5.3,20.81,20.81,0,0,0-1.1,7.4c0,3.59.73,6.33,2.18,8.2a7,7,0,0,0,5.85,2.81,8.2,8.2,0,0,0,8.08-5.2,16.89,16.89,0,0,0,1.3-6.88C876.24,520.74,875.43,517.81,873.81,515.91Z"/><path class="cls-10" d="M889.33,508.88h5.09v4.53a14.17,14.17,0,0,1,4.79-4,12.83,12.83,0,0,1,5.62-1.22q6.79,0,9.17,4.73a16.87,16.87,0,0,1,1.31,7.41v20.44h-5.45V520.67A10.93,10.93,0,0,0,909,516a5.23,5.23,0,0,0-5.18-3,10.41,10.41,0,0,0-3.12.39,8,8,0,0,0-3.87,2.62,7.91,7.91,0,0,0-1.74,3.25,21.87,21.87,0,0,0-.4,4.81v16.69h-5.36Z"/><path class="cls-10" d="M683.7,527.09v13.77a1.53,1.53,0,0,1-1.53,1.52h-3.06a1.53,1.53,0,0,1-1.53-1.52V527.09a21.42,21.42,0,0,1-21.41-21.41h6.12A21.41,21.41,0,0,1,683.7,527.09Zm21.41-27.53a21.42,21.42,0,0,1-19.18,21.3,24.5,24.5,0,0,0-5.64-10.29,21.39,21.39,0,0,1,18.71-11Z"/><path d="M265.25,530.82a7.65,7.65,0,0,0,1.37,4.1q2.06,2.6,7.16,2.59a10.78,10.78,0,0,0,5.35-1.29,4.28,4.28,0,0,0,2.31-4,3.43,3.43,0,0,0-1.85-3.13,22.31,22.31,0,0,0-4.65-1.51l-4.33-1.08a21,21,0,0,1-6.11-2.26,6.75,6.75,0,0,1-3.5-6,9.15,9.15,0,0,1,3.3-7.32q3.3-2.79,8.88-2.79,7.29,0,10.52,4.22a9.08,9.08,0,0,1,2,5.77H280.6a6.07,6.07,0,0,0-1.31-3.28c-1.25-1.4-3.44-2.1-6.54-2.1a8,8,0,0,0-4.71,1.15,3.6,3.6,0,0,0-1.6,3.06,3.75,3.75,0,0,0,2.1,3.32,12.71,12.71,0,0,0,3.58,1.3l3.61.87c3.92.93,6.54,1.83,7.88,2.71,2.08,1.36,3.12,3.52,3.12,6.45a9.77,9.77,0,0,1-3.27,7.35q-3.25,3.09-9.95,3.1-7.2,0-10.2-3.23a12.12,12.12,0,0,1-3.21-8Z"/><path d="M312.22,509.83A12.07,12.07,0,0,1,317,514a14.38,14.38,0,0,1,2.13,5.62,37.56,37.56,0,0,1,.47,7H296.46a13.77,13.77,0,0,0,2.28,7.81c1.41,2,3.61,2.93,6.58,2.93a8.44,8.44,0,0,0,6.64-2.78,9.44,9.44,0,0,0,2-3.73h5.26a11,11,0,0,1-1.38,3.91,14.22,14.22,0,0,1-2.62,3.53,12.46,12.46,0,0,1-6,3.21,17.9,17.9,0,0,1-4.34.48,13.32,13.32,0,0,1-10-4.33q-4.11-4.33-4.11-12.13T294.86,513a13.6,13.6,0,0,1,10.82-4.79A14.4,14.4,0,0,1,312.22,509.83Zm1.92,12.51a14,14,0,0,0-1.51-5.57q-2.17-3.85-7.29-3.86a8,8,0,0,0-6.13,2.66,10.09,10.09,0,0,0-2.63,6.77Z"/><path d="M344.4,510.23a11.69,11.69,0,0,1,2.85,3.15V509h5.06v44.57H347V537.16a9.58,9.58,0,0,1-3.7,3.4,12.28,12.28,0,0,1-5.89,1.27,12.59,12.59,0,0,1-9.1-4q-4-4-4-12.14,0-7.65,3.76-12.56a11.72,11.72,0,0,1,9.73-4.9A10.89,10.89,0,0,1,344.4,510.23Zm-13.4,22a7.38,7.38,0,0,0,7.34,5A7.67,7.67,0,0,0,346,532a19.86,19.86,0,0,0,1.16-7.38,16.45,16.45,0,0,0-1.27-6.9,7.73,7.73,0,0,0-7.64-4.73,7.44,7.44,0,0,0-5.95,3c-1.66,2-2.48,5.12-2.48,9.32A18.28,18.28,0,0,0,331,532.25Z"/><path d="M365.67,509V530.1a9.16,9.16,0,0,0,.75,4q1.4,2.86,5.19,2.86a7.34,7.34,0,0,0,7.42-5,20.47,20.47,0,0,0,1.07-7.35V509h5.36v31.87H380.4l.06-4.71a10.92,10.92,0,0,1-2.54,3.07,11,11,0,0,1-7.3,2.5q-6.69,0-9.11-4.55a13.74,13.74,0,0,1-1.32-6.52V509Z"/><path d="M413.89,509.83a12.13,12.13,0,0,1,4.82,4.12,14.21,14.21,0,0,1,2.12,5.62,36.51,36.51,0,0,1,.48,7H398.13a13.85,13.85,0,0,0,2.27,7.81c1.42,2,3.61,2.93,6.59,2.93a8.44,8.44,0,0,0,6.64-2.78,9.57,9.57,0,0,0,2-3.73h5.26a11.17,11.17,0,0,1-1.38,3.91,14.47,14.47,0,0,1-2.62,3.53,12.5,12.5,0,0,1-6,3.21,18,18,0,0,1-4.34.48,13.32,13.32,0,0,1-10-4.33q-4.11-4.33-4.11-12.13T396.53,513a13.59,13.59,0,0,1,10.82-4.79A14.4,14.4,0,0,1,413.89,509.83Zm1.91,12.51a14,14,0,0,0-1.5-5.57q-2.19-3.85-7.29-3.86a8,8,0,0,0-6.14,2.66,10.13,10.13,0,0,0-2.62,6.77Z"/><path d="M428.09,509h5.09v4.52a14.24,14.24,0,0,1,4.79-4,12.69,12.69,0,0,1,5.62-1.22q6.8,0,9.17,4.73a16.81,16.81,0,0,1,1.31,7.41v20.44h-5.45V520.73a11,11,0,0,0-.86-4.7,5.23,5.23,0,0,0-5.18-3,10.45,10.45,0,0,0-3.12.38,8.06,8.06,0,0,0-3.87,2.62,7.94,7.94,0,0,0-1.74,3.26,21.77,21.77,0,0,0-.4,4.8v16.7h-5.36Z"/><path d="M483,510.65q3.38,2.61,4.06,9h-5.2a9.65,9.65,0,0,0-2.18-4.89q-1.69-1.95-5.44-1.95-5.11,0-7.32,5a19.83,19.83,0,0,0-1.43,8,15.13,15.13,0,0,0,2,8.06,7.86,7.86,0,0,0,11.65,1.24,11.22,11.22,0,0,0,2.7-5.56h5.2q-.88,6.33-4.46,9.27a14,14,0,0,1-9.13,2.93,12.18,12.18,0,0,1-10-4.57,17.47,17.47,0,0,1-3.72-11.41q0-8.38,4.07-13.06A13.16,13.16,0,0,1,474.27,508,13.86,13.86,0,0,1,483,510.65Z"/><path d="M512.13,509.83A12,12,0,0,1,517,514a14.07,14.07,0,0,1,2.13,5.62,36.71,36.71,0,0,1,.47,7H496.38a13.69,13.69,0,0,0,2.27,7.81q2.13,2.93,6.58,2.93a8.42,8.42,0,0,0,6.64-2.78,9.44,9.44,0,0,0,2-3.73h5.27a11,11,0,0,1-1.39,3.91,14,14,0,0,1-2.62,3.53,12.42,12.42,0,0,1-6,3.21,18,18,0,0,1-4.34.48,13.32,13.32,0,0,1-10-4.33q-4.11-4.33-4.11-12.13T494.77,513a13.61,13.61,0,0,1,10.83-4.79A14.39,14.39,0,0,1,512.13,509.83Zm1.92,12.51a14,14,0,0,0-1.51-5.57q-2.17-3.85-7.28-3.86a8,8,0,0,0-6.14,2.66,10.13,10.13,0,0,0-2.63,6.77Z"/><path class="cls-11" d="M265.25,530.82a7.65,7.65,0,0,0,1.37,4.1q2.06,2.6,7.16,2.59a10.78,10.78,0,0,0,5.35-1.29,4.28,4.28,0,0,0,2.31-4,3.43,3.43,0,0,0-1.85-3.13,22.31,22.31,0,0,0-4.65-1.51l-4.33-1.08a21,21,0,0,1-6.11-2.26,6.75,6.75,0,0,1-3.5-6,9.15,9.15,0,0,1,3.3-7.32q3.3-2.79,8.88-2.79,7.29,0,10.52,4.22a9.08,9.08,0,0,1,2,5.77H280.6a6.07,6.07,0,0,0-1.31-3.28c-1.25-1.4-3.44-2.1-6.54-2.1a8,8,0,0,0-4.71,1.15,3.6,3.6,0,0,0-1.6,3.06,3.75,3.75,0,0,0,2.1,3.32,12.71,12.71,0,0,0,3.58,1.3l3.61.87c3.92.93,6.54,1.83,7.88,2.71,2.08,1.36,3.12,3.52,3.12,6.45a9.77,9.77,0,0,1-3.27,7.35q-3.25,3.09-9.95,3.1-7.2,0-10.2-3.23a12.12,12.12,0,0,1-3.21-8Z"/><path class="cls-11" d="M312.22,509.83A12.07,12.07,0,0,1,317,514a14.38,14.38,0,0,1,2.13,5.62,37.56,37.56,0,0,1,.47,7H296.46a13.77,13.77,0,0,0,2.28,7.81c1.41,2,3.61,2.93,6.58,2.93a8.44,8.44,0,0,0,6.64-2.78,9.44,9.44,0,0,0,2-3.73h5.26a11,11,0,0,1-1.38,3.91,14.22,14.22,0,0,1-2.62,3.53,12.46,12.46,0,0,1-6,3.21,17.9,17.9,0,0,1-4.34.48,13.32,13.32,0,0,1-10-4.33q-4.11-4.33-4.11-12.13T294.86,513a13.6,13.6,0,0,1,10.82-4.79A14.4,14.4,0,0,1,312.22,509.83Zm1.92,12.51a14,14,0,0,0-1.51-5.57q-2.17-3.85-7.29-3.86a8,8,0,0,0-6.13,2.66,10.09,10.09,0,0,0-2.63,6.77Z"/><path class="cls-11" d="M344.4,510.23a11.69,11.69,0,0,1,2.85,3.15V509h5.06v44.57H347V537.16a9.58,9.58,0,0,1-3.7,3.4,12.28,12.28,0,0,1-5.89,1.27,12.59,12.59,0,0,1-9.1-4q-4-4-4-12.14,0-7.65,3.76-12.56a11.72,11.72,0,0,1,9.73-4.9A10.89,10.89,0,0,1,344.4,510.23Zm-13.4,22a7.38,7.38,0,0,0,7.34,5A7.67,7.67,0,0,0,346,532a19.86,19.86,0,0,0,1.16-7.38,16.45,16.45,0,0,0-1.27-6.9,7.73,7.73,0,0,0-7.64-4.73,7.44,7.44,0,0,0-5.95,3c-1.66,2-2.48,5.12-2.48,9.32A18.28,18.28,0,0,0,331,532.25Z"/><path class="cls-11" d="M365.67,509V530.1a9.16,9.16,0,0,0,.75,4q1.4,2.86,5.19,2.86a7.34,7.34,0,0,0,7.42-5,20.47,20.47,0,0,0,1.07-7.35V509h5.36v31.87H380.4l.06-4.71a10.92,10.92,0,0,1-2.54,3.07,11,11,0,0,1-7.3,2.5q-6.69,0-9.11-4.55a13.74,13.74,0,0,1-1.32-6.52V509Z"/><path class="cls-11" d="M413.89,509.83a12.13,12.13,0,0,1,4.82,4.12,14.21,14.21,0,0,1,2.12,5.62,36.51,36.51,0,0,1,.48,7H398.13a13.85,13.85,0,0,0,2.27,7.81c1.42,2,3.61,2.93,6.59,2.93a8.44,8.44,0,0,0,6.64-2.78,9.57,9.57,0,0,0,2-3.73h5.26a11.17,11.17,0,0,1-1.38,3.91,14.47,14.47,0,0,1-2.62,3.53,12.5,12.5,0,0,1-6,3.21,18,18,0,0,1-4.34.48,13.32,13.32,0,0,1-10-4.33q-4.11-4.33-4.11-12.13T396.53,513a13.59,13.59,0,0,1,10.82-4.79A14.4,14.4,0,0,1,413.89,509.83Zm1.91,12.51a14,14,0,0,0-1.5-5.57q-2.19-3.85-7.29-3.86a8,8,0,0,0-6.14,2.66,10.13,10.13,0,0,0-2.62,6.77Z"/><path class="cls-11" d="M428.09,509h5.09v4.52a14.24,14.24,0,0,1,4.79-4,12.69,12.69,0,0,1,5.62-1.22q6.8,0,9.17,4.73a16.81,16.81,0,0,1,1.31,7.41v20.44h-5.45V520.73a11,11,0,0,0-.86-4.7,5.23,5.23,0,0,0-5.18-3,10.45,10.45,0,0,0-3.12.38,8.06,8.06,0,0,0-3.87,2.62,7.94,7.94,0,0,0-1.74,3.26,21.77,21.77,0,0,0-.4,4.8v16.7h-5.36Z"/><path class="cls-11" d="M483,510.65q3.38,2.61,4.06,9h-5.2a9.65,9.65,0,0,0-2.18-4.89q-1.69-1.95-5.44-1.95-5.11,0-7.32,5a19.83,19.83,0,0,0-1.43,8,15.13,15.13,0,0,0,2,8.06,7.86,7.86,0,0,0,11.65,1.24,11.22,11.22,0,0,0,2.7-5.56h5.2q-.88,6.33-4.46,9.27a14,14,0,0,1-9.13,2.93,12.18,12.18,0,0,1-10-4.57,17.47,17.47,0,0,1-3.72-11.41q0-8.38,4.07-13.06A13.16,13.16,0,0,1,474.27,508,13.86,13.86,0,0,1,483,510.65Z"/><path class="cls-11" d="M512.13,509.83A12,12,0,0,1,517,514a14.07,14.07,0,0,1,2.13,5.62,36.71,36.71,0,0,1,.47,7H496.38a13.69,13.69,0,0,0,2.27,7.81q2.13,2.93,6.58,2.93a8.42,8.42,0,0,0,6.64-2.78,9.44,9.44,0,0,0,2-3.73h5.27a11,11,0,0,1-1.39,3.91,14,14,0,0,1-2.62,3.53,12.42,12.42,0,0,1-6,3.21,18,18,0,0,1-4.34.48,13.32,13.32,0,0,1-10-4.33q-4.11-4.33-4.11-12.13T494.77,513a13.61,13.61,0,0,1,10.83-4.79A14.39,14.39,0,0,1,512.13,509.83Zm1.92,12.51a14,14,0,0,0-1.51-5.57q-2.17-3.85-7.28-3.86a8,8,0,0,0-6.14,2.66,10.13,10.13,0,0,0-2.63,6.77Z"/><path d="M208.86,541.19H172.62v-5.27a9.05,9.05,0,0,1,5-8.1l6.49-3.24a6,6,0,0,0,3-4.87V514l-2.51,1.26a3.13,3.13,0,0,0-1.42,1.77l-1.34,5.36a1.5,1.5,0,0,1-.81.93l-3.35,1.34a1.49,1.49,0,0,1-.51.1,1.51,1.51,0,0,1-.55-.12l-6.82-3a1.47,1.47,0,0,1-.81-1.24V502.46a2.72,2.72,0,0,1,.8-1.93l1-1-1.61-3.22a2.3,2.3,0,0,1-.2-.86h0a1.36,1.36,0,0,1,1.36-1.36h16.76a21.74,21.74,0,0,1,21.74,21.75Zm3.63,3.18v2.71a1.36,1.36,0,0,1-1.36,1.36H170.36a1.36,1.36,0,0,1-1.36-1.36v-2.71a1.36,1.36,0,0,1,1.36-1.36h40.77A1.36,1.36,0,0,1,212.49,544.37Zm-39.87-37.15a2.27,2.27,0,1,0,2.27-2.27A2.27,2.27,0,0,0,172.62,507.22Z"/><path class="cls-12" d="M208.86,541.19H172.62v-5.27a9.05,9.05,0,0,1,5-8.1l6.49-3.24a6,6,0,0,0,3-4.87V514l-2.51,1.26a3.13,3.13,0,0,0-1.42,1.77l-1.34,5.36a1.5,1.5,0,0,1-.81.93l-3.35,1.34a1.49,1.49,0,0,1-.51.1,1.51,1.51,0,0,1-.55-.12l-6.82-3a1.47,1.47,0,0,1-.81-1.24V502.46a2.72,2.72,0,0,1,.8-1.93l1-1-1.61-3.22a2.3,2.3,0,0,1-.2-.86h0a1.36,1.36,0,0,1,1.36-1.36h16.76a21.74,21.74,0,0,1,21.74,21.75Zm3.63,3.18v2.71a1.36,1.36,0,0,1-1.36,1.36H170.36a1.36,1.36,0,0,1-1.36-1.36v-2.71a1.36,1.36,0,0,1,1.36-1.36h40.77A1.36,1.36,0,0,1,212.49,544.37Zm-39.87-37.15a2.27,2.27,0,1,0,2.27-2.27A2.27,2.27,0,0,0,172.62,507.22Z"/></g><g id="Track_Selector_-_copie" data-name="Track Selector - copie"><path d="M641.66,2915.44a18.38,18.38,0,0,1-4.06-12.06h6.67c.29,3.29.9,5.68,1.85,7.18q2.49,4,9,4a11.8,11.8,0,0,0,8.1-2.7,8.85,8.85,0,0,0,3-7q0-5.26-3.21-7.36t-8.94-2.09c-.42,0-.85,0-1.29,0l-1.33.05v-5.65c.66.07,1.22.12,1.67.14s.93,0,1.45,0a13.34,13.34,0,0,0,5.9-1.14q4.05-2,4-7.1a6.92,6.92,0,0,0-2.7-5.86,10,10,0,0,0-6.29-2.06q-6.39,0-8.84,4.26a14.79,14.79,0,0,0-1.53,6.68h-6.32a19.19,19.19,0,0,1,2.27-9.67q3.9-7.1,13.75-7.1,7.77,0,12,3.46t4.26,10a11.21,11.21,0,0,1-2.52,7.6,10.46,10.46,0,0,1-4,2.84,11.06,11.06,0,0,1,6.27,4.25,12.86,12.86,0,0,1,2.26,7.69,15.66,15.66,0,0,1-4.8,11.86q-4.8,4.59-13.61,4.59Q645.74,2920.4,641.66,2915.44Z"/><path class="cls-13" d="M641.66,2915.44a18.38,18.38,0,0,1-4.06-12.06h6.67c.29,3.29.9,5.68,1.85,7.18q2.49,4,9,4a11.8,11.8,0,0,0,8.1-2.7,8.85,8.85,0,0,0,3-7q0-5.26-3.21-7.36t-8.94-2.09c-.42,0-.85,0-1.29,0l-1.33.05v-5.65c.66.07,1.22.12,1.67.14s.93,0,1.45,0a13.34,13.34,0,0,0,5.9-1.14q4.05-2,4-7.1a6.92,6.92,0,0,0-2.7-5.86,10,10,0,0,0-6.29-2.06q-6.39,0-8.84,4.26a14.79,14.79,0,0,0-1.53,6.68h-6.32a19.19,19.19,0,0,1,2.27-9.67q3.9-7.1,13.75-7.1,7.77,0,12,3.46t4.26,10a11.21,11.21,0,0,1-2.52,7.6,10.46,10.46,0,0,1-4,2.84,11.06,11.06,0,0,1,6.27,4.25,12.86,12.86,0,0,1,2.26,7.69,15.66,15.66,0,0,1-4.8,11.86q-4.8,4.59-13.61,4.59Q645.74,2920.4,641.66,2915.44Z"/><rect class="cls-14" x="553.01" y="2787" width="206" height="206" rx="25.16" ry="25.16"/><path d="M408.22,2907.17q2.46-5.05,9.57-9.18l7.08-4.09a33.42,33.42,0,0,0,6.68-4.73,10.33,10.33,0,0,0,.25-14.35,10.06,10.06,0,0,0-7.37-2.71q-6.82,0-9.44,5.17a18.7,18.7,0,0,0-1.55,7.69h-6.75a23.79,23.79,0,0,1,2.55-11.24q4.31-7.67,15.23-7.67,9.06,0,13.25,4.9a16.42,16.42,0,0,1,4.19,10.92,14.85,14.85,0,0,1-4.46,10.84q-2.58,2.61-9.26,6.34l-5.05,2.8a33.24,33.24,0,0,0-5.68,3.8,13.83,13.83,0,0,0-4.65,7.12h28.84v6.27H405.4A31,31,0,0,1,408.22,2907.17Z"/><path class="cls-15" d="M408.22,2907.17q2.46-5.05,9.57-9.18l7.08-4.09a33.42,33.42,0,0,0,6.68-4.73,10.33,10.33,0,0,0,.25-14.35,10.06,10.06,0,0,0-7.37-2.71q-6.82,0-9.44,5.17a18.7,18.7,0,0,0-1.55,7.69h-6.75a23.79,23.79,0,0,1,2.55-11.24q4.31-7.67,15.23-7.67,9.06,0,13.25,4.9a16.42,16.42,0,0,1,4.19,10.92,14.85,14.85,0,0,1-4.46,10.84q-2.58,2.61-9.26,6.34l-5.05,2.8a33.24,33.24,0,0,0-5.68,3.8,13.83,13.83,0,0,0-4.65,7.12h28.84v6.27H405.4A31,31,0,0,1,408.22,2907.17Z"/><path d="M178.27,2881.66v-5.09q7.18-.71,10-2.34c1.89-1.1,3.31-3.69,4.24-7.77h5.24v52.59H190.7v-37.39Z"/><path class="cls-15" d="M178.27,2881.66v-5.09q7.18-.71,10-2.34c1.89-1.1,3.31-3.69,4.24-7.77h5.24v52.59H190.7v-37.39Z"/><path d="M892.06,2920.05v-12.91H868.9v-6.49l24.19-33.55h5.61v34.25h7.78v5.79H898.7v12.91Zm-.11-18.7v-24l-16.92,24Z"/><path class="cls-15" d="M892.06,2920.05v-12.91H868.9v-6.49l24.19-33.55h5.61v34.25h7.78v5.79H898.7v12.91Zm-.11-18.7v-24l-16.92,24Z"/><path d="M1108.29,2907.09q.66,5.67,5.27,7.85a12.67,12.67,0,0,0,5.46,1.11q5.89,0,8.74-3.76a13.55,13.55,0,0,0,2.84-8.34c0-3.68-1.13-6.54-3.38-8.55a11.68,11.68,0,0,0-8.09-3,12.22,12.22,0,0,0-5.88,1.33,12.71,12.71,0,0,0-4.19,3.69l-5.75-.33,4-28.43h27.43V2875h-22.45l-2.25,14.68a16.51,16.51,0,0,1,3.5-2.1,17.81,17.81,0,0,1,6.82-1.22,17.46,17.46,0,0,1,12.32,4.68,15.5,15.5,0,0,1,5,11.88,20.35,20.35,0,0,1-4.63,13.2q-4.62,5.72-14.77,5.71a18.82,18.82,0,0,1-11.41-3.63q-4.95-3.63-5.55-11.15Z"/><path class="cls-15" d="M1108.29,2907.09q.66,5.67,5.27,7.85a12.67,12.67,0,0,0,5.46,1.11q5.89,0,8.74-3.76a13.55,13.55,0,0,0,2.84-8.34c0-3.68-1.13-6.54-3.38-8.55a11.68,11.68,0,0,0-8.09-3,12.22,12.22,0,0,0-5.88,1.33,12.71,12.71,0,0,0-4.19,3.69l-5.75-.33,4-28.43h27.43V2875h-22.45l-2.25,14.68a16.51,16.51,0,0,1,3.5-2.1,17.81,17.81,0,0,1,6.82-1.22,17.46,17.46,0,0,1,12.32,4.68,15.5,15.5,0,0,1,5,11.88,20.35,20.35,0,0,1-4.63,13.2q-4.62,5.72-14.77,5.71a18.82,18.82,0,0,1-11.41-3.63q-4.95-3.63-5.55-11.15Z"/><path d="M1365.35,2872.61a15.46,15.46,0,0,1,3.49,9.46h-6.57a12,12,0,0,0-1.88-4.9c-1.6-2.22-4-3.32-7.26-3.32q-5.57,0-8.85,5.14t-3.65,14.73a14.4,14.4,0,0,1,5.75-5,16.5,16.5,0,0,1,7.08-1.48,17.26,17.26,0,0,1,11.58,4.24q4.93,4.25,4.94,12.65a19.2,19.2,0,0,1-4.68,12.74q-4.69,5.55-13.35,5.55a17.12,17.12,0,0,1-12.8-5.62q-5.39-5.62-5.38-18.94a50.88,50.88,0,0,1,2.4-16.7Q1340.78,2868,1353,2868,1361.87,2868,1365.35,2872.61Zm-5,40.38a13.58,13.58,0,0,0,2.6-8.32,14.2,14.2,0,0,0-2.32-7.72q-2.33-3.67-8.44-3.67a11,11,0,0,0-7.51,2.84q-3.23,2.84-3.22,8.55a12.44,12.44,0,0,0,2.93,8.43,10.15,10.15,0,0,0,8.13,3.41Q1357.78,2916.51,1360.37,2913Z"/><path class="cls-15" d="M1365.35,2872.61a15.46,15.46,0,0,1,3.49,9.46h-6.57a12,12,0,0,0-1.88-4.9c-1.6-2.22-4-3.32-7.26-3.32q-5.57,0-8.85,5.14t-3.65,14.73a14.4,14.4,0,0,1,5.75-5,16.5,16.5,0,0,1,7.08-1.48,17.26,17.26,0,0,1,11.58,4.24q4.93,4.25,4.94,12.65a19.2,19.2,0,0,1-4.68,12.74q-4.69,5.55-13.35,5.55a17.12,17.12,0,0,1-12.8-5.62q-5.39-5.62-5.38-18.94a50.88,50.88,0,0,1,2.4-16.7Q1340.78,2868,1353,2868,1361.87,2868,1365.35,2872.61Zm-5,40.38a13.58,13.58,0,0,0,2.6-8.32,14.2,14.2,0,0,0-2.32-7.72q-2.33-3.67-8.44-3.67a11,11,0,0,0-7.51,2.84q-3.23,2.84-3.22,8.55a12.44,12.44,0,0,0,2.93,8.43,10.15,10.15,0,0,0,8.13,3.41Q1357.78,2916.51,1360.37,2913Z"/></g><g id="Sequence_-_copie" data-name="Sequence - copie"><line class="cls-16" x1="254.09" y1="1238.41" x2="254.09" y2="1266.5"/><path class="cls-17" d="M256.79,1289.59l10.31-17.87a3.22,3.22,0,0,0-2.79-4.83H243.69a3.22,3.22,0,0,0-2.79,4.83l10.31,17.87A3.23,3.23,0,0,0,256.79,1289.59Z"/><line class="cls-16" x1="599.42" y1="1238.41" x2="599.42" y2="1266.5"/><path class="cls-17" d="M602.12,1289.59l10.32-17.87a3.22,3.22,0,0,0-2.79-4.83H589a3.22,3.22,0,0,0-2.79,4.83l10.31,17.87A3.23,3.23,0,0,0,602.12,1289.59Z"/><line class="cls-16" x1="944.75" y1="1238.41" x2="944.75" y2="1266.5"/><path class="cls-17" d="M947.46,1289.59l10.31-17.87a3.22,3.22,0,0,0-2.79-4.83H934.35a3.22,3.22,0,0,0-2.79,4.83l10.32,17.87A3.23,3.23,0,0,0,947.46,1289.59Z"/><line class="cls-16" x1="1290.09" y1="1238.41" x2="1290.09" y2="1266.5"/><path class="cls-17" d="M1292.79,1289.59l10.31-17.87a3.22,3.22,0,0,0-2.79-4.83h-20.62a3.22,3.22,0,0,0-2.79,4.83l10.31,17.87A3.23,3.23,0,0,0,1292.79,1289.59Z"/><path class="cls-17" d="M1245.5,1185.62h4.26v3.64a14.53,14.53,0,0,1,2.77-2.76,8.37,8.37,0,0,1,4.84-1.46,7.61,7.61,0,0,1,4.92,1.51,7.9,7.9,0,0,1,1.92,2.54,8.94,8.94,0,0,1,7.73-4c3.44,0,5.79,1.25,7,3.74a12.19,12.19,0,0,1,1,5.4v17.06h-4.47v-17.8c0-1.7-.43-2.88-1.28-3.51a5,5,0,0,0-3.12-1,6.18,6.18,0,0,0-4.37,1.7q-1.83,1.69-1.83,5.67v14.9h-4.38v-16.72a8.65,8.65,0,0,0-.62-3.81c-.65-1.19-1.87-1.79-3.66-1.79a6.31,6.31,0,0,0-4.44,1.89q-2,1.89-2,6.84v13.59h-4.3Z"/><path class="cls-17" d="M1304.88,1188.18q3.4,3.3,3.4,9.7a16.74,16.74,0,0,1-3,10.23q-3,4-9.29,4a10.47,10.47,0,0,1-8.34-3.57q-3.09-3.57-3.09-9.6,0-6.45,3.25-10.28a10.9,10.9,0,0,1,8.75-3.82A11.46,11.46,0,0,1,1304.88,1188.18Zm-2.67,17a16.26,16.26,0,0,0,1.57-7.21,13,13,0,0,0-1.13-5.83,6.38,6.38,0,0,0-6.2-3.54,6.1,6.1,0,0,0-5.68,3,14.11,14.11,0,0,0-1.77,7.27,12.27,12.27,0,0,0,1.77,6.81,6.21,6.21,0,0,0,5.63,2.72Q1300.63,1208.44,1302.21,1205.21Z"/><path class="cls-17" d="M1327.65,1186.41a11.55,11.55,0,0,1,2.59,2.51V1176h4.14v35.26h-3.87v-3.56a9.31,9.31,0,0,1-3.55,3.42,10.2,10.2,0,0,1-4.7,1.05,9.5,9.5,0,0,1-7.39-3.6q-3.12-3.6-3.12-9.58a16.57,16.57,0,0,1,2.85-9.7,9.31,9.31,0,0,1,8.14-4.11A9.06,9.06,0,0,1,1327.65,1186.41Zm-9.62,19.21a6.09,6.09,0,0,0,5.57,2.78,5.83,5.83,0,0,0,4.89-2.58q1.92-2.57,1.92-7.38t-2-7.19a6.18,6.18,0,0,0-4.89-2.33,6.42,6.42,0,0,0-5.24,2.49q-2,2.49-2,7.32A12.74,12.74,0,0,0,1318,1205.62Z"/><rect class="cls-16" x="1183.58" y="1149" width="212.85" height="90" rx="15.94" ry="15.94"/><rect class="cls-18" x="282" y="1432" width="215.6" height="215.6" rx="34.34" ry="34.34"/><rect class="cls-19" x="536.8" y="1432" width="215.6" height="215.6" rx="34.34" ry="34.34"/><rect class="cls-19" x="791.6" y="1432" width="215.6" height="215.6" rx="34.34" ry="34.34"/><rect class="cls-19" x="1046.4" y="1432" width="215.6" height="215.6" rx="34.34" ry="34.34"/><rect class="cls-19" x="282" y="1686.8" width="215.6" height="215.6" rx="34.34" ry="34.34"/><rect class="cls-19" x="536.8" y="1686.8" width="215.6" height="215.6" rx="34.34" ry="34.34"/><rect class="cls-20" x="791.6" y="1686.8" width="215.6" height="215.6" rx="34.34" ry="34.34"/><rect class="cls-19" x="1046.4" y="1686.8" width="215.6" height="215.6" rx="34.34" ry="34.34"/><rect class="cls-19" x="282" y="1941.6" width="215.6" height="215.6" rx="34.34" ry="34.34"/><rect class="cls-21" x="536.8" y="1941.6" width="215.6" height="215.6" rx="34.34" ry="34.34"/><rect class="cls-19" x="791.6" y="1941.6" width="215.6" height="215.6" rx="34.34" ry="34.34"/><rect class="cls-19" x="1046.4" y="1941.6" width="215.6" height="215.6" rx="34.34" ry="34.34"/><rect class="cls-19" x="282" y="2196.4" width="215.6" height="215.6" rx="34.34" ry="34.34"/><rect class="cls-19" x="536.8" y="2196.4" width="215.6" height="215.6" rx="34.34" ry="34.34"/><rect class="cls-19" x="791.6" y="2196.4" width="215.6" height="215.6" rx="34.34" ry="34.34"/><rect class="cls-19" x="1046.4" y="2196.4" width="215.6" height="215.6" rx="34.34" ry="34.34"/><path d="M844.55,1789.11v-4.26q6-.58,8.39-2c1.58-.91,2.77-3.08,3.55-6.49h4.38v44H855v-31.28Z"/><path d="M900.91,1820.39h-5.27v-46h5.27Z"/><path d="M946.14,1820.39v-10.8H926.76v-5.43L947,1776.09h4.69v28.66h6.51v4.84h-6.51v10.8Zm-.1-15.64v-20.07l-14.16,20.07Z"/><path class="cls-17" d="M209.5,1185.62h4.26v3.64a14.53,14.53,0,0,1,2.77-2.76,8.37,8.37,0,0,1,4.84-1.46,7.61,7.61,0,0,1,4.92,1.51,7.9,7.9,0,0,1,1.92,2.54,8.94,8.94,0,0,1,7.73-4c3.44,0,5.79,1.25,7,3.74a12.17,12.17,0,0,1,1,5.4v17.06H239.5v-17.8c0-1.7-.43-2.88-1.28-3.51a5,5,0,0,0-3.12-1,6.18,6.18,0,0,0-4.37,1.7q-1.83,1.69-1.83,5.67v14.9h-4.38v-16.72a8.65,8.65,0,0,0-.62-3.81c-.65-1.19-1.87-1.79-3.66-1.79a6.31,6.31,0,0,0-4.44,1.89q-2,1.89-2,6.84v13.59h-4.3Z"/><path class="cls-17" d="M268.88,1188.18q3.4,3.3,3.4,9.7a16.74,16.74,0,0,1-3,10.23q-3,4-9.29,4a10.47,10.47,0,0,1-8.34-3.57q-3.09-3.57-3.09-9.6,0-6.45,3.25-10.28a10.9,10.9,0,0,1,8.75-3.82A11.46,11.46,0,0,1,268.88,1188.18Zm-2.67,17a16.26,16.26,0,0,0,1.57-7.21,13,13,0,0,0-1.13-5.83,6.38,6.38,0,0,0-6.2-3.54,6.1,6.1,0,0,0-5.68,3,14.11,14.11,0,0,0-1.77,7.27,12.27,12.27,0,0,0,1.77,6.81,6.21,6.21,0,0,0,5.63,2.72Q264.63,1208.44,266.21,1205.21Z"/><path class="cls-17" d="M291.65,1186.41a11.55,11.55,0,0,1,2.59,2.51V1176h4.14v35.26h-3.87v-3.56a9.31,9.31,0,0,1-3.55,3.42,10.2,10.2,0,0,1-4.7,1.05,9.5,9.5,0,0,1-7.39-3.6q-3.12-3.6-3.12-9.58a16.57,16.57,0,0,1,2.85-9.7,9.31,9.31,0,0,1,8.14-4.11A9.06,9.06,0,0,1,291.65,1186.41ZM282,1205.62a6.09,6.09,0,0,0,5.57,2.78,5.83,5.83,0,0,0,4.89-2.58q1.92-2.57,1.92-7.38t-2-7.19a6.18,6.18,0,0,0-4.89-2.33,6.42,6.42,0,0,0-5.24,2.49q-2,2.49-2,7.32A12.74,12.74,0,0,0,282,1205.62Z"/><rect class="cls-16" x="147.58" y="1149" width="212.85" height="90" rx="15.94" ry="15.94"/><path class="cls-17" d="M554.83,1185.62h4.26v3.64a14.53,14.53,0,0,1,2.78-2.76,8.37,8.37,0,0,1,4.83-1.46,7.65,7.65,0,0,1,4.93,1.51,7.88,7.88,0,0,1,1.91,2.54,9.28,9.28,0,0,1,3.38-3,9.42,9.42,0,0,1,4.35-1c3.44,0,5.79,1.25,7,3.74a12.17,12.17,0,0,1,1,5.4v17.06h-4.48v-17.8c0-1.7-.42-2.88-1.28-3.51a5,5,0,0,0-3.12-1,6.15,6.15,0,0,0-4.36,1.7c-1.23,1.13-1.83,3-1.83,5.67v14.9h-4.38v-16.72a8.62,8.62,0,0,0-.63-3.81c-.65-1.19-1.87-1.79-3.66-1.79a6.31,6.31,0,0,0-4.43,1.89c-1.34,1.26-2,3.54-2,6.84v13.59h-4.31Z"/><path class="cls-17" d="M614.21,1188.18q3.4,3.3,3.4,9.7a16.74,16.74,0,0,1-3,10.23q-3,4-9.29,4a10.47,10.47,0,0,1-8.34-3.57q-3.09-3.57-3.09-9.6,0-6.45,3.26-10.28a10.88,10.88,0,0,1,8.74-3.82A11.46,11.46,0,0,1,614.21,1188.18Zm-2.67,17a16.26,16.26,0,0,0,1.57-7.21,12.91,12.91,0,0,0-1.13-5.83,6.38,6.38,0,0,0-6.2-3.54,6.12,6.12,0,0,0-5.68,3,14.11,14.11,0,0,0-1.77,7.27,12.27,12.27,0,0,0,1.77,6.81,6.23,6.23,0,0,0,5.63,2.72C608.56,1208.44,610.49,1207.36,611.54,1205.21Z"/><path class="cls-17" d="M637,1186.41a11.56,11.56,0,0,1,2.6,2.51V1176h4.14v35.26h-3.88v-3.56a9.31,9.31,0,0,1-3.55,3.42,10.17,10.17,0,0,1-4.7,1.05,9.52,9.52,0,0,1-7.39-3.6q-3.12-3.6-3.12-9.58a16.57,16.57,0,0,1,2.85-9.7,9.31,9.31,0,0,1,8.14-4.11A9.06,9.06,0,0,1,637,1186.41Zm-9.61,19.21a6.07,6.07,0,0,0,5.57,2.78,5.86,5.86,0,0,0,4.89-2.58c1.28-1.71,1.91-4.17,1.91-7.38s-.66-5.63-2-7.19a6.18,6.18,0,0,0-4.88-2.33,6.43,6.43,0,0,0-5.25,2.49q-2,2.49-2,7.32A12.74,12.74,0,0,0,627.37,1205.62Z"/><rect class="cls-16" x="492.91" y="1149" width="212.85" height="90" rx="15.94" ry="15.94"/><path class="cls-17" d="M900.17,1185.62h4.25v3.64a14.53,14.53,0,0,1,2.78-2.76A8.37,8.37,0,0,1,912,1185a7.63,7.63,0,0,1,4.93,1.51,8,8,0,0,1,1.92,2.54,9.26,9.26,0,0,1,3.37-3,9.42,9.42,0,0,1,4.35-1c3.45,0,5.79,1.25,7,3.74a12.19,12.19,0,0,1,1,5.4v17.06h-4.47v-17.8c0-1.7-.43-2.88-1.28-3.51a5.08,5.08,0,0,0-3.12-1,6.16,6.16,0,0,0-4.37,1.7q-1.83,1.69-1.83,5.67v14.9h-4.38v-16.72a8.8,8.8,0,0,0-.62-3.81,3.81,3.81,0,0,0-3.66-1.79,6.31,6.31,0,0,0-4.44,1.89q-2,1.89-2,6.84v13.59h-4.3Z"/><path class="cls-17" d="M959.55,1188.18q3.39,3.3,3.4,9.7a16.68,16.68,0,0,1-3,10.23q-3,4-9.29,4a10.47,10.47,0,0,1-8.34-3.57q-3.09-3.57-3.08-9.6,0-6.45,3.25-10.28a10.88,10.88,0,0,1,8.74-3.82A11.5,11.5,0,0,1,959.55,1188.18Zm-2.68,17a16.26,16.26,0,0,0,1.58-7.21,12.9,12.9,0,0,0-1.14-5.83,6.37,6.37,0,0,0-6.2-3.54,6.1,6.1,0,0,0-5.67,3,14,14,0,0,0-1.78,7.27,12.19,12.19,0,0,0,1.78,6.81,6.21,6.21,0,0,0,5.63,2.72C953.89,1208.44,955.83,1207.36,956.87,1205.21Z"/><path class="cls-17" d="M982.31,1186.41a11.35,11.35,0,0,1,2.6,2.51V1176h4.14v35.26h-3.88v-3.56a9.24,9.24,0,0,1-3.55,3.42,10.15,10.15,0,0,1-4.69,1.05,9.49,9.49,0,0,1-7.39-3.6q-3.12-3.6-3.12-9.58a16.56,16.56,0,0,1,2.84-9.7,9.32,9.32,0,0,1,8.14-4.11A9,9,0,0,1,982.31,1186.41Zm-9.61,19.21a6.08,6.08,0,0,0,5.57,2.78,5.86,5.86,0,0,0,4.89-2.58q1.92-2.57,1.92-7.38t-2-7.19a6.16,6.16,0,0,0-4.88-2.33,6.43,6.43,0,0,0-5.25,2.49q-2,2.49-2,7.32A12.74,12.74,0,0,0,972.7,1205.62Z"/><rect class="cls-16" x="838.24" y="1149" width="212.85" height="90" rx="15.94" ry="15.94"/><path class="cls-2" d="M157.32,788.91l9.16-28.41h6.46l-13.26,37h-4.82l-13.4-37h6.46Z"/><path class="cls-2" d="M176.84,778.65a21.74,21.74,0,0,1,2.14-9.77,15.85,15.85,0,0,1,5.94-6.7,16.21,16.21,0,0,1,8.7-2.36,15.58,15.58,0,0,1,12.22,5.23q4.66,5.24,4.67,13.91v.44a22,22,0,0,1-2.07,9.69,15.78,15.78,0,0,1-5.91,6.69,16.44,16.44,0,0,1-8.84,2.39,15.57,15.57,0,0,1-12.19-5.23q-4.65-5.24-4.66-13.84Zm6.36.75q0,6.17,2.85,9.88a9.67,9.67,0,0,0,15.3,0q2.84-3.78,2.83-10.58a15.84,15.84,0,0,0-2.88-9.86,9.19,9.19,0,0,0-7.68-3.77,9.07,9.07,0,0,0-7.55,3.72Q183.19,772.46,183.2,779.4Z"/><path class="cls-2" d="M225.31,797.49H219V745h6.33Z"/><path class="cls-2" d="M258.26,793.83q-3.7,4.33-10.84,4.34-5.91,0-9-3.44t-3.12-10.16V760.5h6.32v23.9q0,8.4,6.84,8.4,7.25,0,9.63-5.4V760.5h6.33v37h-6Z"/><path class="cls-2" d="M280,760.5l.17,4.1a13.68,13.68,0,0,1,11-4.78q7.75,0,10.56,5.95a14,14,0,0,1,4.81-4.31,14.22,14.22,0,0,1,7-1.64q12.17,0,12.37,12.89v24.78h-6.32V773.08q0-4-1.82-5.93t-6.08-2a8.36,8.36,0,0,0-5.84,2.1,8.52,8.52,0,0,0-2.7,5.65v24.55h-6.36V773.25q0-8.06-7.9-8.06-6.21,0-8.51,5.29v27H274v-37Z"/><path class="cls-2" d="M350.71,798.17a16.15,16.15,0,0,1-12.23-4.94q-4.73-4.93-4.72-13.21v-1.16a22.21,22.21,0,0,1,2.1-9.83,16.4,16.4,0,0,1,5.88-6.77,14.79,14.79,0,0,1,8.19-2.44q7.2,0,11.21,4.75t4,13.6v2.64H340.08a13.13,13.13,0,0,0,3.2,8.83,10,10,0,0,0,7.77,3.37,11,11,0,0,0,5.68-1.37,14.22,14.22,0,0,0,4.06-3.62l3.87,3Q360,798.17,350.71,798.17ZM349.93,765a8.41,8.41,0,0,0-6.43,2.78,13.56,13.56,0,0,0-3.21,7.81h18.52v-.48a12,12,0,0,0-2.6-7.47A7.93,7.93,0,0,0,349.93,765Z"/><path class="cls-2" d="M510.64,778.69q0-8.52,4-13.69a13.72,13.72,0,0,1,20.85-.74V745h6.32v52.5H536l-.3-4q-3.79,4.65-10.57,4.65a12.62,12.62,0,0,1-10.47-5.26q-4.05-5.26-4.05-13.74Zm6.32.71q0,6.3,2.6,9.85a8.39,8.39,0,0,0,7.18,3.55,9.22,9.22,0,0,0,8.78-5.4v-17a9.29,9.29,0,0,0-8.72-5.23,8.42,8.42,0,0,0-7.24,3.58Q517,772.37,517,779.4Z"/><path class="cls-2" d="M567,798.17a16.19,16.19,0,0,1-12.24-4.94q-4.71-4.93-4.71-13.21v-1.16a22.21,22.21,0,0,1,2.1-9.83,16.4,16.4,0,0,1,5.88-6.77,14.73,14.73,0,0,1,8.18-2.44q7.21,0,11.21,4.75t4,13.6v2.64h-25a13.17,13.17,0,0,0,3.19,8.83,10,10,0,0,0,7.78,3.37,11.06,11.06,0,0,0,5.68-1.37,14.35,14.35,0,0,0,4.06-3.62l3.86,3Q576.31,798.17,567,798.17ZM566.21,765a8.41,8.41,0,0,0-6.42,2.78,13.56,13.56,0,0,0-3.22,7.81H575.1v-.48a12,12,0,0,0-2.6-7.47A8,8,0,0,0,566.21,765Z"/><path class="cls-2" d="M603.57,793a9.12,9.12,0,0,0,5.91-2,7.25,7.25,0,0,0,2.81-5.13h6a11.46,11.46,0,0,1-2.19,6,14.44,14.44,0,0,1-5.38,4.58,15.55,15.55,0,0,1-7.13,1.71q-7.55,0-12-5t-4.46-13.79v-1.06a22.34,22.34,0,0,1,2-9.61,15.12,15.12,0,0,1,5.69-6.53,16.15,16.15,0,0,1,8.77-2.32,14.83,14.83,0,0,1,10.34,3.73,13.3,13.3,0,0,1,4.39,9.67h-6a8.77,8.77,0,0,0-2.72-5.9,8.44,8.44,0,0,0-6-2.3,8.84,8.84,0,0,0-7.47,3.46q-2.66,3.48-2.65,10v1.19q0,6.39,2.63,9.85A8.9,8.9,0,0,0,603.57,793Z"/><path class="cls-2" d="M648.21,797.49a13.52,13.52,0,0,1-.89-3.9,14.13,14.13,0,0,1-10.53,4.58,13.08,13.08,0,0,1-9-3.09,10,10,0,0,1-3.5-7.85,10.44,10.44,0,0,1,4.39-9q4.39-3.19,12.36-3.2h6.15v-2.9a7.1,7.1,0,0,0-2-5.28,8,8,0,0,0-5.85-2,9.2,9.2,0,0,0-5.67,1.71,5,5,0,0,0-2.29,4.14h-6.36a8.73,8.73,0,0,1,2-5.35,13.45,13.45,0,0,1,5.33-4.09,18,18,0,0,1,7.4-1.5q6.39,0,10,3.2a11.5,11.5,0,0,1,3.76,8.8v17a21,21,0,0,0,1.3,8.1v.55Zm-10.49-4.82a11.18,11.18,0,0,0,5.64-1.54,9.38,9.38,0,0,0,3.86-4v-7.59h-5q-11.61,0-11.62,6.8a5.74,5.74,0,0,0,2,4.65A7.63,7.63,0,0,0,637.72,792.67Z"/><path class="cls-2" d="M675,788.22l8.61-27.72h6.77l-14.87,42.69q-3.45,9.24-11,9.23l-1.19-.1-2.36-.44v-5.13l1.71.14a8.42,8.42,0,0,0,5-1.3,9.37,9.37,0,0,0,3-4.75l1.4-3.76L658.91,760.5h6.9Z"/><path class="cls-22" d="M621.11,2541.4a4.78,4.78,0,0,0-2-4.1q-2-1.46-6.92-2.51a33.1,33.1,0,0,1-7.84-2.53,11.12,11.12,0,0,1-4.29-3.52,8.39,8.39,0,0,1-1.39-4.85,9.87,9.87,0,0,1,4-7.91,15.44,15.44,0,0,1,10.11-3.24q6.46,0,10.5,3.34a10.63,10.63,0,0,1,4,8.55h-6.54a5.88,5.88,0,0,0-2.26-4.61,8.52,8.52,0,0,0-5.72-1.93,8.89,8.89,0,0,0-5.55,1.54,4.88,4.88,0,0,0-2,4,3.94,3.94,0,0,0,1.87,3.55,22.58,22.58,0,0,0,6.73,2.28,34.92,34.92,0,0,1,7.89,2.61,11.44,11.44,0,0,1,4.48,3.63,8.91,8.91,0,0,1,1.46,5.19,9.74,9.74,0,0,1-4.07,8.17q-4.08,3.07-10.59,3.08a19.11,19.11,0,0,1-8.08-1.62,13.05,13.05,0,0,1-5.5-4.52,10.83,10.83,0,0,1-2-6.27h6.5a6.72,6.72,0,0,0,2.62,5.18,10.15,10.15,0,0,0,6.45,1.92,10.57,10.57,0,0,0,5.93-1.49A4.59,4.59,0,0,0,621.11,2541.4Z"/><path class="cls-22" d="M644.91,2504.24v9.21H652v5h-7.1v23.62a5.33,5.33,0,0,0,1,3.44,4,4,0,0,0,3.23,1.14,15.84,15.84,0,0,0,3.1-.42v5.24a18.82,18.82,0,0,1-5,.7q-4.37,0-6.58-2.64c-1.48-1.76-2.21-4.25-2.21-7.49v-23.59h-6.93v-5h6.93v-9.21Z"/><path class="cls-22" d="M675.39,2552.19a16.62,16.62,0,0,1-12.59-5.08Q658,2542,658,2533.52v-1.19a22.69,22.69,0,0,1,2.17-10.11,16.77,16.77,0,0,1,6-7,15.18,15.18,0,0,1,8.42-2.52q7.42,0,11.53,4.89t4.12,14v2.71H664.46a13.54,13.54,0,0,0,3.28,9.09,10.34,10.34,0,0,0,8,3.46,11.33,11.33,0,0,0,5.84-1.41,14.6,14.6,0,0,0,4.18-3.72l4,3.09Q685,2552.19,675.39,2552.19Zm-.81-34.1A8.68,8.68,0,0,0,668,2521a13.93,13.93,0,0,0-3.3,8h19.05v-.5a12.38,12.38,0,0,0-2.67-7.68A8.18,8.18,0,0,0,674.58,2518.09Z"/><path class="cls-22" d="M729.88,2532.89q0,8.68-4,14a12.73,12.73,0,0,1-10.76,5.31q-6.92,0-10.9-4.4v18.32h-6.5v-52.66h5.94l.32,4.22q4-4.93,11-4.93a13,13,0,0,1,10.84,5.17q4,5.18,4,14.38Zm-6.5-.74q0-6.43-2.74-10.16a8.86,8.86,0,0,0-7.53-3.73,9.58,9.58,0,0,0-8.86,5.24v18.18a9.59,9.59,0,0,0,8.93,5.2,8.8,8.8,0,0,0,7.44-3.71Q723.38,2539.46,723.38,2532.15Z"/><path class="cls-22" d="M763,2551.49h-6.51v-54H763Z"/><path class="cls-22" d="M789.23,2552.19a16.62,16.62,0,0,1-12.59-5.08q-4.85-5.09-4.85-13.59v-1.19a22.82,22.82,0,0,1,2.16-10.11,16.79,16.79,0,0,1,6-7,15.16,15.16,0,0,1,8.42-2.52q7.41,0,11.53,4.89t4.11,14v2.71H778.29a13.55,13.55,0,0,0,3.29,9.09,10.32,10.32,0,0,0,8,3.46,11.26,11.26,0,0,0,5.83-1.41,14.63,14.63,0,0,0,4.19-3.72l4,3.09Q798.79,2552.19,789.23,2552.19Zm-.81-34.1a8.66,8.66,0,0,0-6.61,2.86,14,14,0,0,0-3.31,8h19.06v-.5a12.44,12.44,0,0,0-2.67-7.68A8.19,8.19,0,0,0,788.42,2518.09Z"/><path class="cls-22" d="M817.74,2513.45l.21,4.78a13.86,13.86,0,0,1,11.39-5.49q12.06,0,12.16,13.61v25.14H835v-25.18q0-4.11-1.88-6.08t-5.75-2a9.4,9.4,0,0,0-5.55,1.69,11.43,11.43,0,0,0-3.73,4.43v27.11h-6.5v-38Z"/><path class="cls-22" d="M849.77,2532.15q0-8.9,4.11-14.15a13.16,13.16,0,0,1,10.9-5.26q7,0,10.86,4.93l.32-4.22h5.94v37.12q0,7.38-4.38,11.64t-11.76,4.25a19.61,19.61,0,0,1-8-1.75,13.92,13.92,0,0,1-6-4.82l3.37-3.9a12.73,12.73,0,0,0,10.23,5.16,10,10,0,0,0,7.41-2.67c1.76-1.78,2.65-4.29,2.65-7.52v-3.27q-3.9,4.5-10.65,4.5a13,13,0,0,1-10.81-5.38Q849.76,2541.42,849.77,2532.15Zm6.53.74q0,6.43,2.64,10.11a8.56,8.56,0,0,0,7.38,3.67,9.52,9.52,0,0,0,9-5.59v-17.37a9.64,9.64,0,0,0-9-5.45A8.62,8.62,0,0,0,859,2522Q856.31,2525.65,856.3,2532.89Z"/><path class="cls-22" d="M900.53,2504.24v9.21h7.1v5h-7.1v23.62a5.33,5.33,0,0,0,1,3.44,4,4,0,0,0,3.23,1.14,15.84,15.84,0,0,0,3.1-.42v5.24a18.82,18.82,0,0,1-5,.7q-4.37,0-6.58-2.64c-1.47-1.76-2.21-4.25-2.21-7.49v-23.59H887.1v-5H894v-9.21Z"/><path class="cls-22" d="M921.73,2518.05a13.82,13.82,0,0,1,11.25-5.31q12.06,0,12.16,13.61v25.14h-6.5v-25.18q0-4.11-1.88-6.08t-5.75-2a9.4,9.4,0,0,0-5.55,1.69,11.43,11.43,0,0,0-3.73,4.43v27.11h-6.5v-54h6.5Z"/><path class="cls-23" d="M653.49,2653.49h-6v-39.74l-12,4.42v-5.42l17.08-6.41h.94Z"/><path class="cls-23" d="M672.76,2657.51h-5.12l19.59-51h5.09Z"/><path class="cls-23" d="M717.75,2653.49h-6v-39.74l-12,4.42v-5.42l17.08-6.41h.94Z"/><path class="cls-23" d="M758.61,2606.53v5.06h-1.09q-7,.13-11.09,4.13T741.66,2627a12.74,12.74,0,0,1,10.12-4.25,12.17,12.17,0,0,1,9.78,4.32q3.66,4.32,3.66,11.15,0,7.25-4,11.6a13.59,13.59,0,0,1-10.59,4.35,13.37,13.37,0,0,1-10.92-5.17q-4.18-5.17-4.19-13.33v-2.29q0-12.95,5.53-19.8t16.45-7Zm-7.83,21.14a10,10,0,0,0-9.22,6.45v2.19q0,5.8,2.61,9.34a7.81,7.81,0,0,0,6.51,3.55,7.59,7.59,0,0,0,6.34-3,14.24,14.24,0,0,0,0-15.58A7.49,7.49,0,0,0,750.78,2627.67Z"/><path class="cls-23" d="M818.75,2636.44q0,8-3.68,12.84a11.74,11.74,0,0,1-9.86,4.85q-6.6,0-10.21-4.67l-.29,4h-5.48V2604h6v18.46a12.09,12.09,0,0,1,10-4.48,11.81,11.81,0,0,1,10,4.8q3.63,4.82,3.63,13.15Zm-6-.68q0-6.09-2.35-9.41a7.79,7.79,0,0,0-6.77-3.32,8.75,8.75,0,0,0-8.47,5.48v15.08q2.73,5.49,8.54,5.48a7.75,7.75,0,0,0,6.67-3.32Q812.79,2642.44,812.78,2635.76Z"/><path class="cls-23" d="M847.78,2653.49a12.9,12.9,0,0,1-.84-3.68,13.29,13.29,0,0,1-9.92,4.32,12.28,12.28,0,0,1-8.46-2.92,9.43,9.43,0,0,1-3.3-7.39,9.86,9.86,0,0,1,4.14-8.46q4.14-3,11.65-3h5.8v-2.74a6.7,6.7,0,0,0-1.87-5,7.5,7.5,0,0,0-5.51-1.86,8.72,8.72,0,0,0-5.35,1.61,4.77,4.77,0,0,0-2.16,3.91h-6a8.2,8.2,0,0,1,1.86-5.05,12.69,12.69,0,0,1,5-3.85,17,17,0,0,1,7-1.42q6,0,9.44,3a10.85,10.85,0,0,1,3.55,8.29v16A19.77,19.77,0,0,0,854,2653v.52Zm-9.89-4.55a10.46,10.46,0,0,0,5.32-1.45,8.74,8.74,0,0,0,3.64-3.77v-7.15h-4.68q-10.95,0-10.95,6.41a5.41,5.41,0,0,0,1.87,4.38A7.12,7.12,0,0,0,837.89,2648.94Z"/><path class="cls-23" d="M879,2624a17.86,17.86,0,0,0-2.93-.23q-5.87,0-8,5v24.75h-6v-34.87H868l.09,4a9.3,9.3,0,0,1,8.32-4.67,6.09,6.09,0,0,1,2.64.45Z"/><path class="cls-23" d="M904.79,2644.24a4.4,4.4,0,0,0-1.82-3.76,17.45,17.45,0,0,0-6.35-2.3,30.25,30.25,0,0,1-7.18-2.32,10.17,10.17,0,0,1-3.94-3.23,7.66,7.66,0,0,1-1.27-4.44,9,9,0,0,1,3.63-7.25,14.11,14.11,0,0,1,9.26-3,14.58,14.58,0,0,1,9.62,3.06,9.75,9.75,0,0,1,3.69,7.84h-6a5.4,5.4,0,0,0-2.08-4.23,7.8,7.8,0,0,0-5.24-1.77,8.11,8.11,0,0,0-5.09,1.42,4.44,4.44,0,0,0-1.84,3.7,3.62,3.62,0,0,0,1.71,3.26,20.94,20.94,0,0,0,6.17,2.09,32.55,32.55,0,0,1,7.24,2.39,10.63,10.63,0,0,1,4.11,3.33,8.25,8.25,0,0,1,1.33,4.76,8.91,8.91,0,0,1-3.74,7.49,15.66,15.66,0,0,1-9.7,2.82,17.54,17.54,0,0,1-7.41-1.48,12,12,0,0,1-5-4.14,10,10,0,0,1-1.82-5.76h6a6.2,6.2,0,0,0,2.4,4.76,9.32,9.32,0,0,0,5.91,1.75,9.54,9.54,0,0,0,5.43-1.37A4.19,4.19,0,0,0,904.79,2644.24Z"/><path class="cls-2" d="M871.27,793a9.16,9.16,0,0,0,5.92-2,7.24,7.24,0,0,0,2.8-5.13h6a11.38,11.38,0,0,1-2.19,6,14.44,14.44,0,0,1-5.38,4.58,15.52,15.52,0,0,1-7.13,1.71q-7.54,0-12-5t-4.46-13.79v-1.06a22.34,22.34,0,0,1,2-9.61,15.12,15.12,0,0,1,5.69-6.53,16.19,16.19,0,0,1,8.77-2.32,14.81,14.81,0,0,1,10.34,3.73,13.27,13.27,0,0,1,4.39,9.67h-6a8.72,8.72,0,0,0-2.72-5.9,8.44,8.44,0,0,0-6-2.3,8.86,8.86,0,0,0-7.47,3.46q-2.64,3.48-2.65,10v1.19q0,6.39,2.63,9.85A8.91,8.91,0,0,0,871.27,793Z"/><path class="cls-2" d="M915.91,793.83q-3.69,4.33-10.83,4.34-5.91,0-9-3.44t-3.13-10.16V760.5h6.33v23.9q0,8.4,6.83,8.4,7.24,0,9.64-5.4V760.5h6.33v37h-6Z"/><path class="cls-2" d="M940.25,751.55v9h6.9v4.89h-6.9v23a5.16,5.16,0,0,0,.92,3.34,3.9,3.9,0,0,0,3.15,1.11,14.78,14.78,0,0,0,3-.41v5.1a18.53,18.53,0,0,1-4.85.68c-2.83,0-5-.86-6.39-2.56s-2.15-4.14-2.15-7.28V765.39h-6.74V760.5h6.74v-9Z"/><path class="cls-2" d="M952.18,778.65a21.87,21.87,0,0,1,2.13-9.77,15.94,15.94,0,0,1,6-6.7,16.21,16.21,0,0,1,8.7-2.36,15.58,15.58,0,0,1,12.22,5.23q4.67,5.24,4.66,13.91v.44a22,22,0,0,1-2.06,9.69,15.73,15.73,0,0,1-5.92,6.69,16.41,16.41,0,0,1-8.83,2.39,15.55,15.55,0,0,1-12.19-5.23q-4.67-5.24-4.66-13.84Zm6.36.75q0,6.17,2.85,9.88a9.66,9.66,0,0,0,15.29,0q2.85-3.78,2.84-10.58,0-6.07-2.89-9.86a9.6,9.6,0,0,0-15.22,0Q958.53,772.46,958.54,779.4Z"/><path class="cls-2" d="M996.88,797.49v-32.1H991V760.5h5.84v-3.79q0-6,3.18-9.19t9-3.25a16.44,16.44,0,0,1,4.34.58l-.34,5.09a18.58,18.58,0,0,0-3.42-.31,6.17,6.17,0,0,0-4.75,1.8,7.33,7.33,0,0,0-1.67,5.16v3.91h7.89v4.89h-7.89v32.1Z"/><path class="cls-2" d="M1021.19,797.49v-32.1h-5.85V760.5h5.85v-3.79q0-6,3.18-9.19t9-3.25a16.57,16.57,0,0,1,4.35.58l-.35,5.09a18.55,18.55,0,0,0-3.41-.31,6.18,6.18,0,0,0-4.76,1.8,7.33,7.33,0,0,0-1.67,5.16v3.91h7.9v4.89h-7.9v32.1Z"/><path class="cls-2" d="M1248.86,779.4q0,8.45-3.86,13.61a12.37,12.37,0,0,1-10.46,5.16q-6.74,0-10.59-4.27v17.8h-6.33V760.5h5.78l.31,4.1q3.86-4.77,10.73-4.78a12.63,12.63,0,0,1,10.55,5q3.87,5,3.87,14Zm-6.32-.71q0-6.26-2.66-9.88a8.59,8.59,0,0,0-7.32-3.62,9.27,9.27,0,0,0-8.61,5.09V788a9.31,9.31,0,0,0,8.68,5.06,8.54,8.54,0,0,0,7.23-3.61Q1242.55,785.8,1242.54,778.69Z"/><path class="cls-2" d="M1256.93,750.69a3.74,3.74,0,0,1,.94-2.59,3.53,3.53,0,0,1,2.79-1.06,3.57,3.57,0,0,1,2.8,1.06,3.71,3.71,0,0,1,1,2.59,3.75,3.75,0,1,1-7.49,0Zm6.84,46.8h-6.33v-37h6.33Z"/><path class="cls-2" d="M1282.46,751.55v9h6.91v4.89h-6.91v23a5.1,5.1,0,0,0,.93,3.34,3.87,3.87,0,0,0,3.14,1.11,14.86,14.86,0,0,0,3-.41v5.1a18.6,18.6,0,0,1-4.86.68,7.91,7.91,0,0,1-6.39-2.56q-2.14-2.57-2.15-7.28V765.39h-6.73V760.5h6.73v-9Z"/><path class="cls-2" d="M1311.58,793a9.16,9.16,0,0,0,5.92-2,7.24,7.24,0,0,0,2.8-5.13h6a11.38,11.38,0,0,1-2.19,6,14.44,14.44,0,0,1-5.38,4.58,15.52,15.52,0,0,1-7.13,1.71q-7.55,0-12-5t-4.46-13.79v-1.06a22.34,22.34,0,0,1,2-9.61,15.12,15.12,0,0,1,5.69-6.53,16.17,16.17,0,0,1,8.77-2.32,14.81,14.81,0,0,1,10.34,3.73,13.3,13.3,0,0,1,4.39,9.67h-6a8.72,8.72,0,0,0-2.72-5.9,8.44,8.44,0,0,0-6-2.3,8.86,8.86,0,0,0-7.47,3.46q-2.64,3.48-2.65,10v1.19q0,6.39,2.63,9.85A8.91,8.91,0,0,0,1311.58,793Z"/><path class="cls-2" d="M1339.71,765a13.46,13.46,0,0,1,10.94-5.16q11.73,0,11.83,13.23v24.44h-6.33V773q0-4-1.82-5.91c-1.2-1.28-3.06-1.91-5.59-1.91a9.08,9.08,0,0,0-5.4,1.64,11.19,11.19,0,0,0-3.63,4.3v26.36h-6.32V745h6.32Z"/><use id="Knob-3" data-name="Knob" width="237.26" height="206.04" transform="translate(144.76 879.35) rotate(-0.01) scale(0.92)" xlink:href="#Knob"/><use id="Knob-6" data-name="Knob" width="237.26" height="206.04" transform="translate(490.1 879.35) rotate(-0.01) scale(0.92)" xlink:href="#Knob"/><use id="Knob-9" data-name="Knob" width="237.26" height="206.04" transform="translate(835.43 879.35) rotate(-0.01) scale(0.92)" xlink:href="#Knob"/><use id="Knob-12" data-name="Knob" width="237.26" height="206.04" transform="translate(1180.76 879.35) rotate(-0.01) scale(0.92)" xlink:href="#Knob"/></g></g></svg>