<?xml version="1.0" encoding="utf-8"?>
<!-- Generator: Adobe Illustrator 22.0.0, SVG Export Plug-In . SVG Version: 6.00 Build 0)  -->
<svg version="1.1" id="Calque_1" xmlns="http://www.w3.org/2000/svg" xmlns:xlink="http://www.w3.org/1999/xlink" x="0px" y="0px"
	 viewBox="0 0 32 32" style="enable-background:new 0 0 32 32;" xml:space="preserve">
<style type="text/css">
	.st0{fill:#333333;}
</style>
<title></title>
<g id="Layer_3">
	<path class="st0" d="M13.4,28c-4.5,0-8.6-2.2-11.2-5.8c-0.3-0.5-0.2-1.1,0.3-1.4c0.1-0.1,0.3-0.1,0.4-0.2l2.8-0.4
		C1.6,15.7,1.5,9,5.4,4.3c0.4-0.4,1-0.5,1.4-0.1C7,4.4,7.1,4.5,7.1,4.7c0.9,2.5,2.8,4.6,5.3,5.7c0.6-3.5,3.7-6.1,7.2-6.2
		c2.3,0,4.5,1.1,5.9,3H29c0.4,0,0.7,0.2,0.9,0.6c0.2,0.3,0.1,0.8-0.1,1.1L27,12.3c0,0.1,0,0.3,0,0.4c0.1,0.5,0.1,1,0.1,1.4
		C27.1,21.7,21,27.9,13.4,28z M4.9,22.3c2.2,2.3,5.2,3.7,8.5,3.7c6.5-0.1,11.8-5.4,11.7-11.9c0-0.4,0-0.9-0.1-1.3c0-0.1,0-0.2,0-0.3
		c0-0.2,0-0.4,0.1-0.6c0-0.2,0.1-0.4,0.2-0.6l1.7-2.1h-1.9c-0.3,0-0.7-0.2-0.9-0.5c-1-1.6-2.7-2.5-4.5-2.5c-3,0-5.4,2.5-5.4,5.4
		c0,0.3-0.1,0.6-0.4,0.8c-0.2,0.2-0.6,0.3-0.9,0.2C10.1,11.8,7.5,9.8,6,7c-2.6,4.4-1.5,10,2.6,13.1c0.3,0.2,0.5,0.7,0.4,1
		c-0.1,0.4-0.4,0.7-0.8,0.7L4.9,22.3z"/>
</g>
</svg>
